<?xml version="1.0" standalone="no"?>
 <!DOCTYPE svg PUBLIC "-//W3C//DTD SVG 1.1//EN" 
 "http://www.w3.org/Graphics/SVG/1.1/DTD/svg11.dtd"> 
<svg
  xmlns:svg="http://www.w3.org/2000/svg"
  xmlns="http://www.w3.org/2000/svg"
  xmlns:xlink="http://www.w3.org/1999/xlink"
  version="1.1"
  width="18.232120cm" height="9.657080cm" viewBox="0 0 182321200 96570800">
<title>SVG Picture created as Blinky-brd.svg date 2024/01/12 14:33:08 </title>
  <desc>Picture generated by PCBNEW </desc>
<g style="fill:#000000; fill-opacity:1.000000;stroke:#000000; stroke-opacity:1.000000;
stroke-linecap:round; stroke-linejoin:round;"
 transform="translate(0 0) scale(1 1)">
</g>
<g style="fill:#000000; fill-opacity:0.0; 
stroke:#000000; stroke-width:0.000000; stroke-opacity:1; 
stroke-linecap:round; stroke-linejoin:round;">
<g >
</g>
<g >
</g>
<g >
</g>
<g >
</g>
<g >
</g>
<g >
</g>
<g >
</g>
<g style="fill:#C20000; fill-opacity:0.0; 
stroke:#C20000; stroke-width:0.000000; stroke-opacity:1; 
stroke-linecap:round; stroke-linejoin:round;">
</g>
<g style="fill:#C20000; fill-opacity:0.0; 
stroke:#C20000; stroke-width:1.000000; stroke-opacity:1; 
stroke-linecap:round; stroke-linejoin:round;">
</g>
<g style="fill:#C20000; fill-opacity:1.0; 
stroke:#C20000; stroke-width:1.000000; stroke-opacity:1; 
stroke-linecap:round; stroke-linejoin:round;">
<path style="fill:#C20000; fill-opacity:1.0; 
stroke:#C20000; stroke-width:1.000000; stroke-opacity:1; 
stroke-linecap:round; stroke-linejoin:round;fill-rule:evenodd;"
d="M 54169351.000000,76375351.000000
55969349.000000,76375351.000000
55969349.000000,78175349.000000
54169351.000000,78175349.000000
Z" /> 
<circle cx="55069350.000000" cy="79815350.000000" r="900000.000000" /> 
</g>
<g style="fill:#C20000; fill-opacity:1.0; 
stroke:#C20000; stroke-width:21200.000000; stroke-opacity:1; 
stroke-linecap:round; stroke-linejoin:round;">
</g>
<g >
</g>
<g style="fill:#C20000; fill-opacity:1.0; 
stroke:#C20000; stroke-width:21200.000000; stroke-opacity:1; 
stroke-linecap:round; stroke-linejoin:round;">
</g>
<g style="fill:#C20000; fill-opacity:1.0; 
stroke:#C20000; stroke-width:1.000000; stroke-opacity:1; 
stroke-linecap:round; stroke-linejoin:round;">
<path style="fill:#C20000; fill-opacity:1.0; 
stroke:#C20000; stroke-width:1.000000; stroke-opacity:1; 
stroke-linecap:round; stroke-linejoin:round;fill-rule:evenodd;"
d="M 66996351.000000,83487351.000000
68796349.000000,83487351.000000
68796349.000000,85287349.000000
66996351.000000,85287349.000000
Z" /> 
<circle cx="67896350.000000" cy="86927350.000000" r="900000.000000" /> 
</g>
<g style="fill:#C20000; fill-opacity:1.0; 
stroke:#C20000; stroke-width:21200.000000; stroke-opacity:1; 
stroke-linecap:round; stroke-linejoin:round;">
</g>
<g >
</g>
<g style="fill:#C20000; fill-opacity:1.0; 
stroke:#C20000; stroke-width:21200.000000; stroke-opacity:1; 
stroke-linecap:round; stroke-linejoin:round;">
</g>
<g style="fill:#C20000; fill-opacity:1.0; 
stroke:#C20000; stroke-width:1.000000; stroke-opacity:1; 
stroke-linecap:round; stroke-linejoin:round;">
<path style="fill:#C20000; fill-opacity:1.0; 
stroke:#C20000; stroke-width:1.000000; stroke-opacity:1; 
stroke-linecap:round; stroke-linejoin:round;fill-rule:evenodd;"
d="M 77029351.000000,76502351.000000
78829349.000000,76502351.000000
78829349.000000,78302349.000000
77029351.000000,78302349.000000
Z" /> 
<circle cx="77929350.000000" cy="79942350.000000" r="900000.000000" /> 
</g>
<g style="fill:#C20000; fill-opacity:1.0; 
stroke:#C20000; stroke-width:21200.000000; stroke-opacity:1; 
stroke-linecap:round; stroke-linejoin:round;">
</g>
<g >
</g>
<g >
</g>
<g >
</g>
<g >
</g>
<g >
</g>
<g >
</g>
<g >
</g>
<g >
</g>
<g >
</g>
<g style="fill:#C20000; fill-opacity:1.0; 
stroke:#C20000; stroke-width:21200.000000; stroke-opacity:1; 
stroke-linecap:round; stroke-linejoin:round;">
</g>
<g style="fill:#C20000; fill-opacity:1.0; 
stroke:#C20000; stroke-width:2500000.000000; stroke-opacity:1; 
stroke-linecap:round; stroke-linejoin:round;">
</g>
<g style="fill:#C20000; fill-opacity:0.0; 
stroke:#C20000; stroke-width:2500000.000000; stroke-opacity:1; 
stroke-linecap:round; stroke-linejoin:round;">
<path d="M58497350 58935350
L58497350 57435350
" />
<path d="M79579350 58935350
L79579350 57435350
" />
</g>
<g >
</g>
<g style="fill:#C20000; fill-opacity:0.0; 
stroke:#C20000; stroke-width:2500000.000000; stroke-opacity:1; 
stroke-linecap:round; stroke-linejoin:round;">
</g>
<g style="fill:#C20000; fill-opacity:1.0; 
stroke:#C20000; stroke-width:1.000000; stroke-opacity:1; 
stroke-linecap:round; stroke-linejoin:round;">
<circle cx="87071205.000000" cy="70751426.000000" r="1000000.000000" /> 
</g>
<g style="fill:#C20000; fill-opacity:1.0; 
stroke:#C20000; stroke-width:21200.000000; stroke-opacity:1; 
stroke-linecap:round; stroke-linejoin:round;">
</g>
<g style="fill:#C20000; fill-opacity:1.0; 
stroke:#C20000; stroke-width:1.000000; stroke-opacity:1; 
stroke-linecap:round; stroke-linejoin:round;">
<circle cx="85803350.000000" cy="73470350.000000" r="1000000.000000" /> 
</g>
<g style="fill:#C20000; fill-opacity:1.0; 
stroke:#C20000; stroke-width:21200.000000; stroke-opacity:1; 
stroke-linecap:round; stroke-linejoin:round;">
</g>
<g style="fill:#C20000; fill-opacity:1.0; 
stroke:#C20000; stroke-width:1.000000; stroke-opacity:1; 
stroke-linecap:round; stroke-linejoin:round;">
<circle cx="84535495.000000" cy="76189273.000000" r="1000000.000000" /> 
</g>
<g style="fill:#C20000; fill-opacity:1.0; 
stroke:#C20000; stroke-width:21200.000000; stroke-opacity:1; 
stroke-linecap:round; stroke-linejoin:round;">
</g>
<g >
</g>
<g >
</g>
<g >
</g>
<g >
</g>
<g >
</g>
<g >
</g>
<g style="fill:#C2C2C2; fill-opacity:1.0; 
stroke:#C2C2C2; stroke-width:21200.000000; stroke-opacity:1; 
stroke-linecap:round; stroke-linejoin:round;">
</g>
<g style="fill:#C2C2C2; fill-opacity:1.0; 
stroke:#C2C2C2; stroke-width:1.000000; stroke-opacity:1; 
stroke-linecap:round; stroke-linejoin:round;">
<circle cx="68658350.000000" cy="40958350.000000" r="558800.000000" /> 
</g>
<g style="fill:#C2C2C2; fill-opacity:1.0; 
stroke:#C2C2C2; stroke-width:21200.000000; stroke-opacity:1; 
stroke-linecap:round; stroke-linejoin:round;">
</g>
<g >
</g>
<g >
</g>
</g>
<g style="fill:#FFFFFF; fill-opacity:1.0; 
stroke:#FFFFFF; stroke-width:21200.000000; stroke-opacity:1; 
stroke-linecap:round; stroke-linejoin:round;">
</g>
<g style="fill:#FFFFFF; fill-opacity:1.0; 
stroke:#FFFFFF; stroke-width:1.000000; stroke-opacity:1; 
stroke-linecap:round; stroke-linejoin:round;">
<circle cx="68658350.000000" cy="40958350.000000" r="546100.000000" /> 
</g>
<g style="fill:#FFFFFF; fill-opacity:1.0; 
stroke:#FFFFFF; stroke-width:21200.000000; stroke-opacity:1; 
stroke-linecap:round; stroke-linejoin:round;">
</g>
<g style="fill:#FFFFFF; fill-opacity:1.0; 
stroke:#FFFFFF; stroke-width:1.000000; stroke-opacity:1; 
stroke-linecap:round; stroke-linejoin:round;">
<circle cx="55069350.000000" cy="77275350.000000" r="450000.000000" /> 
</g>
<g style="fill:#FFFFFF; fill-opacity:1.0; 
stroke:#FFFFFF; stroke-width:21200.000000; stroke-opacity:1; 
stroke-linecap:round; stroke-linejoin:round;">
</g>
<g style="fill:#FFFFFF; fill-opacity:1.0; 
stroke:#FFFFFF; stroke-width:1.000000; stroke-opacity:1; 
stroke-linecap:round; stroke-linejoin:round;">
<circle cx="55069350.000000" cy="79815350.000000" r="450000.000000" /> 
</g>
<g style="fill:#FFFFFF; fill-opacity:1.0; 
stroke:#FFFFFF; stroke-width:21200.000000; stroke-opacity:1; 
stroke-linecap:round; stroke-linejoin:round;">
</g>
<g style="fill:#FFFFFF; fill-opacity:1.0; 
stroke:#FFFFFF; stroke-width:1.000000; stroke-opacity:1; 
stroke-linecap:round; stroke-linejoin:round;">
<circle cx="67896350.000000" cy="84387350.000000" r="450000.000000" /> 
</g>
<g style="fill:#FFFFFF; fill-opacity:1.0; 
stroke:#FFFFFF; stroke-width:21200.000000; stroke-opacity:1; 
stroke-linecap:round; stroke-linejoin:round;">
</g>
<g style="fill:#FFFFFF; fill-opacity:1.0; 
stroke:#FFFFFF; stroke-width:1.000000; stroke-opacity:1; 
stroke-linecap:round; stroke-linejoin:round;">
<circle cx="67896350.000000" cy="86927350.000000" r="450000.000000" /> 
</g>
<g style="fill:#FFFFFF; fill-opacity:1.0; 
stroke:#FFFFFF; stroke-width:21200.000000; stroke-opacity:1; 
stroke-linecap:round; stroke-linejoin:round;">
</g>
<g style="fill:#FFFFFF; fill-opacity:1.0; 
stroke:#FFFFFF; stroke-width:1.000000; stroke-opacity:1; 
stroke-linecap:round; stroke-linejoin:round;">
<circle cx="77929350.000000" cy="77402350.000000" r="450000.000000" /> 
</g>
<g style="fill:#FFFFFF; fill-opacity:1.0; 
stroke:#FFFFFF; stroke-width:21200.000000; stroke-opacity:1; 
stroke-linecap:round; stroke-linejoin:round;">
</g>
<g style="fill:#FFFFFF; fill-opacity:1.0; 
stroke:#FFFFFF; stroke-width:1.000000; stroke-opacity:1; 
stroke-linecap:round; stroke-linejoin:round;">
<circle cx="77929350.000000" cy="79942350.000000" r="450000.000000" /> 
</g>
<g style="fill:#FFFFFF; fill-opacity:1.0; 
stroke:#FFFFFF; stroke-width:21200.000000; stroke-opacity:1; 
stroke-linecap:round; stroke-linejoin:round;">
</g>
<g style="fill:#FFFFFF; fill-opacity:1.0; 
stroke:#FFFFFF; stroke-width:1.000000; stroke-opacity:1; 
stroke-linecap:round; stroke-linejoin:round;">
<circle cx="58497350.000000" cy="58185350.000000" r="825000.000000" /> 
</g>
<g style="fill:#FFFFFF; fill-opacity:1.0; 
stroke:#FFFFFF; stroke-width:21200.000000; stroke-opacity:1; 
stroke-linecap:round; stroke-linejoin:round;">
</g>
<g style="fill:#FFFFFF; fill-opacity:1.0; 
stroke:#FFFFFF; stroke-width:1.000000; stroke-opacity:1; 
stroke-linecap:round; stroke-linejoin:round;">
<circle cx="79579350.000000" cy="58185350.000000" r="825000.000000" /> 
</g>
<g style="fill:#FFFFFF; fill-opacity:1.0; 
stroke:#FFFFFF; stroke-width:21200.000000; stroke-opacity:1; 
stroke-linecap:round; stroke-linejoin:round;">
</g>
<g style="fill:#FFFFFF; fill-opacity:1.0; 
stroke:#FFFFFF; stroke-width:1.000000; stroke-opacity:1; 
stroke-linecap:round; stroke-linejoin:round;">
<circle cx="87071205.000000" cy="70751426.000000" r="500000.000000" /> 
</g>
<g style="fill:#FFFFFF; fill-opacity:1.0; 
stroke:#FFFFFF; stroke-width:21200.000000; stroke-opacity:1; 
stroke-linecap:round; stroke-linejoin:round;">
</g>
<g style="fill:#FFFFFF; fill-opacity:1.0; 
stroke:#FFFFFF; stroke-width:1.000000; stroke-opacity:1; 
stroke-linecap:round; stroke-linejoin:round;">
<circle cx="85803350.000000" cy="73470350.000000" r="500000.000000" /> 
</g>
<g style="fill:#FFFFFF; fill-opacity:1.0; 
stroke:#FFFFFF; stroke-width:21200.000000; stroke-opacity:1; 
stroke-linecap:round; stroke-linejoin:round;">
</g>
<g style="fill:#FFFFFF; fill-opacity:1.0; 
stroke:#FFFFFF; stroke-width:1.000000; stroke-opacity:1; 
stroke-linecap:round; stroke-linejoin:round;">
<circle cx="84535495.000000" cy="76189273.000000" r="500000.000000" /> 
</g>
<g style="fill:#FFFFFF; fill-opacity:1.0; 
stroke:#FFFFFF; stroke-width:21200.000000; stroke-opacity:1; 
stroke-linecap:round; stroke-linejoin:round;">
</g>
<g style="fill:#000000; fill-opacity:1.0; 
stroke:#000000; stroke-width:21200.000000; stroke-opacity:1; 
stroke-linecap:round; stroke-linejoin:round;">
</g>
<g style="fill:#840000; fill-opacity:1.0; 
stroke:#840000; stroke-width:21200.000000; stroke-opacity:1; 
stroke-linecap:round; stroke-linejoin:round;">
</g>
<g style="fill:#840000; fill-opacity:0.0; 
stroke:#840000; stroke-width:1016000.000000; stroke-opacity:1; 
stroke-linecap:round; stroke-linejoin:round;">
<circle cx="79580350.000000" cy="58216395.000000" r="4204955.000000" /> 
<circle cx="58498350.000000" cy="58089395.000000" r="4204955.000000" /> 
</g>
<g style="fill:#840000; fill-opacity:0.0; 
stroke:#840000; stroke-width:100000.000000; stroke-opacity:1; 
stroke-linecap:round; stroke-linejoin:round;">
<path d="M70869350 65893350
L70369350 66593350
" />
<path d="M70369350 66593350
L69569350 66993350
" />
<path d="M69569350 66993350
L68769350 67193350
" />
<path d="M68769350 67193350
L67769350 66993350
" />
<path d="M67769350 66993350
L67169350 66693350
" />
<path d="M67169350 66693350
L66469350 65893350
" />
<path d="M66469350 65893350
L66169350 65193350
" />
<path d="M66169350 65193350
L66169350 64493350
" />
<path d="M66169350 64493350
L71369350 64493350
" />
<path d="M71369350 64493350
L70869350 65893350
" />
</g>
<g style="fill:#840000; fill-opacity:1.0; 
stroke:#840000; stroke-width:100000.000000; stroke-opacity:1; 
stroke-linecap:round; stroke-linejoin:round;">
<path style="fill:#840000; fill-opacity:1.0; 
stroke:#840000; stroke-width:100000.000000; stroke-opacity:1; 
stroke-linecap:round; stroke-linejoin:round;fill-rule:evenodd;"
d="M 70869350.000000,65893350.000000
70369350.000000,66593350.000000
69569350.000000,66993350.000000
68769350.000000,67193350.000000
67769350.000000,66993350.000000
67169350.000000,66693350.000000
66469350.000000,65893350.000000
66169350.000000,65193350.000000
66169350.000000,64493350.000000
71369350.000000,64493350.000000
Z" /> 
</g>
<g style="fill:#840000; fill-opacity:1.0; 
stroke:#840000; stroke-width:635000.000000; stroke-opacity:1; 
stroke-linecap:round; stroke-linejoin:round;">
</g>
<g style="fill:#840000; fill-opacity:0.0; 
stroke:#840000; stroke-width:635000.000000; stroke-opacity:1; 
stroke-linecap:round; stroke-linejoin:round;">
<path d="M66069350 64493350
L71269350 64493350
" />
<path d="M66069350.000000 64493350.000000 A2600000.000000 2600000.000000 0.0 0 0 71269350.000000 64493350.000000" />
<g >
</g>
<g >
</g>
<g >
</g>
<g >
</g>
<g >
</g>
<g >
</g>
<g >
</g>
<g style="fill:#000000; fill-opacity:0.0; 
stroke:#000000; stroke-width:635000.000000; stroke-opacity:1; 
stroke-linecap:round; stroke-linejoin:round;">
</g>
<g style="fill:#000000; fill-opacity:0.0; 
stroke:#000000; stroke-width:1.000000; stroke-opacity:1; 
stroke-linecap:round; stroke-linejoin:round;">
</g>
<g style="fill:#000000; fill-opacity:1.0; 
stroke:#000000; stroke-width:1.000000; stroke-opacity:1; 
stroke-linecap:round; stroke-linejoin:round;">
<path style="fill:#000000; fill-opacity:1.0; 
stroke:#000000; stroke-width:1.000000; stroke-opacity:1; 
stroke-linecap:round; stroke-linejoin:round;fill-rule:evenodd;"
d="M 55969350.000000,76325350.000000
55988484.000000,76329156.000000
56004705.000000,76339995.000000
56015544.000000,76356216.000000
56019350.000000,76375350.000000
56019350.000000,78175350.000000
56015544.000000,78194484.000000
56004705.000000,78210705.000000
55988484.000000,78221544.000000
55969350.000000,78225350.000000
54169350.000000,78225350.000000
54150216.000000,78221544.000000
54133995.000000,78210705.000000
54123156.000000,78194484.000000
54119350.000000,78175350.000000
54119350.000000,76375350.000000
54123156.000000,76356216.000000
54133995.000000,76339995.000000
54150216.000000,76329156.000000
54169350.000000,76325350.000000
Z" /> 
<circle cx="55069350.000000" cy="79815350.000000" r="950000.000000" /> 
</g>
<g style="fill:#000000; fill-opacity:1.0; 
stroke:#000000; stroke-width:21200.000000; stroke-opacity:1; 
stroke-linecap:round; stroke-linejoin:round;">
</g>
<g >
</g>
<g style="fill:#000000; fill-opacity:1.0; 
stroke:#000000; stroke-width:21200.000000; stroke-opacity:1; 
stroke-linecap:round; stroke-linejoin:round;">
</g>
<g style="fill:#000000; fill-opacity:1.0; 
stroke:#000000; stroke-width:1.000000; stroke-opacity:1; 
stroke-linecap:round; stroke-linejoin:round;">
<path style="fill:#000000; fill-opacity:1.0; 
stroke:#000000; stroke-width:1.000000; stroke-opacity:1; 
stroke-linecap:round; stroke-linejoin:round;fill-rule:evenodd;"
d="M 68796350.000000,83437350.000000
68815484.000000,83441156.000000
68831705.000000,83451995.000000
68842544.000000,83468216.000000
68846350.000000,83487350.000000
68846350.000000,85287350.000000
68842544.000000,85306484.000000
68831705.000000,85322705.000000
68815484.000000,85333544.000000
68796350.000000,85337350.000000
66996350.000000,85337350.000000
66977216.000000,85333544.000000
66960995.000000,85322705.000000
66950156.000000,85306484.000000
66946350.000000,85287350.000000
66946350.000000,83487350.000000
66950156.000000,83468216.000000
66960995.000000,83451995.000000
66977216.000000,83441156.000000
66996350.000000,83437350.000000
Z" /> 
<circle cx="67896350.000000" cy="86927350.000000" r="950000.000000" /> 
</g>
<g style="fill:#000000; fill-opacity:1.0; 
stroke:#000000; stroke-width:21200.000000; stroke-opacity:1; 
stroke-linecap:round; stroke-linejoin:round;">
</g>
<g >
</g>
<g style="fill:#000000; fill-opacity:1.0; 
stroke:#000000; stroke-width:21200.000000; stroke-opacity:1; 
stroke-linecap:round; stroke-linejoin:round;">
</g>
<g style="fill:#000000; fill-opacity:1.0; 
stroke:#000000; stroke-width:1.000000; stroke-opacity:1; 
stroke-linecap:round; stroke-linejoin:round;">
<path style="fill:#000000; fill-opacity:1.0; 
stroke:#000000; stroke-width:1.000000; stroke-opacity:1; 
stroke-linecap:round; stroke-linejoin:round;fill-rule:evenodd;"
d="M 78829350.000000,76452350.000000
78848484.000000,76456156.000000
78864705.000000,76466995.000000
78875544.000000,76483216.000000
78879350.000000,76502350.000000
78879350.000000,78302350.000000
78875544.000000,78321484.000000
78864705.000000,78337705.000000
78848484.000000,78348544.000000
78829350.000000,78352350.000000
77029350.000000,78352350.000000
77010216.000000,78348544.000000
76993995.000000,78337705.000000
76983156.000000,78321484.000000
76979350.000000,78302350.000000
76979350.000000,76502350.000000
76983156.000000,76483216.000000
76993995.000000,76466995.000000
77010216.000000,76456156.000000
77029350.000000,76452350.000000
Z" /> 
<circle cx="77929350.000000" cy="79942350.000000" r="950000.000000" /> 
</g>
<g style="fill:#000000; fill-opacity:1.0; 
stroke:#000000; stroke-width:21200.000000; stroke-opacity:1; 
stroke-linecap:round; stroke-linejoin:round;">
</g>
<g >
</g>
<g >
</g>
<g >
</g>
<g >
</g>
<g >
</g>
<g >
</g>
<g >
</g>
<g >
</g>
<g >
</g>
<g style="fill:#000000; fill-opacity:1.0; 
stroke:#000000; stroke-width:21200.000000; stroke-opacity:1; 
stroke-linecap:round; stroke-linejoin:round;">
</g>
<g style="fill:#000000; fill-opacity:1.0; 
stroke:#000000; stroke-width:2600000.000000; stroke-opacity:1; 
stroke-linecap:round; stroke-linejoin:round;">
</g>
<g style="fill:#000000; fill-opacity:0.0; 
stroke:#000000; stroke-width:2600000.000000; stroke-opacity:1; 
stroke-linecap:round; stroke-linejoin:round;">
<path d="M58497350 58935350
L58497350 57435350
" />
<path d="M79579350 58935350
L79579350 57435350
" />
</g>
<g >
</g>
<g style="fill:#000000; fill-opacity:0.0; 
stroke:#000000; stroke-width:2600000.000000; stroke-opacity:1; 
stroke-linecap:round; stroke-linejoin:round;">
</g>
<g style="fill:#000000; fill-opacity:1.0; 
stroke:#000000; stroke-width:1.000000; stroke-opacity:1; 
stroke-linecap:round; stroke-linejoin:round;">
<circle cx="87071205.000000" cy="70751426.000000" r="1050000.000000" /> 
</g>
<g style="fill:#000000; fill-opacity:1.0; 
stroke:#000000; stroke-width:21200.000000; stroke-opacity:1; 
stroke-linecap:round; stroke-linejoin:round;">
</g>
<g style="fill:#000000; fill-opacity:1.0; 
stroke:#000000; stroke-width:1.000000; stroke-opacity:1; 
stroke-linecap:round; stroke-linejoin:round;">
<circle cx="85803350.000000" cy="73470350.000000" r="1050000.000000" /> 
</g>
<g style="fill:#000000; fill-opacity:1.0; 
stroke:#000000; stroke-width:21200.000000; stroke-opacity:1; 
stroke-linecap:round; stroke-linejoin:round;">
</g>
<g style="fill:#000000; fill-opacity:1.0; 
stroke:#000000; stroke-width:1.000000; stroke-opacity:1; 
stroke-linecap:round; stroke-linejoin:round;">
<circle cx="84535495.000000" cy="76189273.000000" r="1050000.000000" /> 
</g>
<g style="fill:#000000; fill-opacity:1.0; 
stroke:#000000; stroke-width:21200.000000; stroke-opacity:1; 
stroke-linecap:round; stroke-linejoin:round;">
</g>
<g >
</g>
<g >
</g>
<g >
</g>
<g >
</g>
<g >
</g>
<g >
</g>
<g >
</g>
<g >
</g>
</g>
<g style="fill:#000000; fill-opacity:1.0; 
stroke:#000000; stroke-width:21200.000000; stroke-opacity:1; 
stroke-linecap:round; stroke-linejoin:round;">
</g>
<g style="fill:#F784D3; fill-opacity:1.0; 
stroke:#F784D3; stroke-width:21200.000000; stroke-opacity:1; 
stroke-linecap:round; stroke-linejoin:round;">
</g>
<g style="fill:#F784D3; fill-opacity:1.0; 
stroke:#F784D3; stroke-width:150000.000000; stroke-opacity:1; 
stroke-linecap:round; stroke-linejoin:round;">
</g>
<g style="fill:#F784D3; fill-opacity:0.0; 
stroke:#F784D3; stroke-width:150000.000000; stroke-opacity:1; 
stroke-linecap:round; stroke-linejoin:round;">
<text x="58415350.000000" y="1882350.000000"
textLength="150000.000000" font-size="1693333.000000" lengthAdjust="spacingAndGlyphs"
text-anchor="middle" opacity="0"></text>
<g class="stroked-text"><desc></desc>
</g><text x="58415350.000000" y="1882350.000000"
textLength="150000.000000" font-size="1693333.000000" lengthAdjust="spacingAndGlyphs"
text-anchor="middle" opacity="0"></text>
<g class="stroked-text"><desc></desc>
</g><text x="58415350.000000" y="1882350.000000"
textLength="150000.000000" font-size="1693333.000000" lengthAdjust="spacingAndGlyphs"
text-anchor="middle" opacity="0"></text>
<g class="stroked-text"><desc></desc>
</g><text x="58415350.000000" y="1882350.000000"
textLength="150000.000000" font-size="1693333.000000" lengthAdjust="spacingAndGlyphs"
text-anchor="middle" opacity="0"></text>
<g class="stroked-text"><desc></desc>
</g><text x="58415350.000000" y="1882350.000000"
textLength="150000.000000" font-size="1693333.000000" lengthAdjust="spacingAndGlyphs"
text-anchor="middle" opacity="0"></text>
<g class="stroked-text"><desc></desc>
</g><text x="58415350.000000" y="1882350.000000"
textLength="150000.000000" font-size="1693333.000000" lengthAdjust="spacingAndGlyphs"
text-anchor="middle" opacity="0"></text>
<g class="stroked-text"><desc></desc>
</g><text x="58415350.000000" y="1882350.000000"
textLength="150000.000000" font-size="1693333.000000" lengthAdjust="spacingAndGlyphs"
text-anchor="middle" opacity="0"></text>
<g class="stroked-text"><desc></desc>
</g><text x="58415350.000000" y="1882350.000000"
textLength="150000.000000" font-size="1693333.000000" lengthAdjust="spacingAndGlyphs"
text-anchor="middle" opacity="0"></text>
<g class="stroked-text"><desc></desc>
</g><text x="58415350.000000" y="1882350.000000"
textLength="150000.000000" font-size="1693333.000000" lengthAdjust="spacingAndGlyphs"
text-anchor="middle" opacity="0"></text>
<g class="stroked-text"><desc></desc>
</g><text x="58415350.000000" y="1882350.000000"
textLength="150000.000000" font-size="1693333.000000" lengthAdjust="spacingAndGlyphs"
text-anchor="middle" opacity="0"></text>
<g class="stroked-text"><desc></desc>
</g><text x="58415350.000000" y="1882350.000000"
textLength="150000.000000" font-size="1693333.000000" lengthAdjust="spacingAndGlyphs"
text-anchor="middle" opacity="0"></text>
<g class="stroked-text"><desc></desc>
</g><text x="58415350.000000" y="1882350.000000"
textLength="150000.000000" font-size="1693333.000000" lengthAdjust="spacingAndGlyphs"
text-anchor="middle" opacity="0"></text>
<g class="stroked-text"><desc></desc>
</g><text x="39702350.000000" y="90742350.000000"
textLength="150000.000000" font-size="1693333.000000" lengthAdjust="spacingAndGlyphs"
text-anchor="middle" opacity="0"></text>
<g class="stroked-text"><desc></desc>
</g><text x="39702350.000000" y="90742350.000000"
textLength="150000.000000" font-size="1693333.000000" lengthAdjust="spacingAndGlyphs"
text-anchor="middle" opacity="0"></text>
<g class="stroked-text"><desc></desc>
</g><text x="39702350.000000" y="90742350.000000"
textLength="150000.000000" font-size="1693333.000000" lengthAdjust="spacingAndGlyphs"
text-anchor="middle" opacity="0"></text>
<g class="stroked-text"><desc></desc>
</g><text x="39702350.000000" y="90742350.000000"
textLength="150000.000000" font-size="1693333.000000" lengthAdjust="spacingAndGlyphs"
text-anchor="middle" opacity="0"></text>
<g class="stroked-text"><desc></desc>
</g><text x="39702350.000000" y="90742350.000000"
textLength="150000.000000" font-size="1693333.000000" lengthAdjust="spacingAndGlyphs"
text-anchor="middle" opacity="0"></text>
<g class="stroked-text"><desc></desc>
</g><text x="39702350.000000" y="90742350.000000"
textLength="150000.000000" font-size="1693333.000000" lengthAdjust="spacingAndGlyphs"
text-anchor="middle" opacity="0"></text>
<g class="stroked-text"><desc></desc>
</g><text x="63578350.000000" y="90488350.000000"
textLength="150000.000000" font-size="1693333.000000" lengthAdjust="spacingAndGlyphs"
text-anchor="middle" opacity="0"></text>
<g class="stroked-text"><desc></desc>
</g><text x="63578350.000000" y="90488350.000000"
textLength="150000.000000" font-size="1693333.000000" lengthAdjust="spacingAndGlyphs"
text-anchor="middle" opacity="0"></text>
<g class="stroked-text"><desc></desc>
</g><text x="63578350.000000" y="90488350.000000"
textLength="150000.000000" font-size="1693333.000000" lengthAdjust="spacingAndGlyphs"
text-anchor="middle" opacity="0"></text>
<g class="stroked-text"><desc></desc>
</g><text x="63578350.000000" y="90488350.000000"
textLength="150000.000000" font-size="1693333.000000" lengthAdjust="spacingAndGlyphs"
text-anchor="middle" opacity="0"></text>
<g class="stroked-text"><desc></desc>
</g><text x="63578350.000000" y="90488350.000000"
textLength="150000.000000" font-size="1693333.000000" lengthAdjust="spacingAndGlyphs"
text-anchor="middle" opacity="0"></text>
<g class="stroked-text"><desc></desc>
</g><text x="63578350.000000" y="90488350.000000"
textLength="150000.000000" font-size="1693333.000000" lengthAdjust="spacingAndGlyphs"
text-anchor="middle" opacity="0"></text>
<g class="stroked-text"><desc></desc>
</g><text x="37763850.000000" y="36182350.000000"
textLength="150000.000000" font-size="1693333.000000" lengthAdjust="spacingAndGlyphs"
text-anchor="middle" opacity="0"></text>
<g class="stroked-text"><desc></desc>
</g><text x="37763850.000000" y="36182350.000000"
textLength="150000.000000" font-size="1693333.000000" lengthAdjust="spacingAndGlyphs"
text-anchor="middle" opacity="0"></text>
<g class="stroked-text"><desc></desc>
</g><text x="63578350.000000" y="90488350.000000"
textLength="150000.000000" font-size="1693333.000000" lengthAdjust="spacingAndGlyphs"
text-anchor="middle" opacity="0"></text>
<g class="stroked-text"><desc></desc>
</g><text x="63578350.000000" y="90488350.000000"
textLength="150000.000000" font-size="1693333.000000" lengthAdjust="spacingAndGlyphs"
text-anchor="middle" opacity="0"></text>
<g class="stroked-text"><desc></desc>
</g><text x="63578350.000000" y="90488350.000000"
textLength="150000.000000" font-size="1693333.000000" lengthAdjust="spacingAndGlyphs"
text-anchor="middle" opacity="0"></text>
<g class="stroked-text"><desc></desc>
</g><text x="63578350.000000" y="90488350.000000"
textLength="150000.000000" font-size="1693333.000000" lengthAdjust="spacingAndGlyphs"
text-anchor="middle" opacity="0"></text>
<g class="stroked-text"><desc></desc>
</g><text x="39702350.000000" y="90742350.000000"
textLength="150000.000000" font-size="1693333.000000" lengthAdjust="spacingAndGlyphs"
text-anchor="middle" opacity="0"></text>
<g class="stroked-text"><desc></desc>
</g><text x="39702350.000000" y="90742350.000000"
textLength="150000.000000" font-size="1693333.000000" lengthAdjust="spacingAndGlyphs"
text-anchor="middle" opacity="0"></text>
<g class="stroked-text"><desc></desc>
</g></g>
<g style="fill:#F784D3; fill-opacity:1.0; 
stroke:#F784D3; stroke-width:1.000000; stroke-opacity:1; 
stroke-linecap:round; stroke-linejoin:round;">
<path style="fill:#F784D3; fill-opacity:1.0; 
stroke:#F784D3; stroke-width:1.000000; stroke-opacity:1; 
stroke-linecap:round; stroke-linejoin:round;fill-rule:evenodd;"
d="M 133941350.000000,87198350.000000
133445350.000000,86637350.000000
132136350.000000,84989350.000000
130959350.000000,83253350.000000
130489350.000000,82432350.000000
137192350.000000,82432350.000000
137287350.000000,83096350.000000
137385350.000000,83460350.000000
137510350.000000,83776350.000000
137682350.000000,84127350.000000
137846350.000000,84407350.000000
138352350.000000,85022350.000000
138956350.000000,85518350.000000
139642350.000000,85885350.000000
140391350.000000,86111350.000000
140747350.000000,86165350.000000
141110350.000000,86183350.000000
141482350.000000,86173350.000000
141551350.000000,86166350.000000
142325350.000000,86007350.000000
143037350.000000,85710350.000000
143672350.000000,85289350.000000
144214350.000000,84757350.000000
144646350.000000,84127350.000000
144953350.000000,83414350.000000
145014350.000000,83200350.000000
145128350.000000,82446350.000000
145117350.000000,82118350.000000
159993350.000000,82118350.000000
160040350.000000,82810350.000000
160185350.000000,83429350.000000
160386350.000000,83924350.000000
160801350.000000,84608350.000000
161333350.000000,85186350.000000
161794350.000000,85538350.000000
162489350.000000,85899350.000000
163238350.000000,86117350.000000
164014350.000000,86185350.000000
164358350.000000,86166350.000000
165124350.000000,86012350.000000
165832350.000000,85718350.000000
166465350.000000,85301350.000000
167006350.000000,84773350.000000
167440350.000000,84150350.000000
167750350.000000,83446350.000000
167865350.000000,83015350.000000
167941350.000000,82398350.000000
167918350.000000,81730350.000000
167883350.000000,81447350.000000
167680350.000000,80543350.000000
167332350.000000,79593350.000000
167273350.000000,79474350.000000
170108350.000000,79474350.000000
170232350.000000,79709350.000000
170299350.000000,79773350.000000
170542350.000000,79873350.000000
170806350.000000,79829350.000000
171010350.000000,79659350.000000
171092350.000000,79409350.000000
171091350.000000,79353350.000000
171004350.000000,79092350.000000
170810350.000000,78928350.000000
170615350.000000,78888350.000000
170395350.000000,78924350.000000
170278350.000000,78999350.000000
170123350.000000,79222350.000000
170108350.000000,79474350.000000
167273350.000000,79474350.000000
166843350.000000,78610350.000000
166218350.000000,77601350.000000
165785350.000000,76997350.000000
165461350.000000,76584350.000000
171379350.000000,76584350.000000
171395350.000000,76809350.000000
171492350.000000,76967350.000000
171646350.000000,77097350.000000
171660350.000000,77104350.000000
171909350.000000,77145350.000000
172091350.000000,77095350.000000
172291350.000000,76919350.000000
172368350.000000,76682350.000000
172315350.000000,76431350.000000
172203350.000000,76279350.000000
171973350.000000,76159350.000000
171701350.000000,76183350.000000
171690350.000000,76187350.000000
171479350.000000,76342350.000000
171379350.000000,76584350.000000
165461350.000000,76584350.000000
165229350.000000,76288350.000000
164647350.000000,75620350.000000
164341350.000000,75292350.000000
164155350.000000,75100350.000000
164046350.000000,75001350.000000
163987350.000000,74968350.000000
163977350.000000,74967350.000000
163920350.000000,74990350.000000
163817350.000000,75079350.000000
163643350.000000,75252350.000000
163065350.000000,75872350.000000
162512350.000000,76529350.000000
162292350.000000,76807350.000000
161593350.000000,77780350.000000
161014350.000000,78740350.000000
160559350.000000,79677350.000000
160234350.000000,80578350.000000
160045350.000000,81432350.000000
159993350.000000,82118350.000000
145117350.000000,82118350.000000
145099350.000000,81627350.000000
144928350.000000,80747350.000000
144616350.000000,79811350.000000
144586350.000000,79737350.000000
144187350.000000,78890350.000000
143669350.000000,77999350.000000
143052350.000000,77097350.000000
142361350.000000,76214350.000000
141615350.000000,75383350.000000
141477350.000000,75242350.000000
141299350.000000,75067350.000000
141198350.000000,74984350.000000
141153350.000000,74967350.000000
141098350.000000,74992350.000000
140995350.000000,75083350.000000
140815350.000000,75267350.000000
140800350.000000,75282350.000000
139875350.000000,76319350.000000
139079350.000000,77351350.000000
138415350.000000,78371350.000000
137888350.000000,79369350.000000
137503350.000000,80339350.000000
137263350.000000,81273350.000000
137193350.000000,81790350.000000
137192350.000000,82432350.000000
130489350.000000,82432350.000000
129918350.000000,81438350.000000
129018350.000000,79551350.000000
128262350.000000,77601350.000000
127806350.000000,76152350.000000
127422350.000000,74646350.000000
127286350.000000,73944350.000000
172644350.000000,73944350.000000
172717350.000000,74182350.000000
172781350.000000,74264350.000000
173015350.000000,74407350.000000
173287350.000000,74397350.000000
173513350.000000,74255350.000000
173627350.000000,74016350.000000
173635350.000000,73927350.000000
173583350.000000,73693350.000000
173490350.000000,73572350.000000
173260350.000000,73442350.000000
173092350.000000,73433350.000000
172849350.000000,73522350.000000
172693350.000000,73708350.000000
172644350.000000,73944350.000000
127286350.000000,73944350.000000
127129350.000000,73134350.000000
126917350.000000,71566350.000000
126801350.000000,70257350.000000
126786350.000000,69938350.000000
126775350.000000,69504350.000000
126767350.000000,68997350.000000
126764350.000000,68457350.000000
126765350.000000,67925350.000000
126771350.000000,67441350.000000
126781350.000000,67047350.000000
126791350.000000,66837350.000000
126894350.000000,65833350.000000
133242350.000000,65833350.000000
133245350.000000,66866350.000000
133393350.000000,67910350.000000
133606350.000000,68708350.000000
133834350.000000,69304350.000000
134131350.000000,69918350.000000
134284350.000000,70191350.000000
134839350.000000,70989350.000000
135502350.000000,71716350.000000
136245350.000000,72345350.000000
137038350.000000,72847350.000000
137152350.000000,72906350.000000
137919350.000000,73255350.000000
138545350.000000,73474350.000000
138749350.000000,73530350.000000
138945350.000000,73575350.000000
139152350.000000,73611350.000000
139390350.000000,73639350.000000
139679350.000000,73660350.000000
140038350.000000,73675350.000000
140485350.000000,73687350.000000
141042350.000000,73695350.000000
141727350.000000,73702350.000000
142235350.000000,73705350.000000
142626350.000000,73707350.000000
143153350.000000,73709350.000000
143806350.000000,73711350.000000
144573350.000000,73713350.000000
145443350.000000,73714350.000000
146405350.000000,73716350.000000
147448350.000000,73717350.000000
148561350.000000,73718350.000000
149732350.000000,73719350.000000
150951350.000000,73719350.000000
152207350.000000,73720350.000000
153488350.000000,73721350.000000
159889350.000000,73721350.000000
161091350.000000,73720350.000000
162240350.000000,73719350.000000
163326350.000000,73719350.000000
164338350.000000,73718350.000000
165264350.000000,73717350.000000
166094350.000000,73715350.000000
166817350.000000,73714350.000000
167420350.000000,73712350.000000
167894350.000000,73711350.000000
168227350.000000,73709350.000000
168375350.000000,73707350.000000
168862350.000000,73700350.000000
169218350.000000,73693350.000000
169474350.000000,73681350.000000
169660350.000000,73662350.000000
169805350.000000,73632350.000000
169939350.000000,73586350.000000
170093350.000000,73522350.000000
170171350.000000,73489350.000000
170722350.000000,73231350.000000
171315350.000000,72917350.000000
171874350.000000,72587350.000000
172127350.000000,72424350.000000
172742350.000000,71937350.000000
173339350.000000,71330350.000000
173887350.000000,70641350.000000
174352350.000000,69910350.000000
174507350.000000,69617350.000000
174809350.000000,68891350.000000
175018350.000000,68115350.000000
175144350.000000,67244350.000000
175154350.000000,67137350.000000
175167350.000000,66880350.000000
175173350.000000,66525350.000000
175173350.000000,66135350.000000
175167350.000000,65774350.000000
175154350.000000,65506350.000000
175039350.000000,64674350.000000
174820350.000000,63907350.000000
174480350.000000,63149350.000000
174301350.000000,62828350.000000
173947350.000000,62286350.000000
173524350.000000,61736350.000000
173069350.000000,61221350.000000
172619350.000000,60785350.000000
172367350.000000,60578350.000000
172204350.000000,60449350.000000
172105350.000000,60359350.000000
172099350.000000,60350350.000000
172069350.000000,60216350.000000
172101350.000000,59976350.000000
172123350.000000,59874350.000000
172208350.000000,59465350.000000
172261350.000000,59074350.000000
172287350.000000,58646350.000000
172291350.000000,58128350.000000
172289350.000000,57977350.000000
172277350.000000,57504350.000000
172254350.000000,57133350.000000
172216350.000000,56808350.000000
172185350.000000,56617350.000000
172132350.000000,56345350.000000
172068350.000000,56103350.000000
171976350.000000,55832350.000000
171844350.000000,55487350.000000
171627350.000000,54965350.000000
171415350.000000,54524350.000000
171236350.000000,54197350.000000
170945350.000000,53709350.000000
170682350.000000,53316350.000000
170407350.000000,52968350.000000
170082350.000000,52614350.000000
169917350.000000,52446350.000000
169116350.000000,51742350.000000
168257350.000000,51163350.000000
167465350.000000,50767350.000000
166809350.000000,50513350.000000
166231350.000000,50336350.000000
165682350.000000,50222350.000000
165392350.000000,50183350.000000
165120350.000000,50166350.000000
164750350.000000,50158350.000000
164342350.000000,50160350.000000
163960350.000000,50172350.000000
163663350.000000,50192350.000000
163645350.000000,50194350.000000
163117350.000000,50265350.000000
162687350.000000,50351350.000000
162292350.000000,50467350.000000
161961350.000000,50590350.000000
161669350.000000,50693350.000000
161491350.000000,50722350.000000
161402350.000000,50678350.000000
161396350.000000,50668350.000000
161363350.000000,50565350.000000
161346350.000000,50493350.000000
161300350.000000,50353350.000000
161199350.000000,50140350.000000
161113350.000000,49977350.000000
160921350.000000,49626350.000000
160765350.000000,49363350.000000
160611350.000000,49134350.000000
160496350.000000,48976350.000000
159744350.000000,48097350.000000
158889350.000000,47341350.000000
157934350.000000,46709350.000000
156974350.000000,46241350.000000
156078350.000000,45933350.000000
155585350.000000,45819350.000000
155363350.000000,45784350.000000
155065350.000000,45746350.000000
154755350.000000,45713350.000000
154499350.000000,45691350.000000
154395350.000000,45687350.000000
154161350.000000,45695350.000000
153841350.000000,45713350.000000
153504350.000000,45739350.000000
153220350.000000,45765350.000000
153115350.000000,45778350.000000
152105350.000000,46005350.000000
151123350.000000,46379350.000000
150188350.000000,46889350.000000
149323350.000000,47522350.000000
148546350.000000,48266350.000000
148160350.000000,48723350.000000
147856350.000000,49141350.000000
147576350.000000,49576350.000000
147345350.000000,49986350.000000
147188350.000000,50330350.000000
147157350.000000,50419350.000000
147078350.000000,50620350.000000
146973350.000000,50717350.000000
146808350.000000,50716350.000000
146550350.000000,50626350.000000
146436350.000000,50576350.000000
145898350.000000,50391350.000000
145238350.000000,50254350.000000
144490350.000000,50171350.000000
144445350.000000,50168350.000000
143898350.000000,50148350.000000
143369350.000000,50168350.000000
142776350.000000,50230350.000000
142725350.000000,50237350.000000
142191350.000000,50339350.000000
141631350.000000,50513350.000000
141004350.000000,50772350.000000
140725350.000000,50903350.000000
140119350.000000,51213350.000000
139618350.000000,51513350.000000
139177350.000000,51835350.000000
138748350.000000,52211350.000000
138628350.000000,52327350.000000
137986350.000000,53022350.000000
137405350.000000,53807350.000000
137249350.000000,54047350.000000
136860350.000000,54781350.000000
136539350.000000,55636350.000000
136294350.000000,56587350.000000
136171350.000000,57307350.000000
136146350.000000,57515350.000000
136132350.000000,57718350.000000
136127350.000000,57979350.000000
136127350.000000,58207350.000000
136129350.000000,58777350.000000
136233350.000000,59377350.000000
136289350.000000,59717350.000000
136327350.000000,59992350.000000
136341350.000000,60147350.000000
136327350.000000,60337350.000000
136247350.000000,60472350.000000
136082350.000000,60607350.000000
135446350.000000,61152350.000000
134835350.000000,61851350.000000
134282350.000000,62651350.000000
133892350.000000,63377350.000000
133573350.000000,64173350.000000
133385350.000000,64836350.000000
133242350.000000,65833350.000000
126894350.000000,65833350.000000
127004350.000000,64749350.000000
127352350.000000,62738350.000000
127839350.000000,60791350.000000
128468350.000000,58893350.000000
129244350.000000,57030350.000000
129658350.000000,56167350.000000
130574350.000000,54473350.000000
131584350.000000,52878350.000000
132710350.000000,51349350.000000
133954350.000000,49877350.000000
134398350.000000,49403350.000000
134926350.000000,48870350.000000
135498350.000000,48319350.000000
136072350.000000,47788350.000000
136575350.000000,47346350.000000
138165350.000000,46091350.000000
139865350.000000,44943350.000000
141209350.000000,44155350.000000
141810350.000000,43838350.000000
142495350.000000,43500350.000000
143198350.000000,43171350.000000
143851350.000000,42884350.000000
143925350.000000,42853350.000000
145869350.000000,42133350.000000
147864350.000000,41561350.000000
149899350.000000,41139350.000000
151961350.000000,40869350.000000
154038350.000000,40753350.000000
156119350.000000,40793350.000000
157615350.000000,40919350.000000
159564350.000000,41202350.000000
161441350.000000,41609350.000000
163283350.000000,42152350.000000
164954350.000000,42766350.000000
166838350.000000,43610350.000000
168661350.000000,44598350.000000
170410350.000000,45723350.000000
172075350.000000,46979350.000000
173625350.000000,48340350.000000
175108350.000000,49851350.000000
176465350.000000,51460350.000000
177693350.000000,53160350.000000
178787350.000000,54947350.000000
179746350.000000,56817350.000000
180564350.000000,58762350.000000
180764350.000000,59307350.000000
181377350.000000,61278350.000000
181842350.000000,63296350.000000
182156350.000000,65346350.000000
182318350.000000,67416350.000000
182329350.000000,69490350.000000
182185350.000000,71557350.000000
181887350.000000,73602350.000000
181845350.000000,73827350.000000
181376350.000000,75850350.000000
180763350.000000,77809350.000000
180002350.000000,79719350.000000
179432350.000000,80927350.000000
178560350.000000,82546350.000000
177613350.000000,84059350.000000
176560350.000000,85514350.000000
176279350.000000,85872350.000000
174938350.000000,87427350.000000
173482350.000000,88886350.000000
171925350.000000,90234350.000000
170284350.000000,91458350.000000
168615350.000000,92521350.000000
168093350.000000,92816350.000000
167502350.000000,93134350.000000
166893350.000000,93448350.000000
166319350.000000,93731350.000000
165835350.000000,93955350.000000
163863350.000000,94740350.000000
161869350.000000,95367350.000000
159846350.000000,95838350.000000
157786350.000000,96156350.000000
155679350.000000,96322350.000000
155565350.000000,96327350.000000
155216350.000000,96336350.000000
154778350.000000,96341350.000000
154319350.000000,96342350.000000
153904350.000000,96339350.000000
153665350.000000,96334350.000000
151541350.000000,96184350.000000
149457350.000000,95879350.000000
147413350.000000,95421350.000000
145413350.000000,94809350.000000
143460350.000000,94044350.000000
141815350.000000,93262350.000000
140245350.000000,92387350.000000
138733350.000000,91407350.000000
137242350.000000,90296350.000000
137095350.000000,90179350.000000
136025350.000000,89269350.000000
135829350.000000,89083350.000000
150065350.000000,89083350.000000
150075350.000000,89896350.000000
150076350.000000,89903350.000000
150239350.000000,90682350.000000
150547350.000000,91400350.000000
150989350.000000,92042350.000000
151557350.000000,92594350.000000
151855350.000000,92812350.000000
152492350.000000,93149350.000000
153197350.000000,93372350.000000
153656350.000000,93446350.000000
153967350.000000,93458350.000000
154330350.000000,93446350.000000
154625350.000000,93417350.000000
155381350.000000,93225350.000000
156070350.000000,92897350.000000
156677350.000000,92449350.000000
157188350.000000,91896350.000000
157589350.000000,91252350.000000
157865350.000000,90533350.000000
157997350.000000,89822350.000000
158005350.000000,89403350.000000
157967350.000000,88905350.000000
157889350.000000,88397350.000000
157863350.000000,88277350.000000
157584350.000000,87340350.000000
157158350.000000,86363350.000000
156590350.000000,85354350.000000
155885350.000000,84322350.000000
155048350.000000,83277350.000000
154893350.000000,83098350.000000
154678350.000000,82860350.000000
154456350.000000,82625350.000000
154256350.000000,82421350.000000
154105350.000000,82279350.000000
154035350.000000,82227350.000000
153960350.000000,82282350.000000
153805350.000000,82430350.000000
153596350.000000,82642350.000000
153360350.000000,82893350.000000
153123350.000000,83154350.000000
152955350.000000,83345350.000000
152137350.000000,84370350.000000
151449350.000000,85376350.000000
150895350.000000,86358350.000000
150478350.000000,87307350.000000
150200350.000000,88218350.000000
150065350.000000,89083350.000000
135829350.000000,89083350.000000
134956350.000000,88258350.000000
Z" /> 
</g>
<g style="fill:#F784D3; fill-opacity:1.0; 
stroke:#F784D3; stroke-width:120000.000000; stroke-opacity:1; 
stroke-linecap:round; stroke-linejoin:round;">
</g>
<g style="fill:#F784D3; fill-opacity:0.0; 
stroke:#F784D3; stroke-width:120000.000000; stroke-opacity:1; 
stroke-linecap:round; stroke-linejoin:round;">
<path d="M56614350 75985350
L53524350 75985350
" />
<path d="M53524519.976577 75985349.961185 A2990000.000000 2990000.000000 0.0 0 0 55069811.999994 81535349.964307" />
<path d="M55068888.000006 81535349.964307 A2990000.000000 2990000.000000 0.0 0 0 56614180.023423 75985349.961185" />
<circle cx="55069350.000000" cy="78545350.000000" r="2500000.000000" /> 
<path d="M69441350 83097350
L66351350 83097350
" />
<path d="M66351519.976577 83097349.961185 A2990000.000000 2990000.000000 0.0 0 0 67896811.999994 88647349.964307" />
<path d="M67895888.000006 88647349.964307 A2990000.000000 2990000.000000 0.0 0 0 69441180.023423 83097349.961185" />
<circle cx="67896350.000000" cy="85657350.000000" r="2500000.000000" /> 
<path d="M79474350 76112350
L76384350 76112350
" />
<path d="M76384519.976577 76112349.961185 A2990000.000000 2990000.000000 0.0 0 0 77929811.999994 81662349.964307" />
<path d="M77928888.000006 81662349.964307 A2990000.000000 2990000.000000 0.0 0 0 79474180.023423 76112349.961185" />
<circle cx="77929350.000000" cy="78672350.000000" r="2500000.000000" /> 
</g>
<g style="fill:#F784D3; fill-opacity:1.0; 
stroke:#F784D3; stroke-width:1.000000; stroke-opacity:1; 
stroke-linecap:round; stroke-linejoin:round;">
<path style="fill:#F784D3; fill-opacity:1.0; 
stroke:#F784D3; stroke-width:1.000000; stroke-opacity:1; 
stroke-linecap:round; stroke-linejoin:round;fill-rule:evenodd;"
d="M 47949850.000000,83947350.000000
46121850.000000,81699350.000000
44532850.000000,79254350.000000
44375850.000000,78947350.000000
51264850.000000,78947350.000000
51268850.000000,79441350.000000
51288850.000000,79741350.000000
51334850.000000,79971350.000000
51355850.000000,80046350.000000
51813850.000000,81090350.000000
52511850.000000,81941350.000000
53418850.000000,82566350.000000
53844850.000000,82750350.000000
54894850.000000,82973350.000000
55848850.000000,82928350.000000
56880850.000000,82607350.000000
57779850.000000,82011350.000000
57971850.000000,81835350.000000
58614850.000000,81013350.000000
59026850.000000,80053350.000000
59163850.000000,79101350.000000
59010850.000000,77802350.000000
58555850.000000,76428350.000000
57803850.000000,74990350.000000
56759850.000000,73500350.000000
56445850.000000,73111350.000000
56095850.000000,72705350.000000
55729850.000000,72304350.000000
55413850.000000,71979350.000000
55216850.000000,71801350.000000
55187850.000000,71787350.000000
55048850.000000,71897350.000000
54763850.000000,72185350.000000
54395850.000000,72586350.000000
54169850.000000,72844350.000000
52975850.000000,74379350.000000
52085850.000000,75865350.000000
51491850.000000,77316350.000000
51359850.000000,77787350.000000
51301850.000000,78068350.000000
51273850.000000,78374350.000000
51264850.000000,78840350.000000
51264850.000000,78947350.000000
44375850.000000,78947350.000000
43203850.000000,76649350.000000
42157850.000000,73922350.000000
42051850.000000,73587350.000000
41474850.000000,71422350.000000
41086850.000000,69233350.000000
40870850.000000,66906350.000000
40836850.000000,66177350.000000
40832850.000000,64110350.000000
40930850.000000,62887350.000000
47297850.000000,62887350.000000
47390850.000000,64440350.000000
47783850.000000,65899350.000000
48461850.000000,67235350.000000
49412850.000000,68419350.000000
49963850.000000,68926350.000000
50953850.000000,69604350.000000
52088850.000000,70138350.000000
52383850.000000,70241350.000000
52825850.000000,70371350.000000
53219850.000000,70446350.000000
53713850.000000,70488350.000000
54043850.000000,70503350.000000
54310850.000000,70508350.000000
54873850.000000,70512350.000000
55708850.000000,70516350.000000
56791850.000000,70520350.000000
58097850.000000,70523350.000000
59602850.000000,70526350.000000
61283850.000000,70528350.000000
63114850.000000,70530350.000000
65073850.000000,70531350.000000
69203850.000000,70531350.000000
71678850.000000,70530350.000000
73852850.000000,70530350.000000
75746850.000000,70529350.000000
77380850.000000,70527350.000000
78772850.000000,70526350.000000
79943850.000000,70524350.000000
80913850.000000,70521350.000000
81701850.000000,70518350.000000
82327850.000000,70514350.000000
82810850.000000,70508350.000000
83172850.000000,70502350.000000
83431850.000000,70495350.000000
83607850.000000,70486350.000000
83719850.000000,70476350.000000
83789850.000000,70465350.000000
83834850.000000,70452350.000000
83843850.000000,70449350.000000
84192850.000000,70297350.000000
84700850.000000,70047350.000000
85249850.000000,69760350.000000
85718850.000000,69496350.000000
85832850.000000,69427350.000000
86845850.000000,68630350.000000
87764850.000000,67583350.000000
87855850.000000,67458350.000000
88486850.000000,66409350.000000
88881850.000000,65330350.000000
89065850.000000,64347350.000000
89112850.000000,63694350.000000
89117850.000000,62926350.000000
89083850.000000,62184350.000000
89012850.000000,61610350.000000
89006850.000000,61579350.000000
88566850.000000,60283350.000000
87811850.000000,59015350.000000
87568850.000000,58695350.000000
87211850.000000,58287350.000000
86781850.000000,57846350.000000
86393850.000000,57489350.000000
86278850.000000,57398350.000000
86075850.000000,57219350.000000
86035850.000000,57160350.000000
86052850.000000,56967350.000000
86114850.000000,56627350.000000
86174850.000000,56287350.000000
86209850.000000,55908350.000000
86229850.000000,55360350.000000
86231850.000000,55257350.000000
86228850.000000,54326350.000000
86160850.000000,53593350.000000
86010850.000000,52940350.000000
85829850.000000,52420350.000000
85085850.000000,50884350.000000
84135850.000000,49592350.000000
82977850.000000,48543350.000000
81611850.000000,47737350.000000
80980850.000000,47472350.000000
79709850.000000,47126350.000000
78379850.000000,47036350.000000
77201850.000000,47146350.000000
76744850.000000,47231350.000000
76289850.000000,47360350.000000
75813850.000000,47525350.000000
75498850.000000,47599350.000000
75362850.000000,47489350.000000
75341850.000000,47417350.000000
75225850.000000,47120350.000000
75002850.000000,46684350.000000
74739850.000000,46238350.000000
74692850.000000,46167350.000000
73710850.000000,44968350.000000
72502850.000000,43966350.000000
71122850.000000,43202350.000000
70539850.000000,42974350.000000
69125850.000000,42649350.000000
67648850.000000,42620350.000000
66170850.000000,42886350.000000
65843850.000000,42986350.000000
64548850.000000,43572350.000000
63340850.000000,44418350.000000
62301850.000000,45462350.000000
62093850.000000,45726350.000000
61727850.000000,46258350.000000
61407850.000000,46802350.000000
61205850.000000,47232350.000000
61197850.000000,47256350.000000
61033850.000000,47574350.000000
60915850.000000,47627350.000000
60722850.000000,47571350.000000
60551850.000000,47503350.000000
59519850.000000,47191350.000000
58337850.000000,47046350.000000
57131850.000000,47075350.000000
56043850.000000,47278350.000000
55078850.000000,47640350.000000
54029850.000000,48169350.000000
53848850.000000,48273350.000000
53010850.000000,48894350.000000
52184850.000000,49728350.000000
51457850.000000,50679350.000000
50912850.000000,51649350.000000
50902850.000000,51671350.000000
50464850.000000,52932350.000000
50211850.000000,54263350.000000
50163850.000000,55067350.000000
50192850.000000,55616350.000000
50286850.000000,56295350.000000
50366850.000000,56836350.000000
50374850.000000,57150350.000000
50302850.000000,57328350.000000
50170850.000000,57437350.000000
49462850.000000,58041350.000000
48770850.000000,58869350.000000
48159850.000000,59831350.000000
47693850.000000,60836350.000000
47621850.000000,61041350.000000
47403850.000000,61854350.000000
47306850.000000,62695350.000000
47297850.000000,62887350.000000
40930850.000000,62887350.000000
40990850.000000,62122350.000000
41107850.000000,61267350.000000
41705850.000000,58352350.000000
42598850.000000,55557350.000000
43790850.000000,52872350.000000
45285850.000000,50285350.000000
45482850.000000,49986350.000000
47204850.000000,47684350.000000
49177850.000000,45554350.000000
51366850.000000,43631350.000000
53735850.000000,41949350.000000
54310850.000000,41595350.000000
56937850.000000,40204350.000000
59675850.000000,39114350.000000
62528850.000000,38321350.000000
65498850.000000,37826350.000000
66123850.000000,37760350.000000
66727850.000000,37723350.000000
67538850.000000,37699350.000000
68451850.000000,37687350.000000
69362850.000000,37690350.000000
70165850.000000,37707350.000000
70756850.000000,37738350.000000
70763850.000000,37739350.000000
73757850.000000,38153350.000000
76617850.000000,38855350.000000
79358850.000000,39849350.000000
81995850.000000,41141350.000000
82706850.000000,41550350.000000
85117850.000000,43164350.000000
87356850.000000,45033350.000000
89393850.000000,47125350.000000
91199850.000000,49408350.000000
92743850.000000,51853350.000000
92778850.000000,51917350.000000
94057850.000000,54523350.000000
95038850.000000,57200350.000000
95731850.000000,59978350.000000
96143850.000000,62886350.000000
96246850.000000,64387350.000000
96219850.000000,67235350.000000
95883850.000000,70083350.000000
95247850.000000,72894350.000000
94322850.000000,75631350.000000
93115850.000000,78256350.000000
92543850.000000,79289350.000000
90914850.000000,81769350.000000
89037850.000000,84055350.000000
86934850.000000,86130350.000000
84625850.000000,87971350.000000
82131850.000000,89559350.000000
81863850.000000,89708350.000000
79195850.000000,90992350.000000
76420850.000000,91977350.000000
73554850.000000,92660350.000000
70615850.000000,93036350.000000
67663850.000000,93101350.000000
64732850.000000,92858350.000000
61854850.000000,92305350.000000
59054850.000000,91451350.000000
56362850.000000,90305350.000000
53803850.000000,88876350.000000
53201850.000000,88484350.000000
51136850.000000,86971350.000000
49966850.000000,85933350.000000
64088850.000000,85933350.000000
64094850.000000,86656350.000000
64140850.000000,87034350.000000
64500850.000000,88077350.000000
65151850.000000,88986350.000000
65152850.000000,88988350.000000
65954850.000000,89659350.000000
66786850.000000,90042350.000000
67197850.000000,90158350.000000
67559850.000000,90209350.000000
68028850.000000,90223350.000000
68475850.000000,90215350.000000
68801850.000000,90171350.000000
68987850.000000,90127350.000000
70005850.000000,89715350.000000
70849850.000000,89064350.000000
71486850.000000,88222350.000000
71879850.000000,87237350.000000
71994850.000000,86157350.000000
71990850.000000,86061350.000000
71760850.000000,84717350.000000
71221850.000000,83308350.000000
70377850.000000,81837350.000000
69230850.000000,80312350.000000
68561850.000000,79548350.000000
68309850.000000,79289350.000000
73993850.000000,79289350.000000
74039850.000000,79727350.000000
74412850.000000,80809350.000000
75045850.000000,81718350.000000
75581850.000000,82198350.000000
76567850.000000,82739350.000000
77239850.000000,82928350.000000
77802850.000000,82973350.000000
78451850.000000,82945350.000000
78890850.000000,82873350.000000
79927850.000000,82449350.000000
80696850.000000,81869350.000000
81378850.000000,81008350.000000
81792850.000000,80003350.000000
81913850.000000,78916350.000000
81906850.000000,78769350.000000
81668850.000000,77443350.000000
81130850.000000,76045350.000000
80303850.000000,74594350.000000
79195850.000000,73107350.000000
79192850.000000,73103350.000000
78816850.000000,72667350.000000
78442850.000000,72258350.000000
78135850.000000,71944350.000000
77958850.000000,71792350.000000
77944850.000000,71787350.000000
77800850.000000,71899350.000000
77509850.000000,72191350.000000
77132850.000000,72603350.000000
76919850.000000,72847350.000000
75752850.000000,74351350.000000
74868850.000000,75817350.000000
74278850.000000,77227350.000000
74074850.000000,78007350.000000
74000850.000000,78627350.000000
73993850.000000,79289350.000000
68309850.000000,79289350.000000
68272850.000000,79251350.000000
68080850.000000,79086350.000000
68056850.000000,79075350.000000
67883850.000000,79181350.000000
67566850.000000,79488350.000000
67154850.000000,79940350.000000
66696850.000000,80481350.000000
66240850.000000,81057350.000000
65834850.000000,81610350.000000
65777850.000000,81693350.000000
64926850.000000,83123350.000000
64359850.000000,84492350.000000
64164850.000000,85248350.000000
64088850.000000,85933350.000000
49966850.000000,85933350.000000
49258850.000000,85305350.000000
Z" /> 
<g >
</g>
<g >
</g>
<g >
</g>
<g >
</g>
<g >
</g>
<g >
</g>
<g >
</g>
<g >
</g>
<g >
</g>
<g >
</g>
<g >
</g>
<g >
</g>
<g >
</g>
<g >
</g>
<g >
</g>
<g >
</g>
<g >
</g>
<g >
</g>
<g >
</g>
<g >
</g>
<g >
</g>
<g >
</g>
<g >
</g>
<g >
</g>
<g >
</g>
<g >
</g>
<g >
</g>
</g>
<g style="fill:#FFFFFF; fill-opacity:1.0; 
stroke:#FFFFFF; stroke-width:1.000000; stroke-opacity:1; 
stroke-linecap:round; stroke-linejoin:round;">
<circle cx="68658350.000000" cy="40958350.000000" r="546100.000000" /> 
</g>
<g style="fill:#FFFFFF; fill-opacity:1.0; 
stroke:#FFFFFF; stroke-width:21200.000000; stroke-opacity:1; 
stroke-linecap:round; stroke-linejoin:round;">
</g>
<g style="fill:#FFFFFF; fill-opacity:1.0; 
stroke:#FFFFFF; stroke-width:1.000000; stroke-opacity:1; 
stroke-linecap:round; stroke-linejoin:round;">
<circle cx="55069350.000000" cy="77275350.000000" r="450000.000000" /> 
</g>
<g style="fill:#FFFFFF; fill-opacity:1.0; 
stroke:#FFFFFF; stroke-width:21200.000000; stroke-opacity:1; 
stroke-linecap:round; stroke-linejoin:round;">
</g>
<g style="fill:#FFFFFF; fill-opacity:1.0; 
stroke:#FFFFFF; stroke-width:1.000000; stroke-opacity:1; 
stroke-linecap:round; stroke-linejoin:round;">
<circle cx="55069350.000000" cy="79815350.000000" r="450000.000000" /> 
</g>
<g style="fill:#FFFFFF; fill-opacity:1.0; 
stroke:#FFFFFF; stroke-width:21200.000000; stroke-opacity:1; 
stroke-linecap:round; stroke-linejoin:round;">
</g>
<g style="fill:#FFFFFF; fill-opacity:1.0; 
stroke:#FFFFFF; stroke-width:1.000000; stroke-opacity:1; 
stroke-linecap:round; stroke-linejoin:round;">
<circle cx="67896350.000000" cy="84387350.000000" r="450000.000000" /> 
</g>
<g style="fill:#FFFFFF; fill-opacity:1.0; 
stroke:#FFFFFF; stroke-width:21200.000000; stroke-opacity:1; 
stroke-linecap:round; stroke-linejoin:round;">
</g>
<g style="fill:#FFFFFF; fill-opacity:1.0; 
stroke:#FFFFFF; stroke-width:1.000000; stroke-opacity:1; 
stroke-linecap:round; stroke-linejoin:round;">
<circle cx="67896350.000000" cy="86927350.000000" r="450000.000000" /> 
</g>
<g style="fill:#FFFFFF; fill-opacity:1.0; 
stroke:#FFFFFF; stroke-width:21200.000000; stroke-opacity:1; 
stroke-linecap:round; stroke-linejoin:round;">
</g>
<g style="fill:#FFFFFF; fill-opacity:1.0; 
stroke:#FFFFFF; stroke-width:1.000000; stroke-opacity:1; 
stroke-linecap:round; stroke-linejoin:round;">
<circle cx="77929350.000000" cy="77402350.000000" r="450000.000000" /> 
</g>
<g style="fill:#FFFFFF; fill-opacity:1.0; 
stroke:#FFFFFF; stroke-width:21200.000000; stroke-opacity:1; 
stroke-linecap:round; stroke-linejoin:round;">
</g>
<g style="fill:#FFFFFF; fill-opacity:1.0; 
stroke:#FFFFFF; stroke-width:1.000000; stroke-opacity:1; 
stroke-linecap:round; stroke-linejoin:round;">
<circle cx="77929350.000000" cy="79942350.000000" r="450000.000000" /> 
</g>
<g style="fill:#FFFFFF; fill-opacity:1.0; 
stroke:#FFFFFF; stroke-width:21200.000000; stroke-opacity:1; 
stroke-linecap:round; stroke-linejoin:round;">
</g>
<g style="fill:#FFFFFF; fill-opacity:1.0; 
stroke:#FFFFFF; stroke-width:1.000000; stroke-opacity:1; 
stroke-linecap:round; stroke-linejoin:round;">
<circle cx="58497350.000000" cy="58185350.000000" r="825000.000000" /> 
</g>
<g style="fill:#FFFFFF; fill-opacity:1.0; 
stroke:#FFFFFF; stroke-width:21200.000000; stroke-opacity:1; 
stroke-linecap:round; stroke-linejoin:round;">
</g>
<g style="fill:#FFFFFF; fill-opacity:1.0; 
stroke:#FFFFFF; stroke-width:1.000000; stroke-opacity:1; 
stroke-linecap:round; stroke-linejoin:round;">
<circle cx="79579350.000000" cy="58185350.000000" r="825000.000000" /> 
</g>
<g style="fill:#FFFFFF; fill-opacity:1.0; 
stroke:#FFFFFF; stroke-width:21200.000000; stroke-opacity:1; 
stroke-linecap:round; stroke-linejoin:round;">
</g>
<g style="fill:#FFFFFF; fill-opacity:1.0; 
stroke:#FFFFFF; stroke-width:1.000000; stroke-opacity:1; 
stroke-linecap:round; stroke-linejoin:round;">
<circle cx="87071205.000000" cy="70751426.000000" r="500000.000000" /> 
</g>
<g style="fill:#FFFFFF; fill-opacity:1.0; 
stroke:#FFFFFF; stroke-width:21200.000000; stroke-opacity:1; 
stroke-linecap:round; stroke-linejoin:round;">
</g>
<g style="fill:#FFFFFF; fill-opacity:1.0; 
stroke:#FFFFFF; stroke-width:1.000000; stroke-opacity:1; 
stroke-linecap:round; stroke-linejoin:round;">
<circle cx="85803350.000000" cy="73470350.000000" r="500000.000000" /> 
</g>
<g style="fill:#FFFFFF; fill-opacity:1.0; 
stroke:#FFFFFF; stroke-width:21200.000000; stroke-opacity:1; 
stroke-linecap:round; stroke-linejoin:round;">
</g>
<g style="fill:#FFFFFF; fill-opacity:1.0; 
stroke:#FFFFFF; stroke-width:1.000000; stroke-opacity:1; 
stroke-linecap:round; stroke-linejoin:round;">
<circle cx="84535495.000000" cy="76189273.000000" r="500000.000000" /> 
</g>
<g style="fill:#FFFFFF; fill-opacity:1.0; 
stroke:#FFFFFF; stroke-width:21200.000000; stroke-opacity:1; 
stroke-linecap:round; stroke-linejoin:round;">
</g>
<g style="fill:#000000; fill-opacity:1.0; 
stroke:#000000; stroke-width:21200.000000; stroke-opacity:1; 
stroke-linecap:round; stroke-linejoin:round;">
</g> 
</svg>
