%TF.GenerationSoftware,KiCad,Pcbnew,(6.0.7)*%
%TF.CreationDate,2024-01-22T09:58:03-08:00*%
%TF.ProjectId,Blinky,426c696e-6b79-42e6-9b69-6361645f7063,rev?*%
%TF.SameCoordinates,Original*%
%TF.FileFunction,Copper,L1,Top*%
%TF.FilePolarity,Positive*%
%FSLAX46Y46*%
G04 Gerber Fmt 4.6, Leading zero omitted, Abs format (unit mm)*
G04 Created by KiCad (PCBNEW (6.0.7)) date 2024-01-22 09:58:03*
%MOMM*%
%LPD*%
G01*
G04 APERTURE LIST*
%TA.AperFunction,ComponentPad*%
%ADD10R,1.800000X1.800000*%
%TD*%
%TA.AperFunction,ComponentPad*%
%ADD11C,1.800000*%
%TD*%
%TA.AperFunction,ComponentPad*%
%ADD12O,2.500000X4.000000*%
%TD*%
%TA.AperFunction,ComponentPad*%
%ADD13C,2.000000*%
%TD*%
G04 APERTURE END LIST*
D10*
%TO.P,D1,1*%
%TO.N,GND*%
X126956000Y-92792000D03*
D11*
%TO.P,D1,2*%
%TO.N,/LED+*%
X126956000Y-95332000D03*
%TD*%
D10*
%TO.P,D2,1*%
%TO.N,GND*%
X139783000Y-99904000D03*
D11*
%TO.P,D2,2*%
%TO.N,/LED+*%
X139783000Y-102444000D03*
%TD*%
D10*
%TO.P,D3,1*%
%TO.N,GND*%
X149816000Y-92919000D03*
D11*
%TO.P,D3,2*%
%TO.N,/LED+*%
X149816000Y-95459000D03*
%TD*%
D12*
%TO.P,BT1,1*%
%TO.N,VCC*%
X130384000Y-73702000D03*
X151466000Y-73702000D03*
%TD*%
D13*
%TO.P,SW1,1*%
%TO.N,Net-(SW1-Pad1)*%
X158957855Y-86268076D03*
%TO.P,SW1,2*%
%TO.N,VCC*%
X157690000Y-88987000D03*
%TO.P,SW1,3*%
%TO.N,/LED+*%
X156422145Y-91705923D03*
%TD*%
%TA.AperFunction,NonConductor*%
G36*
X140880619Y-55105779D02*
G01*
X141360626Y-55113320D01*
X141365461Y-55113488D01*
X142079298Y-55152148D01*
X142346146Y-55166599D01*
X142350956Y-55166953D01*
X143328820Y-55257667D01*
X143333622Y-55258206D01*
X144307312Y-55386395D01*
X144312050Y-55387111D01*
X144796103Y-55469851D01*
X145280134Y-55552589D01*
X145284886Y-55553496D01*
X146245840Y-55756001D01*
X146250553Y-55757089D01*
X146553538Y-55833193D01*
X147203078Y-55996346D01*
X147207698Y-55997602D01*
X148150309Y-56273240D01*
X148154905Y-56274680D01*
X148782334Y-56484615D01*
X149086253Y-56586305D01*
X149090806Y-56587926D01*
X149251726Y-56648733D01*
X150009494Y-56935070D01*
X150013985Y-56936867D01*
X150918641Y-57319007D01*
X150923053Y-57320970D01*
X151355706Y-57523640D01*
X151812407Y-57737575D01*
X151816740Y-57739707D01*
X152113872Y-57893068D01*
X152689444Y-58190143D01*
X152693699Y-58192444D01*
X153548455Y-58676042D01*
X153552619Y-58678505D01*
X154388153Y-59194541D01*
X154392220Y-59197161D01*
X155207374Y-59744922D01*
X155211337Y-59747697D01*
X156004849Y-60326336D01*
X156008702Y-60329261D01*
X156779401Y-60937921D01*
X156783140Y-60940992D01*
X157529929Y-61578811D01*
X157533546Y-61582023D01*
X158255268Y-62248009D01*
X158258760Y-62251357D01*
X158954420Y-62944593D01*
X158957780Y-62948073D01*
X159626292Y-63667477D01*
X159629517Y-63671084D01*
X159743362Y-63803441D01*
X160269937Y-64415642D01*
X160272981Y-64419320D01*
X160884369Y-65187939D01*
X160887307Y-65191782D01*
X161468708Y-65983265D01*
X161471493Y-65987212D01*
X162022108Y-66800467D01*
X162024726Y-66804501D01*
X162543671Y-67638222D01*
X162546149Y-67642377D01*
X163032752Y-68495481D01*
X163035058Y-68499712D01*
X163253084Y-68918536D01*
X163488526Y-69370816D01*
X163490674Y-69375142D01*
X163565755Y-69533977D01*
X163910368Y-70263012D01*
X163912345Y-70267410D01*
X163981334Y-70429151D01*
X164297663Y-71170776D01*
X164299475Y-71175261D01*
X164649817Y-72092715D01*
X164651455Y-72097267D01*
X164966328Y-73027519D01*
X164967790Y-73032128D01*
X165167004Y-73704661D01*
X165246708Y-73973739D01*
X165247989Y-73978388D01*
X165446765Y-74758217D01*
X165490565Y-74930050D01*
X165491670Y-74934760D01*
X165697533Y-75895025D01*
X165698456Y-75899774D01*
X165867304Y-76867226D01*
X165868041Y-76871988D01*
X165984070Y-77730152D01*
X165999628Y-77845223D01*
X166000183Y-77850016D01*
X166086994Y-78751582D01*
X166094312Y-78827587D01*
X166094681Y-78832387D01*
X166105001Y-79011361D01*
X166151214Y-79812845D01*
X166151400Y-79817679D01*
X166170262Y-80800015D01*
X166170276Y-80803973D01*
X166162651Y-81428048D01*
X166162540Y-81432005D01*
X166119683Y-82413576D01*
X166119379Y-82418404D01*
X166038910Y-83397173D01*
X166038421Y-83401984D01*
X165958900Y-84059120D01*
X165920440Y-84376937D01*
X165919770Y-84381709D01*
X165833879Y-84917941D01*
X165764440Y-85351459D01*
X165763583Y-85356220D01*
X165571155Y-86319227D01*
X165570117Y-86323952D01*
X165340849Y-87278924D01*
X165339629Y-87283606D01*
X165267873Y-87538888D01*
X165162484Y-87913823D01*
X165073884Y-88229027D01*
X165072486Y-88233658D01*
X164770636Y-89168201D01*
X164769061Y-89172775D01*
X164444319Y-90060177D01*
X164431557Y-90095050D01*
X164429822Y-90099523D01*
X164057161Y-91008164D01*
X164055240Y-91012603D01*
X163647981Y-91906252D01*
X163645891Y-91910615D01*
X163204628Y-92787968D01*
X163202372Y-92792248D01*
X162727741Y-93652042D01*
X162725330Y-93656218D01*
X162396998Y-94200500D01*
X162218054Y-94497138D01*
X162215476Y-94501232D01*
X162155302Y-94592838D01*
X161741261Y-95223156D01*
X161676298Y-95322052D01*
X161673570Y-95326037D01*
X161442112Y-95650529D01*
X161103251Y-96125594D01*
X161100366Y-96129477D01*
X161052726Y-96191116D01*
X160527352Y-96870872D01*
X160499829Y-96906482D01*
X160496798Y-96910253D01*
X159866830Y-97663685D01*
X159863656Y-97667336D01*
X159205239Y-98396021D01*
X159201927Y-98399547D01*
X158516052Y-99102390D01*
X158512608Y-99105787D01*
X157800218Y-99781820D01*
X157796645Y-99785082D01*
X157058863Y-100433239D01*
X157055177Y-100436354D01*
X156470775Y-100911285D01*
X156293020Y-101055743D01*
X156289213Y-101058717D01*
X155586927Y-101586009D01*
X155503862Y-101648376D01*
X155499938Y-101651206D01*
X154692533Y-102210278D01*
X154688504Y-102212955D01*
X153860229Y-102740625D01*
X153856100Y-102743146D01*
X153008157Y-103238644D01*
X153003954Y-103240992D01*
X152137641Y-103703560D01*
X152133331Y-103705756D01*
X151249895Y-104134730D01*
X151245537Y-104136744D01*
X150346243Y-104531506D01*
X150341805Y-104533353D01*
X149501871Y-104864212D01*
X149428047Y-104893292D01*
X149423513Y-104894978D01*
X148496631Y-105219568D01*
X148492035Y-105221079D01*
X147553368Y-105509850D01*
X147548718Y-105511183D01*
X147013786Y-105653518D01*
X146599657Y-105763709D01*
X146594996Y-105764854D01*
X145636923Y-105980765D01*
X145632203Y-105981734D01*
X144666546Y-106160709D01*
X144661791Y-106161496D01*
X144457749Y-106191262D01*
X143690013Y-106303262D01*
X143685213Y-106303869D01*
X143196940Y-106356050D01*
X142708646Y-106408234D01*
X142703869Y-106408651D01*
X142114936Y-106448801D01*
X141724080Y-106475447D01*
X141719248Y-106475684D01*
X141228410Y-106490252D01*
X140737558Y-106504820D01*
X140732747Y-106504870D01*
X140054767Y-106498953D01*
X139750714Y-106496299D01*
X139745879Y-106496164D01*
X139311599Y-106475684D01*
X138764902Y-106449902D01*
X138760091Y-106449584D01*
X137781562Y-106365694D01*
X137776768Y-106365190D01*
X136802220Y-106243804D01*
X136797435Y-106243114D01*
X135828276Y-106084408D01*
X135823518Y-106083535D01*
X134861140Y-105887737D01*
X134856418Y-105886681D01*
X133902289Y-105654089D01*
X133897612Y-105652853D01*
X133276820Y-105476016D01*
X132953117Y-105383807D01*
X132948498Y-105382395D01*
X132015015Y-105077286D01*
X132010446Y-105075695D01*
X131089369Y-104734978D01*
X131084865Y-104733213D01*
X130177537Y-104357386D01*
X130173104Y-104355449D01*
X129687289Y-104131999D01*
X129280868Y-103945066D01*
X129276541Y-103942974D01*
X128400710Y-103498640D01*
X128396447Y-103496373D01*
X128325863Y-103457086D01*
X127538346Y-103018760D01*
X127534165Y-103016327D01*
X127295848Y-102871428D01*
X126695008Y-102506111D01*
X126690951Y-102503537D01*
X126548830Y-102409469D01*
X138370095Y-102409469D01*
X138370392Y-102414622D01*
X138370392Y-102414625D01*
X138376067Y-102513041D01*
X138383427Y-102640697D01*
X138384564Y-102645743D01*
X138384565Y-102645749D01*
X138416741Y-102788523D01*
X138434346Y-102866642D01*
X138436288Y-102871424D01*
X138436289Y-102871428D01*
X138514048Y-103062924D01*
X138521484Y-103081237D01*
X138642501Y-103278719D01*
X138794147Y-103453784D01*
X138972349Y-103601730D01*
X139172322Y-103718584D01*
X139388694Y-103801209D01*
X139393760Y-103802240D01*
X139393761Y-103802240D01*
X139446846Y-103813040D01*
X139615656Y-103847385D01*
X139746324Y-103852176D01*
X139841949Y-103855683D01*
X139841953Y-103855683D01*
X139847113Y-103855872D01*
X139852233Y-103855216D01*
X139852235Y-103855216D01*
X139925270Y-103845860D01*
X140076847Y-103826442D01*
X140081795Y-103824957D01*
X140081802Y-103824956D01*
X140293747Y-103761369D01*
X140298690Y-103759886D01*
X140379236Y-103720427D01*
X140502049Y-103660262D01*
X140502052Y-103660260D01*
X140506684Y-103657991D01*
X140695243Y-103523494D01*
X140859303Y-103360005D01*
X140994458Y-103171917D01*
X141041641Y-103076450D01*
X141094784Y-102968922D01*
X141094785Y-102968920D01*
X141097078Y-102964280D01*
X141164408Y-102742671D01*
X141194640Y-102513041D01*
X141194840Y-102504858D01*
X141196245Y-102447365D01*
X141196245Y-102447361D01*
X141196327Y-102444000D01*
X141190032Y-102367434D01*
X141177773Y-102218318D01*
X141177772Y-102218312D01*
X141177349Y-102213167D01*
X141120925Y-101988533D01*
X141109157Y-101961468D01*
X141030630Y-101780868D01*
X141030628Y-101780865D01*
X141028570Y-101776131D01*
X140902764Y-101581665D01*
X140899282Y-101577838D01*
X140812848Y-101482848D01*
X140781796Y-101419002D01*
X140790192Y-101348504D01*
X140835369Y-101293736D01*
X140861812Y-101280067D01*
X140921297Y-101257767D01*
X140929705Y-101254615D01*
X141046261Y-101167261D01*
X141133615Y-101050705D01*
X141184745Y-100914316D01*
X141191500Y-100852134D01*
X141191500Y-98955866D01*
X141184745Y-98893684D01*
X141133615Y-98757295D01*
X141046261Y-98640739D01*
X140929705Y-98553385D01*
X140793316Y-98502255D01*
X140731134Y-98495500D01*
X138834866Y-98495500D01*
X138772684Y-98502255D01*
X138636295Y-98553385D01*
X138519739Y-98640739D01*
X138432385Y-98757295D01*
X138381255Y-98893684D01*
X138374500Y-98955866D01*
X138374500Y-100852134D01*
X138381255Y-100914316D01*
X138432385Y-101050705D01*
X138519739Y-101167261D01*
X138636295Y-101254615D01*
X138644704Y-101257767D01*
X138644705Y-101257768D01*
X138704164Y-101280058D01*
X138760929Y-101322699D01*
X138785629Y-101389261D01*
X138770422Y-101458609D01*
X138751029Y-101485091D01*
X138684639Y-101554564D01*
X138681725Y-101558836D01*
X138681724Y-101558837D01*
X138666152Y-101581665D01*
X138554119Y-101745899D01*
X138456602Y-101955981D01*
X138394707Y-102179169D01*
X138370095Y-102409469D01*
X126548830Y-102409469D01*
X125871966Y-101961462D01*
X125867992Y-101958720D01*
X125864181Y-101955981D01*
X125438124Y-101649828D01*
X125070502Y-101385664D01*
X125066628Y-101382767D01*
X124291666Y-100779477D01*
X124287906Y-100776432D01*
X123880351Y-100433239D01*
X123536691Y-100143850D01*
X123533068Y-100140678D01*
X122806685Y-99479720D01*
X122803170Y-99476396D01*
X122102688Y-98788033D01*
X122099304Y-98784577D01*
X121425798Y-98069872D01*
X121422548Y-98066288D01*
X121348453Y-97981351D01*
X120776941Y-97326214D01*
X120773865Y-97322548D01*
X120438142Y-96906482D01*
X120157143Y-96558235D01*
X120154178Y-96554413D01*
X119567254Y-95766995D01*
X119564438Y-95763061D01*
X119557210Y-95752544D01*
X119244446Y-95297469D01*
X125543095Y-95297469D01*
X125543392Y-95302622D01*
X125543392Y-95302625D01*
X125550417Y-95424469D01*
X125556427Y-95528697D01*
X125557564Y-95533743D01*
X125557565Y-95533749D01*
X125583883Y-95650529D01*
X125607346Y-95754642D01*
X125609288Y-95759424D01*
X125609289Y-95759428D01*
X125692540Y-95964450D01*
X125694484Y-95969237D01*
X125815501Y-96166719D01*
X125967147Y-96341784D01*
X126145349Y-96489730D01*
X126345322Y-96606584D01*
X126350147Y-96608426D01*
X126350148Y-96608427D01*
X126378726Y-96619340D01*
X126561694Y-96689209D01*
X126566760Y-96690240D01*
X126566761Y-96690240D01*
X126619846Y-96701040D01*
X126788656Y-96735385D01*
X126919324Y-96740176D01*
X127014949Y-96743683D01*
X127014953Y-96743683D01*
X127020113Y-96743872D01*
X127025233Y-96743216D01*
X127025235Y-96743216D01*
X127120773Y-96730977D01*
X127249847Y-96714442D01*
X127254795Y-96712957D01*
X127254802Y-96712956D01*
X127466747Y-96649369D01*
X127471690Y-96647886D01*
X127529960Y-96619340D01*
X127675049Y-96548262D01*
X127675052Y-96548260D01*
X127679684Y-96545991D01*
X127868243Y-96411494D01*
X128032303Y-96248005D01*
X128167458Y-96059917D01*
X128214641Y-95964450D01*
X128267784Y-95856922D01*
X128267785Y-95856920D01*
X128270078Y-95852280D01*
X128337408Y-95630671D01*
X128364556Y-95424469D01*
X148403095Y-95424469D01*
X148403392Y-95429622D01*
X148403392Y-95429625D01*
X148409258Y-95531359D01*
X148416427Y-95655697D01*
X148417564Y-95660743D01*
X148417565Y-95660749D01*
X148441074Y-95765063D01*
X148467346Y-95881642D01*
X148469288Y-95886424D01*
X148469289Y-95886428D01*
X148537852Y-96055278D01*
X148554484Y-96096237D01*
X148675501Y-96293719D01*
X148827147Y-96468784D01*
X149005349Y-96616730D01*
X149205322Y-96733584D01*
X149210147Y-96735426D01*
X149210148Y-96735427D01*
X149231768Y-96743683D01*
X149421694Y-96816209D01*
X149426760Y-96817240D01*
X149426761Y-96817240D01*
X149479846Y-96828040D01*
X149648656Y-96862385D01*
X149779324Y-96867176D01*
X149874949Y-96870683D01*
X149874953Y-96870683D01*
X149880113Y-96870872D01*
X149885233Y-96870216D01*
X149885235Y-96870216D01*
X149958270Y-96860860D01*
X150109847Y-96841442D01*
X150114795Y-96839957D01*
X150114802Y-96839956D01*
X150326747Y-96776369D01*
X150331690Y-96774886D01*
X150394998Y-96743872D01*
X150535049Y-96675262D01*
X150535052Y-96675260D01*
X150539684Y-96672991D01*
X150728243Y-96538494D01*
X150892303Y-96375005D01*
X150903080Y-96360008D01*
X150980940Y-96251653D01*
X151027458Y-96186917D01*
X151035512Y-96170622D01*
X151127784Y-95983922D01*
X151127785Y-95983920D01*
X151130078Y-95979280D01*
X151197408Y-95757671D01*
X151227640Y-95528041D01*
X151229327Y-95459000D01*
X151215625Y-95292336D01*
X151210773Y-95233318D01*
X151210772Y-95233312D01*
X151210349Y-95228167D01*
X151153925Y-95003533D01*
X151151866Y-94998797D01*
X151063630Y-94795868D01*
X151063628Y-94795865D01*
X151061570Y-94791131D01*
X150935764Y-94596665D01*
X150845848Y-94497848D01*
X150814796Y-94434002D01*
X150823192Y-94363504D01*
X150868369Y-94308736D01*
X150894812Y-94295067D01*
X150954297Y-94272767D01*
X150962705Y-94269615D01*
X151079261Y-94182261D01*
X151166615Y-94065705D01*
X151217745Y-93929316D01*
X151224500Y-93867134D01*
X151224500Y-91970866D01*
X151217745Y-91908684D01*
X151166615Y-91772295D01*
X151116872Y-91705923D01*
X154908980Y-91705923D01*
X154927610Y-91942634D01*
X154928764Y-91947441D01*
X154928765Y-91947447D01*
X154935208Y-91974283D01*
X154983040Y-92173517D01*
X154984933Y-92178088D01*
X154984934Y-92178090D01*
X155056168Y-92350064D01*
X155073905Y-92392886D01*
X155076491Y-92397106D01*
X155195386Y-92591125D01*
X155195390Y-92591131D01*
X155197969Y-92595339D01*
X155352176Y-92775892D01*
X155532729Y-92930099D01*
X155536937Y-92932678D01*
X155536943Y-92932682D01*
X155730962Y-93051577D01*
X155735182Y-93054163D01*
X155739752Y-93056056D01*
X155739756Y-93056058D01*
X155949978Y-93143134D01*
X155954551Y-93145028D01*
X156034754Y-93164283D01*
X156180621Y-93199303D01*
X156180627Y-93199304D01*
X156185434Y-93200458D01*
X156422145Y-93219088D01*
X156658856Y-93200458D01*
X156663663Y-93199304D01*
X156663669Y-93199303D01*
X156809536Y-93164283D01*
X156889739Y-93145028D01*
X156894312Y-93143134D01*
X157104534Y-93056058D01*
X157104538Y-93056056D01*
X157109108Y-93054163D01*
X157113328Y-93051577D01*
X157307347Y-92932682D01*
X157307353Y-92932678D01*
X157311561Y-92930099D01*
X157492114Y-92775892D01*
X157646321Y-92595339D01*
X157648900Y-92591131D01*
X157648904Y-92591125D01*
X157767799Y-92397106D01*
X157770385Y-92392886D01*
X157788123Y-92350064D01*
X157859356Y-92178090D01*
X157859357Y-92178088D01*
X157861250Y-92173517D01*
X157909082Y-91974283D01*
X157915525Y-91947447D01*
X157915526Y-91947441D01*
X157916680Y-91942634D01*
X157935310Y-91705923D01*
X157916680Y-91469212D01*
X157911293Y-91446771D01*
X157862405Y-91243141D01*
X157861250Y-91238329D01*
X157770385Y-91018960D01*
X157763769Y-91008164D01*
X157648904Y-90820721D01*
X157648900Y-90820715D01*
X157646321Y-90816507D01*
X157643111Y-90812748D01*
X157643106Y-90812741D01*
X157551079Y-90704992D01*
X157522048Y-90640203D01*
X157532653Y-90570003D01*
X157579528Y-90516680D01*
X157647790Y-90497165D01*
X157656771Y-90497550D01*
X157690000Y-90500165D01*
X157926711Y-90481535D01*
X157931518Y-90480381D01*
X157931524Y-90480380D01*
X158077391Y-90445360D01*
X158157594Y-90426105D01*
X158162167Y-90424211D01*
X158372389Y-90337135D01*
X158372393Y-90337133D01*
X158376963Y-90335240D01*
X158381183Y-90332654D01*
X158575202Y-90213759D01*
X158575208Y-90213755D01*
X158579416Y-90211176D01*
X158759969Y-90056969D01*
X158914176Y-89876416D01*
X158916755Y-89872208D01*
X158916759Y-89872202D01*
X159035654Y-89678183D01*
X159038240Y-89673963D01*
X159108956Y-89503240D01*
X159127211Y-89459167D01*
X159127212Y-89459165D01*
X159129105Y-89454594D01*
X159184535Y-89223711D01*
X159203165Y-88987000D01*
X159184535Y-88750289D01*
X159183282Y-88745066D01*
X159130260Y-88524218D01*
X159129105Y-88519406D01*
X159038240Y-88300037D01*
X158997563Y-88233658D01*
X158916759Y-88101798D01*
X158916755Y-88101792D01*
X158914176Y-88097584D01*
X158818933Y-87986069D01*
X158789902Y-87921279D01*
X158800507Y-87851079D01*
X158847382Y-87797756D01*
X158915644Y-87778241D01*
X158924628Y-87778626D01*
X158957855Y-87781241D01*
X159194566Y-87762611D01*
X159199373Y-87761457D01*
X159199379Y-87761456D01*
X159345246Y-87726436D01*
X159425449Y-87707181D01*
X159430022Y-87705287D01*
X159640244Y-87618211D01*
X159640248Y-87618209D01*
X159644818Y-87616316D01*
X159753380Y-87549789D01*
X159843057Y-87494835D01*
X159843063Y-87494831D01*
X159847271Y-87492252D01*
X160027824Y-87338045D01*
X160182031Y-87157492D01*
X160184610Y-87153284D01*
X160184614Y-87153278D01*
X160303509Y-86959259D01*
X160306095Y-86955039D01*
X160350229Y-86848491D01*
X160395066Y-86740243D01*
X160395067Y-86740241D01*
X160396960Y-86735670D01*
X160416215Y-86655467D01*
X160451235Y-86509600D01*
X160451236Y-86509594D01*
X160452390Y-86504787D01*
X160471020Y-86268076D01*
X160452390Y-86031365D01*
X160396960Y-85800482D01*
X160306095Y-85581113D01*
X160277729Y-85534824D01*
X160184614Y-85382874D01*
X160184610Y-85382868D01*
X160182031Y-85378660D01*
X160027824Y-85198107D01*
X159847271Y-85043900D01*
X159843063Y-85041321D01*
X159843057Y-85041317D01*
X159649038Y-84922422D01*
X159644818Y-84919836D01*
X159640248Y-84917943D01*
X159640244Y-84917941D01*
X159430022Y-84830865D01*
X159430020Y-84830864D01*
X159425449Y-84828971D01*
X159345246Y-84809716D01*
X159199379Y-84774696D01*
X159199373Y-84774695D01*
X159194566Y-84773541D01*
X158957855Y-84754911D01*
X158721144Y-84773541D01*
X158716337Y-84774695D01*
X158716331Y-84774696D01*
X158570464Y-84809716D01*
X158490261Y-84828971D01*
X158485690Y-84830864D01*
X158485688Y-84830865D01*
X158275466Y-84917941D01*
X158275462Y-84917943D01*
X158270892Y-84919836D01*
X158266672Y-84922422D01*
X158072653Y-85041317D01*
X158072647Y-85041321D01*
X158068439Y-85043900D01*
X157887886Y-85198107D01*
X157733679Y-85378660D01*
X157731100Y-85382868D01*
X157731096Y-85382874D01*
X157637981Y-85534824D01*
X157609615Y-85581113D01*
X157518750Y-85800482D01*
X157463320Y-86031365D01*
X157444690Y-86268076D01*
X157463320Y-86504787D01*
X157464474Y-86509594D01*
X157464475Y-86509600D01*
X157499495Y-86655467D01*
X157518750Y-86735670D01*
X157520643Y-86740241D01*
X157520644Y-86740243D01*
X157565482Y-86848491D01*
X157609615Y-86955039D01*
X157612201Y-86959259D01*
X157731096Y-87153278D01*
X157731100Y-87153284D01*
X157733679Y-87157492D01*
X157828922Y-87269007D01*
X157857953Y-87333797D01*
X157847348Y-87403997D01*
X157800473Y-87457320D01*
X157732211Y-87476835D01*
X157723227Y-87476450D01*
X157690000Y-87473835D01*
X157453289Y-87492465D01*
X157448482Y-87493619D01*
X157448476Y-87493620D01*
X157302609Y-87528640D01*
X157222406Y-87547895D01*
X157217835Y-87549788D01*
X157217833Y-87549789D01*
X157007611Y-87636865D01*
X157007607Y-87636867D01*
X157003037Y-87638760D01*
X156998817Y-87641346D01*
X156804798Y-87760241D01*
X156804792Y-87760245D01*
X156800584Y-87762824D01*
X156620031Y-87917031D01*
X156465824Y-88097584D01*
X156463245Y-88101792D01*
X156463241Y-88101798D01*
X156382437Y-88233658D01*
X156341760Y-88300037D01*
X156250895Y-88519406D01*
X156249740Y-88524218D01*
X156196719Y-88745066D01*
X156195465Y-88750289D01*
X156176835Y-88987000D01*
X156195465Y-89223711D01*
X156250895Y-89454594D01*
X156252788Y-89459165D01*
X156252789Y-89459167D01*
X156271045Y-89503240D01*
X156341760Y-89673963D01*
X156344346Y-89678183D01*
X156463241Y-89872202D01*
X156463245Y-89872208D01*
X156465824Y-89876416D01*
X156469031Y-89880170D01*
X156469039Y-89880182D01*
X156561066Y-89987931D01*
X156590097Y-90052720D01*
X156579492Y-90122920D01*
X156532617Y-90176243D01*
X156464355Y-90195758D01*
X156455374Y-90195373D01*
X156422145Y-90192758D01*
X156185434Y-90211388D01*
X156180627Y-90212542D01*
X156180621Y-90212543D01*
X156034754Y-90247563D01*
X155954551Y-90266818D01*
X155949980Y-90268711D01*
X155949978Y-90268712D01*
X155739756Y-90355788D01*
X155739752Y-90355790D01*
X155735182Y-90357683D01*
X155730962Y-90360269D01*
X155536943Y-90479164D01*
X155536937Y-90479168D01*
X155532729Y-90481747D01*
X155352176Y-90635954D01*
X155197969Y-90816507D01*
X155195390Y-90820715D01*
X155195386Y-90820721D01*
X155080521Y-91008164D01*
X155073905Y-91018960D01*
X154983040Y-91238329D01*
X154981885Y-91243141D01*
X154932998Y-91446771D01*
X154927610Y-91469212D01*
X154908980Y-91705923D01*
X151116872Y-91705923D01*
X151079261Y-91655739D01*
X150962705Y-91568385D01*
X150826316Y-91517255D01*
X150764134Y-91510500D01*
X148867866Y-91510500D01*
X148805684Y-91517255D01*
X148669295Y-91568385D01*
X148552739Y-91655739D01*
X148465385Y-91772295D01*
X148414255Y-91908684D01*
X148407500Y-91970866D01*
X148407500Y-93867134D01*
X148414255Y-93929316D01*
X148465385Y-94065705D01*
X148552739Y-94182261D01*
X148669295Y-94269615D01*
X148677704Y-94272767D01*
X148677705Y-94272768D01*
X148737164Y-94295058D01*
X148793929Y-94337699D01*
X148818629Y-94404261D01*
X148803422Y-94473609D01*
X148784029Y-94500091D01*
X148717639Y-94569564D01*
X148714725Y-94573836D01*
X148714724Y-94573837D01*
X148699152Y-94596665D01*
X148587119Y-94760899D01*
X148489602Y-94970981D01*
X148427707Y-95194169D01*
X148403095Y-95424469D01*
X128364556Y-95424469D01*
X128367640Y-95401041D01*
X128369327Y-95332000D01*
X128357995Y-95194169D01*
X128350773Y-95106318D01*
X128350772Y-95106312D01*
X128350349Y-95101167D01*
X128312811Y-94951722D01*
X128295184Y-94881544D01*
X128295183Y-94881540D01*
X128293925Y-94876533D01*
X128291866Y-94871797D01*
X128203630Y-94668868D01*
X128203628Y-94668865D01*
X128201570Y-94664131D01*
X128075764Y-94469665D01*
X128047704Y-94438827D01*
X127985848Y-94370848D01*
X127954796Y-94307002D01*
X127963192Y-94236504D01*
X128008369Y-94181736D01*
X128034812Y-94168067D01*
X128094297Y-94145767D01*
X128102705Y-94142615D01*
X128219261Y-94055261D01*
X128306615Y-93938705D01*
X128357745Y-93802316D01*
X128364500Y-93740134D01*
X128364500Y-91843866D01*
X128357745Y-91781684D01*
X128306615Y-91645295D01*
X128219261Y-91528739D01*
X128102705Y-91441385D01*
X127966316Y-91390255D01*
X127904134Y-91383500D01*
X126007866Y-91383500D01*
X125945684Y-91390255D01*
X125809295Y-91441385D01*
X125692739Y-91528739D01*
X125605385Y-91645295D01*
X125554255Y-91781684D01*
X125547500Y-91843866D01*
X125547500Y-93740134D01*
X125554255Y-93802316D01*
X125605385Y-93938705D01*
X125692739Y-94055261D01*
X125809295Y-94142615D01*
X125817704Y-94145767D01*
X125817705Y-94145768D01*
X125877164Y-94168058D01*
X125933929Y-94210699D01*
X125958629Y-94277261D01*
X125943422Y-94346609D01*
X125924029Y-94373091D01*
X125857639Y-94442564D01*
X125854725Y-94446836D01*
X125854724Y-94446837D01*
X125836189Y-94474009D01*
X125727119Y-94633899D01*
X125629602Y-94843981D01*
X125567707Y-95067169D01*
X125543095Y-95297469D01*
X119244446Y-95297469D01*
X119008171Y-94953687D01*
X119005540Y-94949698D01*
X118480748Y-94119560D01*
X118478246Y-94115428D01*
X118439207Y-94048081D01*
X118258715Y-93736717D01*
X117985723Y-93265779D01*
X117983378Y-93261548D01*
X117523847Y-92393647D01*
X117521665Y-92389329D01*
X117289176Y-91906252D01*
X117095768Y-91504379D01*
X117093757Y-91499987D01*
X117045673Y-91389402D01*
X116702149Y-90599349D01*
X116700310Y-90594888D01*
X116662360Y-90497550D01*
X116343574Y-89679904D01*
X116341907Y-89675375D01*
X116020548Y-88747345D01*
X116019053Y-88742744D01*
X115733562Y-87803082D01*
X115732245Y-87798428D01*
X115651079Y-87489041D01*
X115483024Y-86848455D01*
X115481896Y-86843788D01*
X115407809Y-86509600D01*
X115269341Y-85885012D01*
X115268387Y-85880285D01*
X115253885Y-85800482D01*
X115143831Y-85194899D01*
X115092784Y-84914004D01*
X115092011Y-84909229D01*
X115016255Y-84376937D01*
X114953636Y-83936957D01*
X114953048Y-83932169D01*
X114898259Y-83401986D01*
X114852093Y-82955241D01*
X114851691Y-82950444D01*
X114817130Y-82415986D01*
X114788318Y-81970451D01*
X114788098Y-81965619D01*
X114774726Y-81454982D01*
X114762389Y-80983847D01*
X114762355Y-80979035D01*
X114764495Y-80803973D01*
X114774355Y-79997004D01*
X114774506Y-79992191D01*
X114783347Y-79817679D01*
X114824193Y-79011344D01*
X114824530Y-79006535D01*
X114830677Y-78937666D01*
X114911829Y-78028371D01*
X114912351Y-78023563D01*
X115037140Y-77049431D01*
X115037847Y-77044645D01*
X115093304Y-76713251D01*
X115199938Y-76076031D01*
X115200826Y-76071287D01*
X115216358Y-75996289D01*
X115378946Y-75211177D01*
X115399978Y-75109618D01*
X115401050Y-75104900D01*
X115546206Y-74518354D01*
X128625500Y-74518354D01*
X128639939Y-74712652D01*
X128640968Y-74717200D01*
X128640969Y-74717206D01*
X128677992Y-74880823D01*
X128697623Y-74967577D01*
X128699315Y-74971929D01*
X128699316Y-74971931D01*
X128751025Y-75104900D01*
X128792353Y-75211177D01*
X128922049Y-75438098D01*
X129083862Y-75643357D01*
X129274237Y-75822443D01*
X129488991Y-75971424D01*
X129493181Y-75973490D01*
X129493184Y-75973492D01*
X129719219Y-76084960D01*
X129719222Y-76084961D01*
X129723407Y-76087025D01*
X129727850Y-76088447D01*
X129727852Y-76088448D01*
X129967877Y-76165280D01*
X129972335Y-76166707D01*
X130230307Y-76208721D01*
X130344058Y-76210210D01*
X130486978Y-76212081D01*
X130486981Y-76212081D01*
X130491655Y-76212142D01*
X130750638Y-76176896D01*
X131001567Y-76103757D01*
X131037862Y-76087025D01*
X131072000Y-76071287D01*
X131238928Y-75994332D01*
X131383153Y-75899774D01*
X131453596Y-75853590D01*
X131453601Y-75853586D01*
X131457509Y-75851024D01*
X131652506Y-75676982D01*
X131819637Y-75476030D01*
X131955229Y-75252581D01*
X132056303Y-75011545D01*
X132120641Y-74758217D01*
X132142500Y-74541133D01*
X132142500Y-74518354D01*
X149707500Y-74518354D01*
X149721939Y-74712652D01*
X149722968Y-74717200D01*
X149722969Y-74717206D01*
X149759992Y-74880823D01*
X149779623Y-74967577D01*
X149781315Y-74971929D01*
X149781316Y-74971931D01*
X149833025Y-75104900D01*
X149874353Y-75211177D01*
X150004049Y-75438098D01*
X150165862Y-75643357D01*
X150356237Y-75822443D01*
X150570991Y-75971424D01*
X150575181Y-75973490D01*
X150575184Y-75973492D01*
X150801219Y-76084960D01*
X150801222Y-76084961D01*
X150805407Y-76087025D01*
X150809850Y-76088447D01*
X150809852Y-76088448D01*
X151049877Y-76165280D01*
X151054335Y-76166707D01*
X151312307Y-76208721D01*
X151426058Y-76210210D01*
X151568978Y-76212081D01*
X151568981Y-76212081D01*
X151573655Y-76212142D01*
X151832638Y-76176896D01*
X152083567Y-76103757D01*
X152119862Y-76087025D01*
X152154000Y-76071287D01*
X152320928Y-75994332D01*
X152465153Y-75899774D01*
X152535596Y-75853590D01*
X152535601Y-75853586D01*
X152539509Y-75851024D01*
X152734506Y-75676982D01*
X152901637Y-75476030D01*
X153037229Y-75252581D01*
X153138303Y-75011545D01*
X153202641Y-74758217D01*
X153224500Y-74541133D01*
X153224500Y-72885646D01*
X153210061Y-72691348D01*
X153198725Y-72641248D01*
X153153408Y-72440980D01*
X153152377Y-72436423D01*
X153057647Y-72192823D01*
X152927951Y-71965902D01*
X152766138Y-71760643D01*
X152575763Y-71581557D01*
X152361009Y-71432576D01*
X152356816Y-71430508D01*
X152130781Y-71319040D01*
X152130778Y-71319039D01*
X152126593Y-71316975D01*
X152080449Y-71302204D01*
X151882123Y-71238720D01*
X151877665Y-71237293D01*
X151619693Y-71195279D01*
X151505942Y-71193790D01*
X151363022Y-71191919D01*
X151363019Y-71191919D01*
X151358345Y-71191858D01*
X151099362Y-71227104D01*
X150848433Y-71300243D01*
X150844180Y-71302203D01*
X150844179Y-71302204D01*
X150807659Y-71319040D01*
X150611072Y-71409668D01*
X150572067Y-71435241D01*
X150396404Y-71550410D01*
X150396399Y-71550414D01*
X150392491Y-71552976D01*
X150197494Y-71727018D01*
X150030363Y-71927970D01*
X150027934Y-71931973D01*
X149929020Y-72094979D01*
X149894771Y-72151419D01*
X149793697Y-72392455D01*
X149729359Y-72645783D01*
X149707500Y-72862867D01*
X149707500Y-74518354D01*
X132142500Y-74518354D01*
X132142500Y-72885646D01*
X132128061Y-72691348D01*
X132116725Y-72641248D01*
X132071408Y-72440980D01*
X132070377Y-72436423D01*
X131975647Y-72192823D01*
X131845951Y-71965902D01*
X131684138Y-71760643D01*
X131493763Y-71581557D01*
X131279009Y-71432576D01*
X131274816Y-71430508D01*
X131048781Y-71319040D01*
X131048778Y-71319039D01*
X131044593Y-71316975D01*
X130998449Y-71302204D01*
X130800123Y-71238720D01*
X130795665Y-71237293D01*
X130537693Y-71195279D01*
X130423942Y-71193790D01*
X130281022Y-71191919D01*
X130281019Y-71191919D01*
X130276345Y-71191858D01*
X130017362Y-71227104D01*
X129766433Y-71300243D01*
X129762180Y-71302203D01*
X129762179Y-71302204D01*
X129725659Y-71319040D01*
X129529072Y-71409668D01*
X129490067Y-71435241D01*
X129314404Y-71550410D01*
X129314399Y-71550414D01*
X129310491Y-71552976D01*
X129115494Y-71727018D01*
X128948363Y-71927970D01*
X128945934Y-71931973D01*
X128847020Y-72094979D01*
X128812771Y-72151419D01*
X128711697Y-72392455D01*
X128647359Y-72645783D01*
X128625500Y-72862867D01*
X128625500Y-74518354D01*
X115546206Y-74518354D01*
X115636971Y-74151590D01*
X115638223Y-74146917D01*
X115910564Y-73203367D01*
X115911994Y-73198746D01*
X116022032Y-72866021D01*
X116220368Y-72266310D01*
X116221970Y-72261762D01*
X116247746Y-72192823D01*
X116565900Y-71341879D01*
X116567681Y-71337381D01*
X116946663Y-70431395D01*
X116948615Y-70426968D01*
X117022673Y-70267425D01*
X117362113Y-69536164D01*
X117364234Y-69531816D01*
X117811612Y-68657562D01*
X117813898Y-68653299D01*
X117902462Y-68495481D01*
X118294503Y-67796872D01*
X118296951Y-67792699D01*
X118810098Y-66955319D01*
X118812705Y-66951244D01*
X119357588Y-66134225D01*
X119360349Y-66130252D01*
X119936218Y-65334721D01*
X119939103Y-65330891D01*
X120545106Y-64558027D01*
X120548164Y-64554278D01*
X121183362Y-63805279D01*
X121186561Y-63801651D01*
X121850024Y-63077607D01*
X121853360Y-63074103D01*
X122544164Y-62376028D01*
X122547632Y-62372656D01*
X123264697Y-61701637D01*
X123268293Y-61698399D01*
X123402642Y-61582023D01*
X124010601Y-61055393D01*
X124014317Y-61052297D01*
X124780755Y-60438264D01*
X124784588Y-60435312D01*
X125574053Y-59851139D01*
X125577997Y-59848337D01*
X125729598Y-59744922D01*
X126389282Y-59294916D01*
X126393319Y-59292274D01*
X127225256Y-58770402D01*
X127229389Y-58767918D01*
X128080762Y-58278357D01*
X128085001Y-58276026D01*
X128814427Y-57893068D01*
X128954547Y-57819503D01*
X128958838Y-57817355D01*
X129845275Y-57394547D01*
X129849651Y-57392562D01*
X130751652Y-57004099D01*
X130756110Y-57002280D01*
X131672363Y-56648727D01*
X131676874Y-56647084D01*
X132195108Y-56469653D01*
X132213041Y-56463513D01*
X139516562Y-56463513D01*
X139527737Y-56586305D01*
X139533268Y-56647078D01*
X139535532Y-56671960D01*
X139594629Y-56872752D01*
X139691600Y-57058242D01*
X139822754Y-57221364D01*
X139983093Y-57355905D01*
X139988496Y-57358875D01*
X139988497Y-57358876D01*
X139998323Y-57364278D01*
X140166511Y-57456740D01*
X140366022Y-57520028D01*
X140372139Y-57520714D01*
X140372143Y-57520715D01*
X140449882Y-57529434D01*
X140528923Y-57538300D01*
X140641666Y-57538300D01*
X140644721Y-57538000D01*
X140644730Y-57538000D01*
X140716488Y-57530964D01*
X140797309Y-57523039D01*
X140803210Y-57521257D01*
X140803212Y-57521257D01*
X140881307Y-57497679D01*
X140997684Y-57462542D01*
X141182493Y-57364278D01*
X141273808Y-57289803D01*
X141339920Y-57235884D01*
X141339923Y-57235881D01*
X141344695Y-57231989D01*
X141348624Y-57227240D01*
X141474184Y-57075464D01*
X141474186Y-57075461D01*
X141478113Y-57070714D01*
X141577665Y-56886597D01*
X141639559Y-56686649D01*
X141661438Y-56478487D01*
X141642468Y-56270040D01*
X141583371Y-56069248D01*
X141486400Y-55883758D01*
X141355246Y-55720636D01*
X141194907Y-55586095D01*
X141186764Y-55581618D01*
X141016886Y-55488227D01*
X141011489Y-55485260D01*
X140811978Y-55421972D01*
X140805861Y-55421286D01*
X140805857Y-55421285D01*
X140728118Y-55412566D01*
X140649077Y-55403700D01*
X140536334Y-55403700D01*
X140533279Y-55404000D01*
X140533270Y-55404000D01*
X140461512Y-55411036D01*
X140380691Y-55418961D01*
X140374790Y-55420743D01*
X140374788Y-55420743D01*
X140296693Y-55444321D01*
X140180316Y-55479458D01*
X139995507Y-55577722D01*
X139938439Y-55624266D01*
X139838080Y-55706116D01*
X139838077Y-55706119D01*
X139833305Y-55710011D01*
X139829378Y-55714758D01*
X139829376Y-55714760D01*
X139703816Y-55866536D01*
X139703814Y-55866539D01*
X139699887Y-55871286D01*
X139600335Y-56055403D01*
X139538441Y-56255351D01*
X139516562Y-56463513D01*
X132213041Y-56463513D01*
X132606030Y-56328963D01*
X132610636Y-56327484D01*
X132657723Y-56313357D01*
X133551312Y-56045268D01*
X133555925Y-56043980D01*
X134506743Y-55798082D01*
X134511449Y-55796961D01*
X134699308Y-55756001D01*
X135471021Y-55587740D01*
X135475717Y-55586811D01*
X136442593Y-55414585D01*
X136447334Y-55413834D01*
X137420117Y-55278849D01*
X137424904Y-55278278D01*
X138402153Y-55180736D01*
X138406939Y-55180350D01*
X139387210Y-55120394D01*
X139392003Y-55120193D01*
X140373898Y-55097911D01*
X140378698Y-55097895D01*
X140880619Y-55105779D01*
G37*
%TD.AperFunction*%
M02*
