%TF.GenerationSoftware,KiCad,Pcbnew,(6.0.4)*%
%TF.CreationDate,2024-01-19T15:50:56-08:00*%
%TF.ProjectId,Blinky,426c696e-6b79-42e6-9b69-6361645f7063,rev?*%
%TF.SameCoordinates,Original*%
%TF.FileFunction,Other,Comment*%
%FSLAX46Y46*%
G04 Gerber Fmt 4.6, Leading zero omitted, Abs format (unit mm)*
G04 Created by KiCad (PCBNEW (6.0.4)) date 2024-01-19 15:50:56*
%MOMM*%
%LPD*%
G01*
G04 APERTURE LIST*
%ADD10C,0.200000*%
G04 APERTURE END LIST*
D10*
X176358285Y-61156142D02*
X176358285Y-58156142D01*
X176358285Y-59584714D02*
X178072571Y-59584714D01*
X178072571Y-61156142D02*
X178072571Y-58156142D01*
X180786857Y-61156142D02*
X180786857Y-59584714D01*
X180644000Y-59299000D01*
X180358285Y-59156142D01*
X179786857Y-59156142D01*
X179501142Y-59299000D01*
X180786857Y-61013285D02*
X180501142Y-61156142D01*
X179786857Y-61156142D01*
X179501142Y-61013285D01*
X179358285Y-60727571D01*
X179358285Y-60441857D01*
X179501142Y-60156142D01*
X179786857Y-60013285D01*
X180501142Y-60013285D01*
X180786857Y-59870428D01*
X182215428Y-59156142D02*
X182215428Y-62156142D01*
X182215428Y-59299000D02*
X182501142Y-59156142D01*
X183072571Y-59156142D01*
X183358285Y-59299000D01*
X183501142Y-59441857D01*
X183644000Y-59727571D01*
X183644000Y-60584714D01*
X183501142Y-60870428D01*
X183358285Y-61013285D01*
X183072571Y-61156142D01*
X182501142Y-61156142D01*
X182215428Y-61013285D01*
X184929714Y-59156142D02*
X184929714Y-62156142D01*
X184929714Y-59299000D02*
X185215428Y-59156142D01*
X185786857Y-59156142D01*
X186072571Y-59299000D01*
X186215428Y-59441857D01*
X186358285Y-59727571D01*
X186358285Y-60584714D01*
X186215428Y-60870428D01*
X186072571Y-61013285D01*
X185786857Y-61156142D01*
X185215428Y-61156142D01*
X184929714Y-61013285D01*
X187358285Y-59156142D02*
X188072571Y-61156142D01*
X188786857Y-59156142D02*
X188072571Y-61156142D01*
X187786857Y-61870428D01*
X187644000Y-62013285D01*
X187358285Y-62156142D01*
X193929714Y-61156142D02*
X192929714Y-59727571D01*
X192215428Y-61156142D02*
X192215428Y-58156142D01*
X193358285Y-58156142D01*
X193644000Y-58299000D01*
X193786857Y-58441857D01*
X193929714Y-58727571D01*
X193929714Y-59156142D01*
X193786857Y-59441857D01*
X193644000Y-59584714D01*
X193358285Y-59727571D01*
X192215428Y-59727571D01*
X196501142Y-61156142D02*
X196501142Y-59584714D01*
X196358285Y-59299000D01*
X196072571Y-59156142D01*
X195501142Y-59156142D01*
X195215428Y-59299000D01*
X196501142Y-61013285D02*
X196215428Y-61156142D01*
X195501142Y-61156142D01*
X195215428Y-61013285D01*
X195072571Y-60727571D01*
X195072571Y-60441857D01*
X195215428Y-60156142D01*
X195501142Y-60013285D01*
X196215428Y-60013285D01*
X196501142Y-59870428D01*
X197929714Y-61156142D02*
X197929714Y-59156142D01*
X197929714Y-58156142D02*
X197786857Y-58299000D01*
X197929714Y-58441857D01*
X198072571Y-58299000D01*
X197929714Y-58156142D01*
X197929714Y-58441857D01*
X199358285Y-59156142D02*
X199358285Y-61156142D01*
X199358285Y-59441857D02*
X199501142Y-59299000D01*
X199786857Y-59156142D01*
X200215428Y-59156142D01*
X200501142Y-59299000D01*
X200644000Y-59584714D01*
X200644000Y-61156142D01*
X206072571Y-60870428D02*
X205929714Y-61013285D01*
X205501142Y-61156142D01*
X205215428Y-61156142D01*
X204786857Y-61013285D01*
X204501142Y-60727571D01*
X204358285Y-60441857D01*
X204215428Y-59870428D01*
X204215428Y-59441857D01*
X204358285Y-58870428D01*
X204501142Y-58584714D01*
X204786857Y-58299000D01*
X205215428Y-58156142D01*
X205501142Y-58156142D01*
X205929714Y-58299000D01*
X206072571Y-58441857D01*
X207786857Y-61156142D02*
X207501142Y-61013285D01*
X207358285Y-60727571D01*
X207358285Y-58156142D01*
X209358285Y-61156142D02*
X209072571Y-61013285D01*
X208929714Y-60870428D01*
X208786857Y-60584714D01*
X208786857Y-59727571D01*
X208929714Y-59441857D01*
X209072571Y-59299000D01*
X209358285Y-59156142D01*
X209786857Y-59156142D01*
X210072571Y-59299000D01*
X210215428Y-59441857D01*
X210358285Y-59727571D01*
X210358285Y-60584714D01*
X210215428Y-60870428D01*
X210072571Y-61013285D01*
X209786857Y-61156142D01*
X209358285Y-61156142D01*
X212929714Y-59156142D02*
X212929714Y-61156142D01*
X211644000Y-59156142D02*
X211644000Y-60727571D01*
X211786857Y-61013285D01*
X212072571Y-61156142D01*
X212501142Y-61156142D01*
X212786857Y-61013285D01*
X212929714Y-60870428D01*
X215644000Y-61156142D02*
X215644000Y-58156142D01*
X215644000Y-61013285D02*
X215358285Y-61156142D01*
X214786857Y-61156142D01*
X214501142Y-61013285D01*
X214358285Y-60870428D01*
X214215428Y-60584714D01*
X214215428Y-59727571D01*
X214358285Y-59441857D01*
X214501142Y-59299000D01*
X214786857Y-59156142D01*
X215358285Y-59156142D01*
X215644000Y-59299000D01*
X178072571Y-65986142D02*
X177072571Y-64557571D01*
X176358285Y-65986142D02*
X176358285Y-62986142D01*
X177501142Y-62986142D01*
X177786857Y-63129000D01*
X177929714Y-63271857D01*
X178072571Y-63557571D01*
X178072571Y-63986142D01*
X177929714Y-64271857D01*
X177786857Y-64414714D01*
X177501142Y-64557571D01*
X176358285Y-64557571D01*
X180501142Y-65843285D02*
X180215428Y-65986142D01*
X179644000Y-65986142D01*
X179358285Y-65843285D01*
X179215428Y-65557571D01*
X179215428Y-64414714D01*
X179358285Y-64129000D01*
X179644000Y-63986142D01*
X180215428Y-63986142D01*
X180501142Y-64129000D01*
X180644000Y-64414714D01*
X180644000Y-64700428D01*
X179215428Y-64986142D01*
X181644000Y-63986142D02*
X182358285Y-65986142D01*
X183072571Y-63986142D01*
X186358285Y-63271857D02*
X186501142Y-63129000D01*
X186786857Y-62986142D01*
X187501142Y-62986142D01*
X187786857Y-63129000D01*
X187929714Y-63271857D01*
X188072571Y-63557571D01*
X188072571Y-63843285D01*
X187929714Y-64271857D01*
X186215428Y-65986142D01*
X188072571Y-65986142D01*
X189358285Y-65700428D02*
X189501142Y-65843285D01*
X189358285Y-65986142D01*
X189215428Y-65843285D01*
X189358285Y-65700428D01*
X189358285Y-65986142D01*
X191358285Y-62986142D02*
X191644000Y-62986142D01*
X191929714Y-63129000D01*
X192072571Y-63271857D01*
X192215428Y-63557571D01*
X192358285Y-64129000D01*
X192358285Y-64843285D01*
X192215428Y-65414714D01*
X192072571Y-65700428D01*
X191929714Y-65843285D01*
X191644000Y-65986142D01*
X191358285Y-65986142D01*
X191072571Y-65843285D01*
X190929714Y-65700428D01*
X190786857Y-65414714D01*
X190644000Y-64843285D01*
X190644000Y-64129000D01*
X190786857Y-63557571D01*
X190929714Y-63271857D01*
X191072571Y-63129000D01*
X191358285Y-62986142D01*
X176358285Y-75646142D02*
X176358285Y-72646142D01*
X177501142Y-72646142D01*
X177786857Y-72789000D01*
X177929714Y-72931857D01*
X178072571Y-73217571D01*
X178072571Y-73646142D01*
X177929714Y-73931857D01*
X177786857Y-74074714D01*
X177501142Y-74217571D01*
X176358285Y-74217571D01*
X181072571Y-75360428D02*
X180929714Y-75503285D01*
X180501142Y-75646142D01*
X180215428Y-75646142D01*
X179786857Y-75503285D01*
X179501142Y-75217571D01*
X179358285Y-74931857D01*
X179215428Y-74360428D01*
X179215428Y-73931857D01*
X179358285Y-73360428D01*
X179501142Y-73074714D01*
X179786857Y-72789000D01*
X180215428Y-72646142D01*
X180501142Y-72646142D01*
X180929714Y-72789000D01*
X181072571Y-72931857D01*
X183358285Y-74074714D02*
X183786857Y-74217571D01*
X183929714Y-74360428D01*
X184072571Y-74646142D01*
X184072571Y-75074714D01*
X183929714Y-75360428D01*
X183786857Y-75503285D01*
X183501142Y-75646142D01*
X182358285Y-75646142D01*
X182358285Y-72646142D01*
X183358285Y-72646142D01*
X183644000Y-72789000D01*
X183786857Y-72931857D01*
X183929714Y-73217571D01*
X183929714Y-73503285D01*
X183786857Y-73789000D01*
X183644000Y-73931857D01*
X183358285Y-74074714D01*
X182358285Y-74074714D01*
X187501142Y-75503285D02*
X187929714Y-75646142D01*
X188644000Y-75646142D01*
X188929714Y-75503285D01*
X189072571Y-75360428D01*
X189215428Y-75074714D01*
X189215428Y-74789000D01*
X189072571Y-74503285D01*
X188929714Y-74360428D01*
X188644000Y-74217571D01*
X188072571Y-74074714D01*
X187786857Y-73931857D01*
X187644000Y-73789000D01*
X187501142Y-73503285D01*
X187501142Y-73217571D01*
X187644000Y-72931857D01*
X187786857Y-72789000D01*
X188072571Y-72646142D01*
X188786857Y-72646142D01*
X189215428Y-72789000D01*
X190501142Y-73646142D02*
X190501142Y-76646142D01*
X190501142Y-73789000D02*
X190786857Y-73646142D01*
X191358285Y-73646142D01*
X191644000Y-73789000D01*
X191786857Y-73931857D01*
X191929714Y-74217571D01*
X191929714Y-75074714D01*
X191786857Y-75360428D01*
X191644000Y-75503285D01*
X191358285Y-75646142D01*
X190786857Y-75646142D01*
X190501142Y-75503285D01*
X194358285Y-75503285D02*
X194072571Y-75646142D01*
X193501142Y-75646142D01*
X193215428Y-75503285D01*
X193072571Y-75217571D01*
X193072571Y-74074714D01*
X193215428Y-73789000D01*
X193501142Y-73646142D01*
X194072571Y-73646142D01*
X194358285Y-73789000D01*
X194501142Y-74074714D01*
X194501142Y-74360428D01*
X193072571Y-74646142D01*
X197072571Y-75503285D02*
X196786857Y-75646142D01*
X196215428Y-75646142D01*
X195929714Y-75503285D01*
X195786857Y-75360428D01*
X195644000Y-75074714D01*
X195644000Y-74217571D01*
X195786857Y-73931857D01*
X195929714Y-73789000D01*
X196215428Y-73646142D01*
X196786857Y-73646142D01*
X197072571Y-73789000D01*
X198358285Y-75646142D02*
X198358285Y-73646142D01*
X198358285Y-72646142D02*
X198215428Y-72789000D01*
X198358285Y-72931857D01*
X198501142Y-72789000D01*
X198358285Y-72646142D01*
X198358285Y-72931857D01*
X199358285Y-73646142D02*
X200501142Y-73646142D01*
X199786857Y-75646142D02*
X199786857Y-73074714D01*
X199929714Y-72789000D01*
X200215428Y-72646142D01*
X200501142Y-72646142D01*
X201501142Y-75646142D02*
X201501142Y-73646142D01*
X201501142Y-72646142D02*
X201358285Y-72789000D01*
X201501142Y-72931857D01*
X201644000Y-72789000D01*
X201501142Y-72646142D01*
X201501142Y-72931857D01*
X204215428Y-75503285D02*
X203929714Y-75646142D01*
X203358285Y-75646142D01*
X203072571Y-75503285D01*
X202929714Y-75360428D01*
X202786857Y-75074714D01*
X202786857Y-74217571D01*
X202929714Y-73931857D01*
X203072571Y-73789000D01*
X203358285Y-73646142D01*
X203929714Y-73646142D01*
X204215428Y-73789000D01*
X206786857Y-75646142D02*
X206786857Y-74074714D01*
X206644000Y-73789000D01*
X206358285Y-73646142D01*
X205786857Y-73646142D01*
X205501142Y-73789000D01*
X206786857Y-75503285D02*
X206501142Y-75646142D01*
X205786857Y-75646142D01*
X205501142Y-75503285D01*
X205358285Y-75217571D01*
X205358285Y-74931857D01*
X205501142Y-74646142D01*
X205786857Y-74503285D01*
X206501142Y-74503285D01*
X206786857Y-74360428D01*
X207786857Y-73646142D02*
X208929714Y-73646142D01*
X208215428Y-72646142D02*
X208215428Y-75217571D01*
X208358285Y-75503285D01*
X208644000Y-75646142D01*
X208929714Y-75646142D01*
X209929714Y-75646142D02*
X209929714Y-73646142D01*
X209929714Y-72646142D02*
X209786857Y-72789000D01*
X209929714Y-72931857D01*
X210072571Y-72789000D01*
X209929714Y-72646142D01*
X209929714Y-72931857D01*
X211786857Y-75646142D02*
X211501142Y-75503285D01*
X211358285Y-75360428D01*
X211215428Y-75074714D01*
X211215428Y-74217571D01*
X211358285Y-73931857D01*
X211501142Y-73789000D01*
X211786857Y-73646142D01*
X212215428Y-73646142D01*
X212501142Y-73789000D01*
X212644000Y-73931857D01*
X212786857Y-74217571D01*
X212786857Y-75074714D01*
X212644000Y-75360428D01*
X212501142Y-75503285D01*
X212215428Y-75646142D01*
X211786857Y-75646142D01*
X214072571Y-73646142D02*
X214072571Y-75646142D01*
X214072571Y-73931857D02*
X214215428Y-73789000D01*
X214501142Y-73646142D01*
X214929714Y-73646142D01*
X215215428Y-73789000D01*
X215358285Y-74074714D01*
X215358285Y-75646142D01*
X216644000Y-75503285D02*
X216929714Y-75646142D01*
X217501142Y-75646142D01*
X217786857Y-75503285D01*
X217929714Y-75217571D01*
X217929714Y-75074714D01*
X217786857Y-74789000D01*
X217501142Y-74646142D01*
X217072571Y-74646142D01*
X216786857Y-74503285D01*
X216644000Y-74217571D01*
X216644000Y-74074714D01*
X216786857Y-73789000D01*
X217072571Y-73646142D01*
X217501142Y-73646142D01*
X217786857Y-73789000D01*
X219215428Y-75360428D02*
X219358285Y-75503285D01*
X219215428Y-75646142D01*
X219072571Y-75503285D01*
X219215428Y-75360428D01*
X219215428Y-75646142D01*
X219215428Y-73789000D02*
X219358285Y-73931857D01*
X219215428Y-74074714D01*
X219072571Y-73931857D01*
X219215428Y-73789000D01*
X219215428Y-74074714D01*
X177929714Y-80476142D02*
X176215428Y-80476142D01*
X177072571Y-80476142D02*
X177072571Y-77476142D01*
X176786857Y-77904714D01*
X176501142Y-78190428D01*
X176215428Y-78333285D01*
X179215428Y-80190428D02*
X179358285Y-80333285D01*
X179215428Y-80476142D01*
X179072571Y-80333285D01*
X179215428Y-80190428D01*
X179215428Y-80476142D01*
X184501142Y-80476142D02*
X182786857Y-80476142D01*
X183644000Y-80476142D02*
X183644000Y-77476142D01*
X183358285Y-77904714D01*
X183072571Y-78190428D01*
X182786857Y-78333285D01*
X188501142Y-80476142D02*
X188215428Y-80333285D01*
X188072571Y-80190428D01*
X187929714Y-79904714D01*
X187929714Y-79047571D01*
X188072571Y-78761857D01*
X188215428Y-78619000D01*
X188501142Y-78476142D01*
X188929714Y-78476142D01*
X189215428Y-78619000D01*
X189358285Y-78761857D01*
X189501142Y-79047571D01*
X189501142Y-79904714D01*
X189358285Y-80190428D01*
X189215428Y-80333285D01*
X188929714Y-80476142D01*
X188501142Y-80476142D01*
X190501142Y-78476142D02*
X192072571Y-78476142D01*
X190501142Y-80476142D01*
X192072571Y-80476142D01*
X197215428Y-80190428D02*
X197072571Y-80333285D01*
X196644000Y-80476142D01*
X196358285Y-80476142D01*
X195929714Y-80333285D01*
X195644000Y-80047571D01*
X195501142Y-79761857D01*
X195358285Y-79190428D01*
X195358285Y-78761857D01*
X195501142Y-78190428D01*
X195644000Y-77904714D01*
X195929714Y-77619000D01*
X196358285Y-77476142D01*
X196644000Y-77476142D01*
X197072571Y-77619000D01*
X197215428Y-77761857D01*
X199786857Y-78476142D02*
X199786857Y-80476142D01*
X198501142Y-78476142D02*
X198501142Y-80047571D01*
X198644000Y-80333285D01*
X198929714Y-80476142D01*
X199358285Y-80476142D01*
X199644000Y-80333285D01*
X199786857Y-80190428D01*
X201358285Y-80333285D02*
X201358285Y-80476142D01*
X201215428Y-80761857D01*
X201072571Y-80904714D01*
X205929714Y-78904714D02*
X204929714Y-78904714D01*
X204929714Y-80476142D02*
X204929714Y-77476142D01*
X206358285Y-77476142D01*
X209215428Y-80476142D02*
X208215428Y-79047571D01*
X207501142Y-80476142D02*
X207501142Y-77476142D01*
X208644000Y-77476142D01*
X208929714Y-77619000D01*
X209072571Y-77761857D01*
X209215428Y-78047571D01*
X209215428Y-78476142D01*
X209072571Y-78761857D01*
X208929714Y-78904714D01*
X208644000Y-79047571D01*
X207501142Y-79047571D01*
X210501142Y-79333285D02*
X212786857Y-79333285D01*
X215501142Y-78476142D02*
X215501142Y-80476142D01*
X214786857Y-77333285D02*
X214072571Y-79476142D01*
X215929714Y-79476142D01*
X176215428Y-82591857D02*
X176358285Y-82449000D01*
X176644000Y-82306142D01*
X177358285Y-82306142D01*
X177644000Y-82449000D01*
X177786857Y-82591857D01*
X177929714Y-82877571D01*
X177929714Y-83163285D01*
X177786857Y-83591857D01*
X176072571Y-85306142D01*
X177929714Y-85306142D01*
X179215428Y-85020428D02*
X179358285Y-85163285D01*
X179215428Y-85306142D01*
X179072571Y-85163285D01*
X179215428Y-85020428D01*
X179215428Y-85306142D01*
X182786857Y-82591857D02*
X182929714Y-82449000D01*
X183215428Y-82306142D01*
X183929714Y-82306142D01*
X184215428Y-82449000D01*
X184358285Y-82591857D01*
X184501142Y-82877571D01*
X184501142Y-83163285D01*
X184358285Y-83591857D01*
X182644000Y-85306142D01*
X184501142Y-85306142D01*
X188501142Y-85306142D02*
X188215428Y-85163285D01*
X188072571Y-84877571D01*
X188072571Y-82306142D01*
X190929714Y-85306142D02*
X190929714Y-83734714D01*
X190786857Y-83449000D01*
X190501142Y-83306142D01*
X189929714Y-83306142D01*
X189644000Y-83449000D01*
X190929714Y-85163285D02*
X190644000Y-85306142D01*
X189929714Y-85306142D01*
X189644000Y-85163285D01*
X189501142Y-84877571D01*
X189501142Y-84591857D01*
X189644000Y-84306142D01*
X189929714Y-84163285D01*
X190644000Y-84163285D01*
X190929714Y-84020428D01*
X192072571Y-83306142D02*
X192786857Y-85306142D01*
X193501142Y-83306142D02*
X192786857Y-85306142D01*
X192501142Y-86020428D01*
X192358285Y-86163285D01*
X192072571Y-86306142D01*
X195786857Y-85163285D02*
X195501142Y-85306142D01*
X194929714Y-85306142D01*
X194644000Y-85163285D01*
X194501142Y-84877571D01*
X194501142Y-83734714D01*
X194644000Y-83449000D01*
X194929714Y-83306142D01*
X195501142Y-83306142D01*
X195786857Y-83449000D01*
X195929714Y-83734714D01*
X195929714Y-84020428D01*
X194501142Y-84306142D01*
X197215428Y-85306142D02*
X197215428Y-83306142D01*
X197215428Y-83877571D02*
X197358285Y-83591857D01*
X197501142Y-83449000D01*
X197786857Y-83306142D01*
X198072571Y-83306142D01*
X198929714Y-85163285D02*
X199215428Y-85306142D01*
X199786857Y-85306142D01*
X200072571Y-85163285D01*
X200215428Y-84877571D01*
X200215428Y-84734714D01*
X200072571Y-84449000D01*
X199786857Y-84306142D01*
X199358285Y-84306142D01*
X199072571Y-84163285D01*
X198929714Y-83877571D01*
X198929714Y-83734714D01*
X199072571Y-83449000D01*
X199358285Y-83306142D01*
X199786857Y-83306142D01*
X200072571Y-83449000D01*
X176072571Y-87136142D02*
X177929714Y-87136142D01*
X176929714Y-88279000D01*
X177358285Y-88279000D01*
X177644000Y-88421857D01*
X177786857Y-88564714D01*
X177929714Y-88850428D01*
X177929714Y-89564714D01*
X177786857Y-89850428D01*
X177644000Y-89993285D01*
X177358285Y-90136142D01*
X176501142Y-90136142D01*
X176215428Y-89993285D01*
X176072571Y-89850428D01*
X179215428Y-89850428D02*
X179358285Y-89993285D01*
X179215428Y-90136142D01*
X179072571Y-89993285D01*
X179215428Y-89850428D01*
X179215428Y-90136142D01*
X183501142Y-87136142D02*
X183786857Y-87136142D01*
X184072571Y-87279000D01*
X184215428Y-87421857D01*
X184358285Y-87707571D01*
X184501142Y-88279000D01*
X184501142Y-88993285D01*
X184358285Y-89564714D01*
X184215428Y-89850428D01*
X184072571Y-89993285D01*
X183786857Y-90136142D01*
X183501142Y-90136142D01*
X183215428Y-89993285D01*
X183072571Y-89850428D01*
X182929714Y-89564714D01*
X182786857Y-88993285D01*
X182786857Y-88279000D01*
X182929714Y-87707571D01*
X183072571Y-87421857D01*
X183215428Y-87279000D01*
X183501142Y-87136142D01*
X185786857Y-89850428D02*
X185929714Y-89993285D01*
X185786857Y-90136142D01*
X185644000Y-89993285D01*
X185786857Y-89850428D01*
X185786857Y-90136142D01*
X187786857Y-87136142D02*
X188072571Y-87136142D01*
X188358285Y-87279000D01*
X188501142Y-87421857D01*
X188644000Y-87707571D01*
X188786857Y-88279000D01*
X188786857Y-88993285D01*
X188644000Y-89564714D01*
X188501142Y-89850428D01*
X188358285Y-89993285D01*
X188072571Y-90136142D01*
X187786857Y-90136142D01*
X187501142Y-89993285D01*
X187358285Y-89850428D01*
X187215428Y-89564714D01*
X187072571Y-88993285D01*
X187072571Y-88279000D01*
X187215428Y-87707571D01*
X187358285Y-87421857D01*
X187501142Y-87279000D01*
X187786857Y-87136142D01*
X191358285Y-87136142D02*
X190786857Y-87136142D01*
X190501142Y-87279000D01*
X190358285Y-87421857D01*
X190072571Y-87850428D01*
X189929714Y-88421857D01*
X189929714Y-89564714D01*
X190072571Y-89850428D01*
X190215428Y-89993285D01*
X190501142Y-90136142D01*
X191072571Y-90136142D01*
X191358285Y-89993285D01*
X191501142Y-89850428D01*
X191644000Y-89564714D01*
X191644000Y-88850428D01*
X191501142Y-88564714D01*
X191358285Y-88421857D01*
X191072571Y-88279000D01*
X190501142Y-88279000D01*
X190215428Y-88421857D01*
X190072571Y-88564714D01*
X189929714Y-88850428D01*
X192644000Y-87136142D02*
X194501142Y-87136142D01*
X193501142Y-88279000D01*
X193929714Y-88279000D01*
X194215428Y-88421857D01*
X194358285Y-88564714D01*
X194501142Y-88850428D01*
X194501142Y-89564714D01*
X194358285Y-89850428D01*
X194215428Y-89993285D01*
X193929714Y-90136142D01*
X193072571Y-90136142D01*
X192786857Y-89993285D01*
X192644000Y-89850428D01*
X198072571Y-90136142D02*
X198072571Y-88136142D01*
X198072571Y-87136142D02*
X197929714Y-87279000D01*
X198072571Y-87421857D01*
X198215428Y-87279000D01*
X198072571Y-87136142D01*
X198072571Y-87421857D01*
X199501142Y-88136142D02*
X199501142Y-90136142D01*
X199501142Y-88421857D02*
X199644000Y-88279000D01*
X199929714Y-88136142D01*
X200358285Y-88136142D01*
X200644000Y-88279000D01*
X200786857Y-88564714D01*
X200786857Y-90136142D01*
X203501142Y-89993285D02*
X203215428Y-90136142D01*
X202644000Y-90136142D01*
X202358285Y-89993285D01*
X202215428Y-89850428D01*
X202072571Y-89564714D01*
X202072571Y-88707571D01*
X202215428Y-88421857D01*
X202358285Y-88279000D01*
X202644000Y-88136142D01*
X203215428Y-88136142D01*
X203501142Y-88279000D01*
X204786857Y-90136142D02*
X204786857Y-87136142D01*
X206072571Y-90136142D02*
X206072571Y-88564714D01*
X205929714Y-88279000D01*
X205644000Y-88136142D01*
X205215428Y-88136142D01*
X204929714Y-88279000D01*
X204786857Y-88421857D01*
X211929714Y-86993285D02*
X209358285Y-90850428D01*
X216786857Y-90136142D02*
X215072571Y-90136142D01*
X215929714Y-90136142D02*
X215929714Y-87136142D01*
X215644000Y-87564714D01*
X215358285Y-87850428D01*
X215072571Y-87993285D01*
X218072571Y-89850428D02*
X218215428Y-89993285D01*
X218072571Y-90136142D01*
X217929714Y-89993285D01*
X218072571Y-89850428D01*
X218072571Y-90136142D01*
X220786857Y-87136142D02*
X220215428Y-87136142D01*
X219929714Y-87279000D01*
X219786857Y-87421857D01*
X219501142Y-87850428D01*
X219358285Y-88421857D01*
X219358285Y-89564714D01*
X219501142Y-89850428D01*
X219644000Y-89993285D01*
X219929714Y-90136142D01*
X220501142Y-90136142D01*
X220786857Y-89993285D01*
X220929714Y-89850428D01*
X221072571Y-89564714D01*
X221072571Y-88850428D01*
X220929714Y-88564714D01*
X220786857Y-88421857D01*
X220501142Y-88279000D01*
X219929714Y-88279000D01*
X219644000Y-88421857D01*
X219501142Y-88564714D01*
X219358285Y-88850428D01*
X222358285Y-90136142D02*
X222358285Y-88136142D01*
X222358285Y-88421857D02*
X222501142Y-88279000D01*
X222786857Y-88136142D01*
X223215428Y-88136142D01*
X223501142Y-88279000D01*
X223644000Y-88564714D01*
X223644000Y-90136142D01*
X223644000Y-88564714D02*
X223786857Y-88279000D01*
X224072571Y-88136142D01*
X224501142Y-88136142D01*
X224786857Y-88279000D01*
X224929714Y-88564714D01*
X224929714Y-90136142D01*
X226358285Y-90136142D02*
X226358285Y-88136142D01*
X226358285Y-88421857D02*
X226501142Y-88279000D01*
X226786857Y-88136142D01*
X227215428Y-88136142D01*
X227501142Y-88279000D01*
X227644000Y-88564714D01*
X227644000Y-90136142D01*
X227644000Y-88564714D02*
X227786857Y-88279000D01*
X228072571Y-88136142D01*
X228501142Y-88136142D01*
X228786857Y-88279000D01*
X228929714Y-88564714D01*
X228929714Y-90136142D01*
X232215428Y-88136142D02*
X233358285Y-88136142D01*
X232644000Y-87136142D02*
X232644000Y-89707571D01*
X232786857Y-89993285D01*
X233072571Y-90136142D01*
X233358285Y-90136142D01*
X234358285Y-90136142D02*
X234358285Y-87136142D01*
X235644000Y-90136142D02*
X235644000Y-88564714D01*
X235501142Y-88279000D01*
X235215428Y-88136142D01*
X234786857Y-88136142D01*
X234501142Y-88279000D01*
X234358285Y-88421857D01*
X237072571Y-90136142D02*
X237072571Y-88136142D01*
X237072571Y-87136142D02*
X236929714Y-87279000D01*
X237072571Y-87421857D01*
X237215428Y-87279000D01*
X237072571Y-87136142D01*
X237072571Y-87421857D01*
X239786857Y-89993285D02*
X239501142Y-90136142D01*
X238929714Y-90136142D01*
X238644000Y-89993285D01*
X238501142Y-89850428D01*
X238358285Y-89564714D01*
X238358285Y-88707571D01*
X238501142Y-88421857D01*
X238644000Y-88279000D01*
X238929714Y-88136142D01*
X239501142Y-88136142D01*
X239786857Y-88279000D01*
X241072571Y-90136142D02*
X241072571Y-87136142D01*
X241358285Y-88993285D02*
X242215428Y-90136142D01*
X242215428Y-88136142D02*
X241072571Y-89279000D01*
X177644000Y-92966142D02*
X177644000Y-94966142D01*
X176929714Y-91823285D02*
X176215428Y-93966142D01*
X178072571Y-93966142D01*
X179215428Y-94680428D02*
X179358285Y-94823285D01*
X179215428Y-94966142D01*
X179072571Y-94823285D01*
X179215428Y-94680428D01*
X179215428Y-94966142D01*
X182786857Y-94823285D02*
X183215428Y-94966142D01*
X183929714Y-94966142D01*
X184215428Y-94823285D01*
X184358285Y-94680428D01*
X184501142Y-94394714D01*
X184501142Y-94109000D01*
X184358285Y-93823285D01*
X184215428Y-93680428D01*
X183929714Y-93537571D01*
X183358285Y-93394714D01*
X183072571Y-93251857D01*
X182929714Y-93109000D01*
X182786857Y-92823285D01*
X182786857Y-92537571D01*
X182929714Y-92251857D01*
X183072571Y-92109000D01*
X183358285Y-91966142D01*
X184072571Y-91966142D01*
X184501142Y-92109000D01*
X186215428Y-94966142D02*
X185929714Y-94823285D01*
X185786857Y-94680428D01*
X185644000Y-94394714D01*
X185644000Y-93537571D01*
X185786857Y-93251857D01*
X185929714Y-93109000D01*
X186215428Y-92966142D01*
X186644000Y-92966142D01*
X186929714Y-93109000D01*
X187072571Y-93251857D01*
X187215428Y-93537571D01*
X187215428Y-94394714D01*
X187072571Y-94680428D01*
X186929714Y-94823285D01*
X186644000Y-94966142D01*
X186215428Y-94966142D01*
X188929714Y-94966142D02*
X188644000Y-94823285D01*
X188501142Y-94537571D01*
X188501142Y-91966142D01*
X191358285Y-94966142D02*
X191358285Y-91966142D01*
X191358285Y-94823285D02*
X191072571Y-94966142D01*
X190501142Y-94966142D01*
X190215428Y-94823285D01*
X190072571Y-94680428D01*
X189929714Y-94394714D01*
X189929714Y-93537571D01*
X190072571Y-93251857D01*
X190215428Y-93109000D01*
X190501142Y-92966142D01*
X191072571Y-92966142D01*
X191358285Y-93109000D01*
X193929714Y-94823285D02*
X193644000Y-94966142D01*
X193072571Y-94966142D01*
X192786857Y-94823285D01*
X192644000Y-94537571D01*
X192644000Y-93394714D01*
X192786857Y-93109000D01*
X193072571Y-92966142D01*
X193644000Y-92966142D01*
X193929714Y-93109000D01*
X194072571Y-93394714D01*
X194072571Y-93680428D01*
X192644000Y-93966142D01*
X195358285Y-94966142D02*
X195358285Y-92966142D01*
X195358285Y-93537571D02*
X195501142Y-93251857D01*
X195644000Y-93109000D01*
X195929714Y-92966142D01*
X196215428Y-92966142D01*
X197215428Y-94966142D02*
X197215428Y-92966142D01*
X197215428Y-93251857D02*
X197358285Y-93109000D01*
X197644000Y-92966142D01*
X198072571Y-92966142D01*
X198358285Y-93109000D01*
X198501142Y-93394714D01*
X198501142Y-94966142D01*
X198501142Y-93394714D02*
X198644000Y-93109000D01*
X198929714Y-92966142D01*
X199358285Y-92966142D01*
X199644000Y-93109000D01*
X199786857Y-93394714D01*
X199786857Y-94966142D01*
X202501142Y-94966142D02*
X202501142Y-93394714D01*
X202358285Y-93109000D01*
X202072571Y-92966142D01*
X201501142Y-92966142D01*
X201215428Y-93109000D01*
X202501142Y-94823285D02*
X202215428Y-94966142D01*
X201501142Y-94966142D01*
X201215428Y-94823285D01*
X201072571Y-94537571D01*
X201072571Y-94251857D01*
X201215428Y-93966142D01*
X201501142Y-93823285D01*
X202215428Y-93823285D01*
X202501142Y-93680428D01*
X203786857Y-94823285D02*
X204072571Y-94966142D01*
X204644000Y-94966142D01*
X204929714Y-94823285D01*
X205072571Y-94537571D01*
X205072571Y-94394714D01*
X204929714Y-94109000D01*
X204644000Y-93966142D01*
X204215428Y-93966142D01*
X203929714Y-93823285D01*
X203786857Y-93537571D01*
X203786857Y-93394714D01*
X203929714Y-93109000D01*
X204215428Y-92966142D01*
X204644000Y-92966142D01*
X204929714Y-93109000D01*
X206358285Y-94966142D02*
X206358285Y-91966142D01*
X206644000Y-93823285D02*
X207501142Y-94966142D01*
X207501142Y-92966142D02*
X206358285Y-94109000D01*
X208786857Y-94680428D02*
X208929714Y-94823285D01*
X208786857Y-94966142D01*
X208644000Y-94823285D01*
X208786857Y-94680428D01*
X208786857Y-94966142D01*
X208786857Y-93109000D02*
X208929714Y-93251857D01*
X208786857Y-93394714D01*
X208644000Y-93251857D01*
X208786857Y-93109000D01*
X208786857Y-93394714D01*
X212215428Y-91966142D02*
X212929714Y-94966142D01*
X213501142Y-92823285D01*
X214072571Y-94966142D01*
X214786857Y-91966142D01*
X215929714Y-94966142D02*
X215929714Y-91966142D01*
X217215428Y-94966142D02*
X217215428Y-93394714D01*
X217072571Y-93109000D01*
X216786857Y-92966142D01*
X216358285Y-92966142D01*
X216072571Y-93109000D01*
X215929714Y-93251857D01*
X218644000Y-94966142D02*
X218644000Y-92966142D01*
X218644000Y-91966142D02*
X218501142Y-92109000D01*
X218644000Y-92251857D01*
X218786857Y-92109000D01*
X218644000Y-91966142D01*
X218644000Y-92251857D01*
X219644000Y-92966142D02*
X220786857Y-92966142D01*
X220072571Y-91966142D02*
X220072571Y-94537571D01*
X220215428Y-94823285D01*
X220501142Y-94966142D01*
X220786857Y-94966142D01*
X222929714Y-94823285D02*
X222644000Y-94966142D01*
X222072571Y-94966142D01*
X221786857Y-94823285D01*
X221644000Y-94537571D01*
X221644000Y-93394714D01*
X221786857Y-93109000D01*
X222072571Y-92966142D01*
X222644000Y-92966142D01*
X222929714Y-93109000D01*
X223072571Y-93394714D01*
X223072571Y-93680428D01*
X221644000Y-93966142D01*
X224501142Y-94823285D02*
X224501142Y-94966142D01*
X224358285Y-95251857D01*
X224215428Y-95394714D01*
X228072571Y-94966142D02*
X228072571Y-91966142D01*
X228072571Y-93109000D02*
X228358285Y-92966142D01*
X228929714Y-92966142D01*
X229215428Y-93109000D01*
X229358285Y-93251857D01*
X229501142Y-93537571D01*
X229501142Y-94394714D01*
X229358285Y-94680428D01*
X229215428Y-94823285D01*
X228929714Y-94966142D01*
X228358285Y-94966142D01*
X228072571Y-94823285D01*
X231215428Y-94966142D02*
X230929714Y-94823285D01*
X230786857Y-94680428D01*
X230644000Y-94394714D01*
X230644000Y-93537571D01*
X230786857Y-93251857D01*
X230929714Y-93109000D01*
X231215428Y-92966142D01*
X231644000Y-92966142D01*
X231929714Y-93109000D01*
X232072571Y-93251857D01*
X232215428Y-93537571D01*
X232215428Y-94394714D01*
X232072571Y-94680428D01*
X231929714Y-94823285D01*
X231644000Y-94966142D01*
X231215428Y-94966142D01*
X233072571Y-92966142D02*
X234215428Y-92966142D01*
X233501142Y-91966142D02*
X233501142Y-94537571D01*
X233644000Y-94823285D01*
X233929714Y-94966142D01*
X234215428Y-94966142D01*
X235215428Y-94966142D02*
X235215428Y-91966142D01*
X236501142Y-94966142D02*
X236501142Y-93394714D01*
X236358285Y-93109000D01*
X236072571Y-92966142D01*
X235644000Y-92966142D01*
X235358285Y-93109000D01*
X235215428Y-93251857D01*
X240072571Y-94823285D02*
X240358285Y-94966142D01*
X240929714Y-94966142D01*
X241215428Y-94823285D01*
X241358285Y-94537571D01*
X241358285Y-94394714D01*
X241215428Y-94109000D01*
X240929714Y-93966142D01*
X240501142Y-93966142D01*
X240215428Y-93823285D01*
X240072571Y-93537571D01*
X240072571Y-93394714D01*
X240215428Y-93109000D01*
X240501142Y-92966142D01*
X240929714Y-92966142D01*
X241215428Y-93109000D01*
X242644000Y-94966142D02*
X242644000Y-92966142D01*
X242644000Y-91966142D02*
X242501142Y-92109000D01*
X242644000Y-92251857D01*
X242786857Y-92109000D01*
X242644000Y-91966142D01*
X242644000Y-92251857D01*
X245358285Y-94966142D02*
X245358285Y-91966142D01*
X245358285Y-94823285D02*
X245072571Y-94966142D01*
X244501142Y-94966142D01*
X244215428Y-94823285D01*
X244072571Y-94680428D01*
X243929714Y-94394714D01*
X243929714Y-93537571D01*
X244072571Y-93251857D01*
X244215428Y-93109000D01*
X244501142Y-92966142D01*
X245072571Y-92966142D01*
X245358285Y-93109000D01*
X247929714Y-94823285D02*
X247644000Y-94966142D01*
X247072571Y-94966142D01*
X246786857Y-94823285D01*
X246644000Y-94537571D01*
X246644000Y-93394714D01*
X246786857Y-93109000D01*
X247072571Y-92966142D01*
X247644000Y-92966142D01*
X247929714Y-93109000D01*
X248072571Y-93394714D01*
X248072571Y-93680428D01*
X246644000Y-93966142D01*
X249215428Y-94823285D02*
X249501142Y-94966142D01*
X250072571Y-94966142D01*
X250358285Y-94823285D01*
X250501142Y-94537571D01*
X250501142Y-94394714D01*
X250358285Y-94109000D01*
X250072571Y-93966142D01*
X249644000Y-93966142D01*
X249358285Y-93823285D01*
X249215428Y-93537571D01*
X249215428Y-93394714D01*
X249358285Y-93109000D01*
X249644000Y-92966142D01*
X250072571Y-92966142D01*
X250358285Y-93109000D01*
X177786857Y-96796142D02*
X176358285Y-96796142D01*
X176215428Y-98224714D01*
X176358285Y-98081857D01*
X176644000Y-97939000D01*
X177358285Y-97939000D01*
X177644000Y-98081857D01*
X177786857Y-98224714D01*
X177929714Y-98510428D01*
X177929714Y-99224714D01*
X177786857Y-99510428D01*
X177644000Y-99653285D01*
X177358285Y-99796142D01*
X176644000Y-99796142D01*
X176358285Y-99653285D01*
X176215428Y-99510428D01*
X179215428Y-99510428D02*
X179358285Y-99653285D01*
X179215428Y-99796142D01*
X179072571Y-99653285D01*
X179215428Y-99510428D01*
X179215428Y-99796142D01*
X182786857Y-99653285D02*
X183215428Y-99796142D01*
X183929714Y-99796142D01*
X184215428Y-99653285D01*
X184358285Y-99510428D01*
X184501142Y-99224714D01*
X184501142Y-98939000D01*
X184358285Y-98653285D01*
X184215428Y-98510428D01*
X183929714Y-98367571D01*
X183358285Y-98224714D01*
X183072571Y-98081857D01*
X182929714Y-97939000D01*
X182786857Y-97653285D01*
X182786857Y-97367571D01*
X182929714Y-97081857D01*
X183072571Y-96939000D01*
X183358285Y-96796142D01*
X184072571Y-96796142D01*
X184501142Y-96939000D01*
X185786857Y-99796142D02*
X185786857Y-97796142D01*
X185786857Y-96796142D02*
X185644000Y-96939000D01*
X185786857Y-97081857D01*
X185929714Y-96939000D01*
X185786857Y-96796142D01*
X185786857Y-97081857D01*
X187644000Y-99796142D02*
X187358285Y-99653285D01*
X187215428Y-99367571D01*
X187215428Y-96796142D01*
X188786857Y-99796142D02*
X188786857Y-96796142D01*
X189072571Y-98653285D02*
X189929714Y-99796142D01*
X189929714Y-97796142D02*
X188786857Y-98939000D01*
X191072571Y-99653285D02*
X191358285Y-99796142D01*
X191929714Y-99796142D01*
X192215428Y-99653285D01*
X192358285Y-99367571D01*
X192358285Y-99224714D01*
X192215428Y-98939000D01*
X191929714Y-98796142D01*
X191501142Y-98796142D01*
X191215428Y-98653285D01*
X191072571Y-98367571D01*
X191072571Y-98224714D01*
X191215428Y-97939000D01*
X191501142Y-97796142D01*
X191929714Y-97796142D01*
X192215428Y-97939000D01*
X194929714Y-99653285D02*
X194644000Y-99796142D01*
X194072571Y-99796142D01*
X193786857Y-99653285D01*
X193644000Y-99510428D01*
X193501142Y-99224714D01*
X193501142Y-98367571D01*
X193644000Y-98081857D01*
X193786857Y-97939000D01*
X194072571Y-97796142D01*
X194644000Y-97796142D01*
X194929714Y-97939000D01*
X196215428Y-99796142D02*
X196215428Y-97796142D01*
X196215428Y-98367571D02*
X196358285Y-98081857D01*
X196501142Y-97939000D01*
X196786857Y-97796142D01*
X197072571Y-97796142D01*
X199215428Y-99653285D02*
X198929714Y-99796142D01*
X198358285Y-99796142D01*
X198072571Y-99653285D01*
X197929714Y-99367571D01*
X197929714Y-98224714D01*
X198072571Y-97939000D01*
X198358285Y-97796142D01*
X198929714Y-97796142D01*
X199215428Y-97939000D01*
X199358285Y-98224714D01*
X199358285Y-98510428D01*
X197929714Y-98796142D01*
X201786857Y-99653285D02*
X201501142Y-99796142D01*
X200929714Y-99796142D01*
X200644000Y-99653285D01*
X200501142Y-99367571D01*
X200501142Y-98224714D01*
X200644000Y-97939000D01*
X200929714Y-97796142D01*
X201501142Y-97796142D01*
X201786857Y-97939000D01*
X201929714Y-98224714D01*
X201929714Y-98510428D01*
X200501142Y-98796142D01*
X203215428Y-97796142D02*
X203215428Y-99796142D01*
X203215428Y-98081857D02*
X203358285Y-97939000D01*
X203644000Y-97796142D01*
X204072571Y-97796142D01*
X204358285Y-97939000D01*
X204501142Y-98224714D01*
X204501142Y-99796142D01*
X205929714Y-99510428D02*
X206072571Y-99653285D01*
X205929714Y-99796142D01*
X205786857Y-99653285D01*
X205929714Y-99510428D01*
X205929714Y-99796142D01*
X205929714Y-97939000D02*
X206072571Y-98081857D01*
X205929714Y-98224714D01*
X205786857Y-98081857D01*
X205929714Y-97939000D01*
X205929714Y-98224714D01*
X210644000Y-98224714D02*
X211072571Y-98367571D01*
X211215428Y-98510428D01*
X211358285Y-98796142D01*
X211358285Y-99224714D01*
X211215428Y-99510428D01*
X211072571Y-99653285D01*
X210786857Y-99796142D01*
X209644000Y-99796142D01*
X209644000Y-96796142D01*
X210644000Y-96796142D01*
X210929714Y-96939000D01*
X211072571Y-97081857D01*
X211215428Y-97367571D01*
X211215428Y-97653285D01*
X211072571Y-97939000D01*
X210929714Y-98081857D01*
X210644000Y-98224714D01*
X209644000Y-98224714D01*
X213072571Y-99796142D02*
X212786857Y-99653285D01*
X212644000Y-99367571D01*
X212644000Y-96796142D01*
X215501142Y-97796142D02*
X215501142Y-99796142D01*
X214215428Y-97796142D02*
X214215428Y-99367571D01*
X214358285Y-99653285D01*
X214644000Y-99796142D01*
X215072571Y-99796142D01*
X215358285Y-99653285D01*
X215501142Y-99510428D01*
X218072571Y-99653285D02*
X217786857Y-99796142D01*
X217215428Y-99796142D01*
X216929714Y-99653285D01*
X216786857Y-99367571D01*
X216786857Y-98224714D01*
X216929714Y-97939000D01*
X217215428Y-97796142D01*
X217786857Y-97796142D01*
X218072571Y-97939000D01*
X218215428Y-98224714D01*
X218215428Y-98510428D01*
X216786857Y-98796142D01*
X219644000Y-99653285D02*
X219644000Y-99796142D01*
X219501142Y-100081857D01*
X219358285Y-100224714D01*
X223215428Y-99796142D02*
X223215428Y-96796142D01*
X223215428Y-97939000D02*
X223501142Y-97796142D01*
X224072571Y-97796142D01*
X224358285Y-97939000D01*
X224501142Y-98081857D01*
X224644000Y-98367571D01*
X224644000Y-99224714D01*
X224501142Y-99510428D01*
X224358285Y-99653285D01*
X224072571Y-99796142D01*
X223501142Y-99796142D01*
X223215428Y-99653285D01*
X226358285Y-99796142D02*
X226072571Y-99653285D01*
X225929714Y-99510428D01*
X225786857Y-99224714D01*
X225786857Y-98367571D01*
X225929714Y-98081857D01*
X226072571Y-97939000D01*
X226358285Y-97796142D01*
X226786857Y-97796142D01*
X227072571Y-97939000D01*
X227215428Y-98081857D01*
X227358285Y-98367571D01*
X227358285Y-99224714D01*
X227215428Y-99510428D01*
X227072571Y-99653285D01*
X226786857Y-99796142D01*
X226358285Y-99796142D01*
X228215428Y-97796142D02*
X229358285Y-97796142D01*
X228644000Y-96796142D02*
X228644000Y-99367571D01*
X228786857Y-99653285D01*
X229072571Y-99796142D01*
X229358285Y-99796142D01*
X230358285Y-99796142D02*
X230358285Y-96796142D01*
X231644000Y-99796142D02*
X231644000Y-98224714D01*
X231501142Y-97939000D01*
X231215428Y-97796142D01*
X230786857Y-97796142D01*
X230501142Y-97939000D01*
X230358285Y-98081857D01*
X235215428Y-99653285D02*
X235501142Y-99796142D01*
X236072571Y-99796142D01*
X236358285Y-99653285D01*
X236501142Y-99367571D01*
X236501142Y-99224714D01*
X236358285Y-98939000D01*
X236072571Y-98796142D01*
X235644000Y-98796142D01*
X235358285Y-98653285D01*
X235215428Y-98367571D01*
X235215428Y-98224714D01*
X235358285Y-97939000D01*
X235644000Y-97796142D01*
X236072571Y-97796142D01*
X236358285Y-97939000D01*
X237786857Y-99796142D02*
X237786857Y-97796142D01*
X237786857Y-96796142D02*
X237644000Y-96939000D01*
X237786857Y-97081857D01*
X237929714Y-96939000D01*
X237786857Y-96796142D01*
X237786857Y-97081857D01*
X240501142Y-99796142D02*
X240501142Y-96796142D01*
X240501142Y-99653285D02*
X240215428Y-99796142D01*
X239644000Y-99796142D01*
X239358285Y-99653285D01*
X239215428Y-99510428D01*
X239072571Y-99224714D01*
X239072571Y-98367571D01*
X239215428Y-98081857D01*
X239358285Y-97939000D01*
X239644000Y-97796142D01*
X240215428Y-97796142D01*
X240501142Y-97939000D01*
X243072571Y-99653285D02*
X242786857Y-99796142D01*
X242215428Y-99796142D01*
X241929714Y-99653285D01*
X241786857Y-99367571D01*
X241786857Y-98224714D01*
X241929714Y-97939000D01*
X242215428Y-97796142D01*
X242786857Y-97796142D01*
X243072571Y-97939000D01*
X243215428Y-98224714D01*
X243215428Y-98510428D01*
X241786857Y-98796142D01*
X244358285Y-99653285D02*
X244644000Y-99796142D01*
X245215428Y-99796142D01*
X245501142Y-99653285D01*
X245644000Y-99367571D01*
X245644000Y-99224714D01*
X245501142Y-98939000D01*
X245215428Y-98796142D01*
X244786857Y-98796142D01*
X244501142Y-98653285D01*
X244358285Y-98367571D01*
X244358285Y-98224714D01*
X244501142Y-97939000D01*
X244786857Y-97796142D01*
X245215428Y-97796142D01*
X245501142Y-97939000D01*
X177644000Y-101626142D02*
X177072571Y-101626142D01*
X176786857Y-101769000D01*
X176644000Y-101911857D01*
X176358285Y-102340428D01*
X176215428Y-102911857D01*
X176215428Y-104054714D01*
X176358285Y-104340428D01*
X176501142Y-104483285D01*
X176786857Y-104626142D01*
X177358285Y-104626142D01*
X177644000Y-104483285D01*
X177786857Y-104340428D01*
X177929714Y-104054714D01*
X177929714Y-103340428D01*
X177786857Y-103054714D01*
X177644000Y-102911857D01*
X177358285Y-102769000D01*
X176786857Y-102769000D01*
X176501142Y-102911857D01*
X176358285Y-103054714D01*
X176215428Y-103340428D01*
X179215428Y-104340428D02*
X179358285Y-104483285D01*
X179215428Y-104626142D01*
X179072571Y-104483285D01*
X179215428Y-104340428D01*
X179215428Y-104626142D01*
X183929714Y-103054714D02*
X182929714Y-103054714D01*
X182929714Y-104626142D02*
X182929714Y-101626142D01*
X184358285Y-101626142D01*
X185501142Y-104626142D02*
X185501142Y-102626142D01*
X185501142Y-101626142D02*
X185358285Y-101769000D01*
X185501142Y-101911857D01*
X185644000Y-101769000D01*
X185501142Y-101626142D01*
X185501142Y-101911857D01*
X186929714Y-102626142D02*
X186929714Y-104626142D01*
X186929714Y-102911857D02*
X187072571Y-102769000D01*
X187358285Y-102626142D01*
X187786857Y-102626142D01*
X188072571Y-102769000D01*
X188215428Y-103054714D01*
X188215428Y-104626142D01*
X189644000Y-104626142D02*
X189644000Y-102626142D01*
X189644000Y-101626142D02*
X189501142Y-101769000D01*
X189644000Y-101911857D01*
X189786857Y-101769000D01*
X189644000Y-101626142D01*
X189644000Y-101911857D01*
X190929714Y-104483285D02*
X191215428Y-104626142D01*
X191786857Y-104626142D01*
X192072571Y-104483285D01*
X192215428Y-104197571D01*
X192215428Y-104054714D01*
X192072571Y-103769000D01*
X191786857Y-103626142D01*
X191358285Y-103626142D01*
X191072571Y-103483285D01*
X190929714Y-103197571D01*
X190929714Y-103054714D01*
X191072571Y-102769000D01*
X191358285Y-102626142D01*
X191786857Y-102626142D01*
X192072571Y-102769000D01*
X193501142Y-104626142D02*
X193501142Y-101626142D01*
X194786857Y-104626142D02*
X194786857Y-103054714D01*
X194644000Y-102769000D01*
X194358285Y-102626142D01*
X193929714Y-102626142D01*
X193644000Y-102769000D01*
X193501142Y-102911857D01*
X196215428Y-104340428D02*
X196358285Y-104483285D01*
X196215428Y-104626142D01*
X196072571Y-104483285D01*
X196215428Y-104340428D01*
X196215428Y-104626142D01*
X196215428Y-102769000D02*
X196358285Y-102911857D01*
X196215428Y-103054714D01*
X196072571Y-102911857D01*
X196215428Y-102769000D01*
X196215428Y-103054714D01*
X199929714Y-103054714D02*
X200929714Y-103054714D01*
X201358285Y-104626142D02*
X199929714Y-104626142D01*
X199929714Y-101626142D01*
X201358285Y-101626142D01*
X202644000Y-104626142D02*
X202644000Y-101626142D01*
X204358285Y-104626142D01*
X204358285Y-101626142D01*
X205786857Y-104626142D02*
X205786857Y-101626142D01*
X208786857Y-101769000D02*
X208501142Y-101626142D01*
X208072571Y-101626142D01*
X207644000Y-101769000D01*
X207358285Y-102054714D01*
X207215428Y-102340428D01*
X207072571Y-102911857D01*
X207072571Y-103340428D01*
X207215428Y-103911857D01*
X207358285Y-104197571D01*
X207644000Y-104483285D01*
X208072571Y-104626142D01*
X208358285Y-104626142D01*
X208786857Y-104483285D01*
X208929714Y-104340428D01*
X208929714Y-103340428D01*
X208358285Y-103340428D01*
M02*
