%TF.GenerationSoftware,KiCad,Pcbnew,(6.0.7)*%
%TF.CreationDate,2024-01-22T09:58:03-08:00*%
%TF.ProjectId,Blinky,426c696e-6b79-42e6-9b69-6361645f7063,rev?*%
%TF.SameCoordinates,Original*%
%TF.FileFunction,Legend,Bot*%
%TF.FilePolarity,Positive*%
%FSLAX46Y46*%
G04 Gerber Fmt 4.6, Leading zero omitted, Abs format (unit mm)*
G04 Created by KiCad (PCBNEW (6.0.7)) date 2024-01-22 09:58:03*
%MOMM*%
%LPD*%
G01*
G04 APERTURE LIST*
G04 Aperture macros list*
%AMRoundRect*
0 Rectangle with rounded corners*
0 $1 Rounding radius*
0 $2 $3 $4 $5 $6 $7 $8 $9 X,Y pos of 4 corners*
0 Add a 4 corners polygon primitive as box body*
4,1,4,$2,$3,$4,$5,$6,$7,$8,$9,$2,$3,0*
0 Add four circle primitives for the rounded corners*
1,1,$1+$1,$2,$3*
1,1,$1+$1,$4,$5*
1,1,$1+$1,$6,$7*
1,1,$1+$1,$8,$9*
0 Add four rect primitives between the rounded corners*
20,1,$1+$1,$2,$3,$4,$5,0*
20,1,$1+$1,$4,$5,$6,$7,0*
20,1,$1+$1,$6,$7,$8,$9,0*
20,1,$1+$1,$8,$9,$2,$3,0*%
G04 Aperture macros list end*
%ADD10C,0.177800*%
%ADD11C,0.152400*%
%ADD12C,0.150000*%
%ADD13C,0.254000*%
%ADD14C,0.120000*%
%ADD15C,0.010000*%
%ADD16RoundRect,0.050000X-0.900000X0.900000X-0.900000X-0.900000X0.900000X-0.900000X0.900000X0.900000X0*%
%ADD17C,1.900000*%
%ADD18C,1.117600*%
%ADD19O,2.600000X4.100000*%
%ADD20C,17.372000*%
%ADD21C,2.100000*%
G04 APERTURE END LIST*
D10*
X144953049Y-88817364D02*
X143985430Y-88817364D01*
X144469239Y-89301173D02*
X144469239Y-88333554D01*
X141808287Y-89301173D02*
X142413049Y-89301173D01*
X142413049Y-88031173D01*
X141143049Y-88031173D02*
X140901144Y-88031173D01*
X140780191Y-88091650D01*
X140659239Y-88212602D01*
X140598763Y-88454507D01*
X140598763Y-88877840D01*
X140659239Y-89119745D01*
X140780191Y-89240697D01*
X140901144Y-89301173D01*
X141143049Y-89301173D01*
X141264001Y-89240697D01*
X141384953Y-89119745D01*
X141445430Y-88877840D01*
X141445430Y-88454507D01*
X141384953Y-88212602D01*
X141264001Y-88091650D01*
X141143049Y-88031173D01*
X140054477Y-89301173D02*
X140054477Y-88031173D01*
X139328763Y-89301173D01*
X139328763Y-88031173D01*
X138058763Y-88091650D02*
X138179715Y-88031173D01*
X138361144Y-88031173D01*
X138542572Y-88091650D01*
X138663525Y-88212602D01*
X138724001Y-88333554D01*
X138784477Y-88575459D01*
X138784477Y-88756888D01*
X138724001Y-88998792D01*
X138663525Y-89119745D01*
X138542572Y-89240697D01*
X138361144Y-89301173D01*
X138240191Y-89301173D01*
X138058763Y-89240697D01*
X137998287Y-89180221D01*
X137998287Y-88756888D01*
X138240191Y-88756888D01*
X144953049Y-90862064D02*
X143985430Y-90862064D01*
X142473525Y-91285397D02*
X142292096Y-91345873D01*
X141989715Y-91345873D01*
X141868763Y-91285397D01*
X141808287Y-91224921D01*
X141747810Y-91103969D01*
X141747810Y-90983016D01*
X141808287Y-90862064D01*
X141868763Y-90801588D01*
X141989715Y-90741111D01*
X142231620Y-90680635D01*
X142352572Y-90620159D01*
X142413049Y-90559683D01*
X142473525Y-90438730D01*
X142473525Y-90317778D01*
X142413049Y-90196826D01*
X142352572Y-90136350D01*
X142231620Y-90075873D01*
X141929239Y-90075873D01*
X141747810Y-90136350D01*
X141203525Y-91345873D02*
X141203525Y-90075873D01*
X141203525Y-90680635D02*
X140477810Y-90680635D01*
X140477810Y-91345873D02*
X140477810Y-90075873D01*
X139631144Y-90075873D02*
X139389239Y-90075873D01*
X139268287Y-90136350D01*
X139147334Y-90257302D01*
X139086858Y-90499207D01*
X139086858Y-90922540D01*
X139147334Y-91164445D01*
X139268287Y-91285397D01*
X139389239Y-91345873D01*
X139631144Y-91345873D01*
X139752096Y-91285397D01*
X139873049Y-91164445D01*
X139933525Y-90922540D01*
X139933525Y-90499207D01*
X139873049Y-90257302D01*
X139752096Y-90136350D01*
X139631144Y-90075873D01*
X137816858Y-91345873D02*
X138240191Y-90741111D01*
X138542572Y-91345873D02*
X138542572Y-90075873D01*
X138058763Y-90075873D01*
X137937810Y-90136350D01*
X137877334Y-90196826D01*
X137816858Y-90317778D01*
X137816858Y-90499207D01*
X137877334Y-90620159D01*
X137937810Y-90680635D01*
X138058763Y-90741111D01*
X138542572Y-90741111D01*
X137454001Y-90075873D02*
X136728287Y-90075873D01*
X137091144Y-91345873D02*
X137091144Y-90075873D01*
D11*
X165406097Y-83557681D02*
X165230705Y-83475894D01*
X165122562Y-83478849D01*
X164993973Y-83525651D01*
X164868338Y-83680597D01*
X164725211Y-83987533D01*
X164687273Y-84183372D01*
X164734075Y-84311961D01*
X164801325Y-84396703D01*
X164976717Y-84478489D01*
X165084860Y-84475535D01*
X165213449Y-84428732D01*
X165339084Y-84273786D01*
X165482210Y-83966850D01*
X165520149Y-83771011D01*
X165473346Y-83642422D01*
X165406097Y-83557681D01*
X164105429Y-83484994D02*
X164412366Y-83628121D01*
X164187452Y-84110449D02*
X164616832Y-83189640D01*
X164178352Y-82985174D01*
X163316165Y-83116954D02*
X163623101Y-83260081D01*
X163398188Y-83742409D02*
X163827568Y-82821600D01*
X163389087Y-82617134D01*
D10*
X150251428Y-98212642D02*
X149380571Y-98212642D01*
X149816000Y-98648071D02*
X149816000Y-97777214D01*
D11*
X158114161Y-97130554D02*
X157938769Y-97048767D01*
X157830626Y-97051722D01*
X157702036Y-97098525D01*
X157576402Y-97253470D01*
X157433275Y-97560406D01*
X157395336Y-97756245D01*
X157442139Y-97884835D01*
X157509388Y-97969576D01*
X157684781Y-98051363D01*
X157792923Y-98048408D01*
X157921513Y-98001605D01*
X158047147Y-97846660D01*
X158190274Y-97539723D01*
X158228213Y-97343885D01*
X158181410Y-97215295D01*
X158114161Y-97130554D01*
X156895516Y-97683322D02*
X157324896Y-96762514D01*
X156369340Y-97437962D01*
X156798720Y-96517154D01*
D10*
X140218428Y-105021642D02*
X139347571Y-105021642D01*
X139783000Y-105457071D02*
X139783000Y-104586214D01*
X127391428Y-98339642D02*
X126520571Y-98339642D01*
X126956000Y-98775071D02*
X126956000Y-97904214D01*
X140345428Y-97401642D02*
X139474571Y-97401642D01*
X150251428Y-90592642D02*
X149380571Y-90592642D01*
X127391428Y-90465642D02*
X126520571Y-90465642D01*
D12*
%TO.C,*%
%TO.C,BT1*%
X130325714Y-82732571D02*
X130182857Y-82780190D01*
X130135238Y-82827809D01*
X130087619Y-82923047D01*
X130087619Y-83065904D01*
X130135238Y-83161142D01*
X130182857Y-83208761D01*
X130278095Y-83256380D01*
X130659047Y-83256380D01*
X130659047Y-82256380D01*
X130325714Y-82256380D01*
X130230476Y-82304000D01*
X130182857Y-82351619D01*
X130135238Y-82446857D01*
X130135238Y-82542095D01*
X130182857Y-82637333D01*
X130230476Y-82684952D01*
X130325714Y-82732571D01*
X130659047Y-82732571D01*
X129801904Y-82256380D02*
X129230476Y-82256380D01*
X129516190Y-83256380D02*
X129516190Y-82256380D01*
X128373333Y-83256380D02*
X128944761Y-83256380D01*
X128659047Y-83256380D02*
X128659047Y-82256380D01*
X128754285Y-82399238D01*
X128849523Y-82494476D01*
X128944761Y-82542095D01*
X154316571Y-65198571D02*
X154364190Y-65341428D01*
X154411809Y-65389047D01*
X154507047Y-65436666D01*
X154649904Y-65436666D01*
X154745142Y-65389047D01*
X154792761Y-65341428D01*
X154840380Y-65246190D01*
X154840380Y-64865238D01*
X153840380Y-64865238D01*
X153840380Y-65198571D01*
X153888000Y-65293809D01*
X153935619Y-65341428D01*
X154030857Y-65389047D01*
X154126095Y-65389047D01*
X154221333Y-65341428D01*
X154268952Y-65293809D01*
X154316571Y-65198571D01*
X154316571Y-64865238D01*
X154840380Y-66293809D02*
X154316571Y-66293809D01*
X154221333Y-66246190D01*
X154173714Y-66150952D01*
X154173714Y-65960476D01*
X154221333Y-65865238D01*
X154792761Y-66293809D02*
X154840380Y-66198571D01*
X154840380Y-65960476D01*
X154792761Y-65865238D01*
X154697523Y-65817619D01*
X154602285Y-65817619D01*
X154507047Y-65865238D01*
X154459428Y-65960476D01*
X154459428Y-66198571D01*
X154411809Y-66293809D01*
X154173714Y-66627142D02*
X154173714Y-67008095D01*
X153840380Y-66770000D02*
X154697523Y-66770000D01*
X154792761Y-66817619D01*
X154840380Y-66912857D01*
X154840380Y-67008095D01*
X154173714Y-67198571D02*
X154173714Y-67579523D01*
X153840380Y-67341428D02*
X154697523Y-67341428D01*
X154792761Y-67389047D01*
X154840380Y-67484285D01*
X154840380Y-67579523D01*
X154792761Y-68293809D02*
X154840380Y-68198571D01*
X154840380Y-68008095D01*
X154792761Y-67912857D01*
X154697523Y-67865238D01*
X154316571Y-67865238D01*
X154221333Y-67912857D01*
X154173714Y-68008095D01*
X154173714Y-68198571D01*
X154221333Y-68293809D01*
X154316571Y-68341428D01*
X154411809Y-68341428D01*
X154507047Y-67865238D01*
X154840380Y-68770000D02*
X154173714Y-68770000D01*
X154364190Y-68770000D02*
X154268952Y-68817619D01*
X154221333Y-68865238D01*
X154173714Y-68960476D01*
X154173714Y-69055714D01*
X154173714Y-69293809D02*
X154840380Y-69531904D01*
X154173714Y-69770000D02*
X154840380Y-69531904D01*
X155078476Y-69436666D01*
X155126095Y-69389047D01*
X155173714Y-69293809D01*
%TO.C,SW1*%
X160293334Y-83676761D02*
X160150477Y-83724380D01*
X159912381Y-83724380D01*
X159817143Y-83676761D01*
X159769524Y-83629142D01*
X159721905Y-83533904D01*
X159721905Y-83438666D01*
X159769524Y-83343428D01*
X159817143Y-83295809D01*
X159912381Y-83248190D01*
X160102858Y-83200571D01*
X160198096Y-83152952D01*
X160245715Y-83105333D01*
X160293334Y-83010095D01*
X160293334Y-82914857D01*
X160245715Y-82819619D01*
X160198096Y-82772000D01*
X160102858Y-82724380D01*
X159864762Y-82724380D01*
X159721905Y-82772000D01*
X159388572Y-82724380D02*
X159150477Y-83724380D01*
X158960001Y-83010095D01*
X158769524Y-83724380D01*
X158531429Y-82724380D01*
X157626667Y-83724380D02*
X158198096Y-83724380D01*
X157912381Y-83724380D02*
X157912381Y-82724380D01*
X158007620Y-82867238D01*
X158102858Y-82962476D01*
X158198096Y-83010095D01*
%TO.C,*%
D13*
%TO.C,BT1*%
X147148000Y-84878000D02*
X134702000Y-84878000D01*
X153244000Y-63796000D02*
X153244000Y-79290000D01*
X147148000Y-84878000D02*
X153244000Y-79290000D01*
X128352000Y-63796000D02*
X128352000Y-79290000D01*
X134702000Y-84878000D02*
X128352000Y-79290000D01*
X153244000Y-63796000D02*
X128352000Y-63796000D01*
D14*
%TO.C,SW1*%
X156290229Y-95064881D02*
X161446172Y-84007926D01*
X161446172Y-84007926D02*
X166521495Y-86374588D01*
X166521495Y-86374588D02*
X161365553Y-97431543D01*
X161365553Y-97431543D02*
X156290229Y-95064881D01*
%TO.C,G\u002A\u002A\u002A*%
G36*
X119692076Y-80803437D02*
G01*
X119696931Y-80975092D01*
X119698978Y-81100981D01*
X119695587Y-81182728D01*
X119684355Y-81230205D01*
X119662882Y-81253283D01*
X119628766Y-81261833D01*
X119579604Y-81265729D01*
X119463000Y-81275583D01*
X119463000Y-80827250D01*
X117812000Y-80827250D01*
X117812000Y-80478000D01*
X119683028Y-80478000D01*
X119692076Y-80803437D01*
G37*
D15*
X119692076Y-80803437D02*
X119696931Y-80975092D01*
X119698978Y-81100981D01*
X119695587Y-81182728D01*
X119684355Y-81230205D01*
X119662882Y-81253283D01*
X119628766Y-81261833D01*
X119579604Y-81265729D01*
X119463000Y-81275583D01*
X119463000Y-80827250D01*
X117812000Y-80827250D01*
X117812000Y-80478000D01*
X119683028Y-80478000D01*
X119692076Y-80803437D01*
G36*
X120899687Y-80888183D02*
G01*
X121054666Y-80888476D01*
X121229651Y-80888870D01*
X121377354Y-80889270D01*
X121485703Y-80889643D01*
X121542625Y-80889956D01*
X121589067Y-80895581D01*
X121615990Y-80926610D01*
X121622000Y-81001875D01*
X121622000Y-81113000D01*
X120316416Y-81113000D01*
X120326270Y-81000101D01*
X120336125Y-80887203D01*
X120899687Y-80888183D01*
G37*
X120899687Y-80888183D02*
X121054666Y-80888476D01*
X121229651Y-80888870D01*
X121377354Y-80889270D01*
X121485703Y-80889643D01*
X121542625Y-80889956D01*
X121589067Y-80895581D01*
X121615990Y-80926610D01*
X121622000Y-81001875D01*
X121622000Y-81113000D01*
X120316416Y-81113000D01*
X120326270Y-81000101D01*
X120336125Y-80887203D01*
X120899687Y-80888183D01*
G36*
X118811803Y-83748288D02*
G01*
X119043318Y-83749007D01*
X119251378Y-83750545D01*
X119427975Y-83752782D01*
X119565098Y-83755596D01*
X119654740Y-83758867D01*
X119688892Y-83762475D01*
X119691722Y-83768769D01*
X119695377Y-83821417D01*
X119690848Y-83905350D01*
X119678580Y-84034000D01*
X119245352Y-84037364D01*
X119213623Y-84037592D01*
X119047152Y-84038222D01*
X118898782Y-84037897D01*
X118783646Y-84036694D01*
X118716875Y-84034688D01*
X118680877Y-84033571D01*
X118649981Y-84039564D01*
X118658902Y-84057275D01*
X118711540Y-84088892D01*
X118811798Y-84136599D01*
X118963576Y-84202583D01*
X119170776Y-84289030D01*
X119286033Y-84337281D01*
X119436348Y-84402603D01*
X119558616Y-84458604D01*
X119642537Y-84500521D01*
X119677811Y-84523587D01*
X119692434Y-84567835D01*
X119701429Y-84645187D01*
X119703663Y-84732500D01*
X117812000Y-84732500D01*
X117812000Y-84446750D01*
X118327937Y-84446096D01*
X118843875Y-84445442D01*
X117811999Y-83994570D01*
X117812000Y-83871410D01*
X117812000Y-83748250D01*
X118743333Y-83748250D01*
X118811803Y-83748288D01*
G37*
X118811803Y-83748288D02*
X119043318Y-83749007D01*
X119251378Y-83750545D01*
X119427975Y-83752782D01*
X119565098Y-83755596D01*
X119654740Y-83758867D01*
X119688892Y-83762475D01*
X119691722Y-83768769D01*
X119695377Y-83821417D01*
X119690848Y-83905350D01*
X119678580Y-84034000D01*
X119245352Y-84037364D01*
X119213623Y-84037592D01*
X119047152Y-84038222D01*
X118898782Y-84037897D01*
X118783646Y-84036694D01*
X118716875Y-84034688D01*
X118680877Y-84033571D01*
X118649981Y-84039564D01*
X118658902Y-84057275D01*
X118711540Y-84088892D01*
X118811798Y-84136599D01*
X118963576Y-84202583D01*
X119170776Y-84289030D01*
X119286033Y-84337281D01*
X119436348Y-84402603D01*
X119558616Y-84458604D01*
X119642537Y-84500521D01*
X119677811Y-84523587D01*
X119692434Y-84567835D01*
X119701429Y-84645187D01*
X119703663Y-84732500D01*
X117812000Y-84732500D01*
X117812000Y-84446750D01*
X118327937Y-84446096D01*
X118843875Y-84445442D01*
X117811999Y-83994570D01*
X117812000Y-83871410D01*
X117812000Y-83748250D01*
X118743333Y-83748250D01*
X118811803Y-83748288D01*
G36*
X118966317Y-87352344D02*
G01*
X119132060Y-87354326D01*
X119253735Y-87358664D01*
X119341091Y-87366202D01*
X119403878Y-87377784D01*
X119451848Y-87394253D01*
X119494750Y-87416455D01*
X119506021Y-87423386D01*
X119594995Y-87500187D01*
X119661388Y-87591080D01*
X119673401Y-87617347D01*
X119710749Y-87760873D01*
X119718107Y-87921389D01*
X119696125Y-88074242D01*
X119645454Y-88194775D01*
X119622111Y-88228436D01*
X119565592Y-88297695D01*
X119503020Y-88349248D01*
X119424827Y-88385666D01*
X119321446Y-88409518D01*
X119183310Y-88423373D01*
X119000850Y-88429803D01*
X118764500Y-88431375D01*
X118649371Y-88431229D01*
X118465899Y-88429742D01*
X118330036Y-88425876D01*
X118231256Y-88418695D01*
X118159035Y-88407260D01*
X118102849Y-88390632D01*
X118052173Y-88367875D01*
X118007350Y-88343216D01*
X117893767Y-88250221D01*
X117824396Y-88127719D01*
X117790042Y-87961459D01*
X117786160Y-87886871D01*
X118043333Y-87886871D01*
X118079106Y-87987106D01*
X118130963Y-88066250D01*
X118744436Y-88066250D01*
X118920522Y-88065948D01*
X119090322Y-88064301D01*
X119212851Y-88060510D01*
X119297118Y-88053788D01*
X119352134Y-88043351D01*
X119386909Y-88028412D01*
X119410454Y-88008187D01*
X119440983Y-87964604D01*
X119459790Y-87864757D01*
X119417995Y-87762755D01*
X119405513Y-87747957D01*
X119378752Y-87729486D01*
X119335176Y-87716079D01*
X119265451Y-87706643D01*
X119160237Y-87700089D01*
X119010199Y-87695326D01*
X118805999Y-87691262D01*
X118694913Y-87689851D01*
X118497514Y-87690275D01*
X118335151Y-87694652D01*
X118217288Y-87702654D01*
X118153391Y-87713952D01*
X118128370Y-87725572D01*
X118061335Y-87793881D01*
X118043333Y-87886871D01*
X117786160Y-87886871D01*
X117785148Y-87867429D01*
X117809673Y-87682243D01*
X117880954Y-87532647D01*
X117996705Y-87424577D01*
X118012519Y-87414908D01*
X118054654Y-87392496D01*
X118101455Y-87376134D01*
X118162725Y-87364872D01*
X118248271Y-87357763D01*
X118367900Y-87353860D01*
X118531415Y-87352213D01*
X118694913Y-87351958D01*
X118748625Y-87351875D01*
X118966317Y-87352344D01*
G37*
X118966317Y-87352344D02*
X119132060Y-87354326D01*
X119253735Y-87358664D01*
X119341091Y-87366202D01*
X119403878Y-87377784D01*
X119451848Y-87394253D01*
X119494750Y-87416455D01*
X119506021Y-87423386D01*
X119594995Y-87500187D01*
X119661388Y-87591080D01*
X119673401Y-87617347D01*
X119710749Y-87760873D01*
X119718107Y-87921389D01*
X119696125Y-88074242D01*
X119645454Y-88194775D01*
X119622111Y-88228436D01*
X119565592Y-88297695D01*
X119503020Y-88349248D01*
X119424827Y-88385666D01*
X119321446Y-88409518D01*
X119183310Y-88423373D01*
X119000850Y-88429803D01*
X118764500Y-88431375D01*
X118649371Y-88431229D01*
X118465899Y-88429742D01*
X118330036Y-88425876D01*
X118231256Y-88418695D01*
X118159035Y-88407260D01*
X118102849Y-88390632D01*
X118052173Y-88367875D01*
X118007350Y-88343216D01*
X117893767Y-88250221D01*
X117824396Y-88127719D01*
X117790042Y-87961459D01*
X117786160Y-87886871D01*
X118043333Y-87886871D01*
X118079106Y-87987106D01*
X118130963Y-88066250D01*
X118744436Y-88066250D01*
X118920522Y-88065948D01*
X119090322Y-88064301D01*
X119212851Y-88060510D01*
X119297118Y-88053788D01*
X119352134Y-88043351D01*
X119386909Y-88028412D01*
X119410454Y-88008187D01*
X119440983Y-87964604D01*
X119459790Y-87864757D01*
X119417995Y-87762755D01*
X119405513Y-87747957D01*
X119378752Y-87729486D01*
X119335176Y-87716079D01*
X119265451Y-87706643D01*
X119160237Y-87700089D01*
X119010199Y-87695326D01*
X118805999Y-87691262D01*
X118694913Y-87689851D01*
X118497514Y-87690275D01*
X118335151Y-87694652D01*
X118217288Y-87702654D01*
X118153391Y-87713952D01*
X118128370Y-87725572D01*
X118061335Y-87793881D01*
X118043333Y-87886871D01*
X117786160Y-87886871D01*
X117785148Y-87867429D01*
X117809673Y-87682243D01*
X117880954Y-87532647D01*
X117996705Y-87424577D01*
X118012519Y-87414908D01*
X118054654Y-87392496D01*
X118101455Y-87376134D01*
X118162725Y-87364872D01*
X118248271Y-87357763D01*
X118367900Y-87353860D01*
X118531415Y-87352213D01*
X118694913Y-87351958D01*
X118748625Y-87351875D01*
X118966317Y-87352344D01*
G36*
X116757862Y-74020253D02*
G01*
X116774378Y-74076486D01*
X116793747Y-74163302D01*
X116794273Y-74165996D01*
X116805844Y-74273632D01*
X116807504Y-74405498D01*
X116800389Y-74539718D01*
X116785638Y-74654417D01*
X116764389Y-74727719D01*
X116756677Y-74736437D01*
X116740230Y-74716435D01*
X116726252Y-74651658D01*
X116715894Y-74555110D01*
X116710308Y-74439797D01*
X116710646Y-74318722D01*
X116718062Y-74204891D01*
X116730916Y-74102992D01*
X116743556Y-74033004D01*
X116753134Y-74011051D01*
X116757862Y-74020253D01*
G37*
X116757862Y-74020253D02*
X116774378Y-74076486D01*
X116793747Y-74163302D01*
X116794273Y-74165996D01*
X116805844Y-74273632D01*
X116807504Y-74405498D01*
X116800389Y-74539718D01*
X116785638Y-74654417D01*
X116764389Y-74727719D01*
X116756677Y-74736437D01*
X116740230Y-74716435D01*
X116726252Y-74651658D01*
X116715894Y-74555110D01*
X116710308Y-74439797D01*
X116710646Y-74318722D01*
X116718062Y-74204891D01*
X116730916Y-74102992D01*
X116743556Y-74033004D01*
X116753134Y-74011051D01*
X116757862Y-74020253D01*
G36*
X120699528Y-87752040D02*
G01*
X120756367Y-87767298D01*
X120815787Y-87802846D01*
X120891775Y-87867005D01*
X120998321Y-87968096D01*
X121104043Y-88068197D01*
X121188307Y-88139767D01*
X121252813Y-88179996D01*
X121310058Y-88196529D01*
X121372540Y-88197011D01*
X121401870Y-88191237D01*
X121442236Y-88154399D01*
X121444003Y-88098038D01*
X121413570Y-88038073D01*
X121357333Y-87990421D01*
X121281692Y-87971000D01*
X121239184Y-87966899D01*
X121214369Y-87938912D01*
X121215175Y-87867812D01*
X121220537Y-87828956D01*
X121246584Y-87775248D01*
X121304500Y-87756033D01*
X121360752Y-87758485D01*
X121468778Y-87800964D01*
X121562100Y-87879341D01*
X121618238Y-87977728D01*
X121626783Y-88011533D01*
X121632951Y-88158932D01*
X121589896Y-88286413D01*
X121503804Y-88382080D01*
X121380866Y-88434034D01*
X121291514Y-88441338D01*
X121158774Y-88411829D01*
X121025467Y-88329189D01*
X120883396Y-88189387D01*
X120774664Y-88076025D01*
X120674341Y-88000024D01*
X120593074Y-87976521D01*
X120526212Y-88003092D01*
X120513856Y-88014294D01*
X120478409Y-88081697D01*
X120500548Y-88143508D01*
X120576186Y-88184868D01*
X120580706Y-88186064D01*
X120645707Y-88210260D01*
X120671436Y-88233400D01*
X120670207Y-88266357D01*
X120669500Y-88336125D01*
X120669415Y-88343432D01*
X120653046Y-88400190D01*
X120598062Y-88415381D01*
X120551693Y-88410284D01*
X120443391Y-88365039D01*
X120353412Y-88286940D01*
X120304337Y-88193077D01*
X120291989Y-88106362D01*
X120308243Y-87960005D01*
X120373204Y-87847129D01*
X120481946Y-87774466D01*
X120629540Y-87748750D01*
X120631278Y-87748750D01*
X120699528Y-87752040D01*
G37*
X120699528Y-87752040D02*
X120756367Y-87767298D01*
X120815787Y-87802846D01*
X120891775Y-87867005D01*
X120998321Y-87968096D01*
X121104043Y-88068197D01*
X121188307Y-88139767D01*
X121252813Y-88179996D01*
X121310058Y-88196529D01*
X121372540Y-88197011D01*
X121401870Y-88191237D01*
X121442236Y-88154399D01*
X121444003Y-88098038D01*
X121413570Y-88038073D01*
X121357333Y-87990421D01*
X121281692Y-87971000D01*
X121239184Y-87966899D01*
X121214369Y-87938912D01*
X121215175Y-87867812D01*
X121220537Y-87828956D01*
X121246584Y-87775248D01*
X121304500Y-87756033D01*
X121360752Y-87758485D01*
X121468778Y-87800964D01*
X121562100Y-87879341D01*
X121618238Y-87977728D01*
X121626783Y-88011533D01*
X121632951Y-88158932D01*
X121589896Y-88286413D01*
X121503804Y-88382080D01*
X121380866Y-88434034D01*
X121291514Y-88441338D01*
X121158774Y-88411829D01*
X121025467Y-88329189D01*
X120883396Y-88189387D01*
X120774664Y-88076025D01*
X120674341Y-88000024D01*
X120593074Y-87976521D01*
X120526212Y-88003092D01*
X120513856Y-88014294D01*
X120478409Y-88081697D01*
X120500548Y-88143508D01*
X120576186Y-88184868D01*
X120580706Y-88186064D01*
X120645707Y-88210260D01*
X120671436Y-88233400D01*
X120670207Y-88266357D01*
X120669500Y-88336125D01*
X120669415Y-88343432D01*
X120653046Y-88400190D01*
X120598062Y-88415381D01*
X120551693Y-88410284D01*
X120443391Y-88365039D01*
X120353412Y-88286940D01*
X120304337Y-88193077D01*
X120291989Y-88106362D01*
X120308243Y-87960005D01*
X120373204Y-87847129D01*
X120481946Y-87774466D01*
X120629540Y-87748750D01*
X120631278Y-87748750D01*
X120699528Y-87752040D01*
G36*
X121021293Y-89114000D02*
G01*
X121043088Y-89247701D01*
X121060754Y-89361396D01*
X121069948Y-89446058D01*
X121070704Y-89519974D01*
X121063055Y-89601432D01*
X121047036Y-89708719D01*
X121022680Y-89860125D01*
X120967222Y-90209375D01*
X120911237Y-89852187D01*
X120899047Y-89773413D01*
X120879880Y-89633697D01*
X120871530Y-89523234D01*
X120874003Y-89419069D01*
X120887306Y-89298247D01*
X120911446Y-89137812D01*
X120967640Y-88780625D01*
X121021293Y-89114000D01*
G37*
X121021293Y-89114000D02*
X121043088Y-89247701D01*
X121060754Y-89361396D01*
X121069948Y-89446058D01*
X121070704Y-89519974D01*
X121063055Y-89601432D01*
X121047036Y-89708719D01*
X121022680Y-89860125D01*
X120967222Y-90209375D01*
X120911237Y-89852187D01*
X120899047Y-89773413D01*
X120879880Y-89633697D01*
X120871530Y-89523234D01*
X120874003Y-89419069D01*
X120887306Y-89298247D01*
X120911446Y-89137812D01*
X120967640Y-88780625D01*
X121021293Y-89114000D01*
G36*
X116032362Y-74574397D02*
G01*
X116096752Y-74598943D01*
X116184070Y-74634483D01*
X116247016Y-74667061D01*
X116308437Y-74709398D01*
X116391175Y-74774217D01*
X116430603Y-74806794D01*
X116483065Y-74856068D01*
X116498537Y-74880545D01*
X116465112Y-74882956D01*
X116390302Y-74859623D01*
X116291217Y-74815701D01*
X116183251Y-74758771D01*
X116081797Y-74696411D01*
X116002250Y-74636200D01*
X115859375Y-74508755D01*
X116032362Y-74574397D01*
G37*
X116032362Y-74574397D02*
X116096752Y-74598943D01*
X116184070Y-74634483D01*
X116247016Y-74667061D01*
X116308437Y-74709398D01*
X116391175Y-74774217D01*
X116430603Y-74806794D01*
X116483065Y-74856068D01*
X116498537Y-74880545D01*
X116465112Y-74882956D01*
X116390302Y-74859623D01*
X116291217Y-74815701D01*
X116183251Y-74758771D01*
X116081797Y-74696411D01*
X116002250Y-74636200D01*
X115859375Y-74508755D01*
X116032362Y-74574397D01*
G36*
X119371052Y-79196928D02*
G01*
X119510990Y-79169756D01*
X119605246Y-79152135D01*
X119645562Y-79145689D01*
X119654667Y-79147727D01*
X119677626Y-79193856D01*
X119685250Y-79301110D01*
X119683157Y-79385706D01*
X119668495Y-79439214D01*
X119628686Y-79471270D01*
X119551150Y-79491972D01*
X119423312Y-79511421D01*
X119272500Y-79532710D01*
X119272500Y-79867539D01*
X119423312Y-79889298D01*
X119467482Y-79895900D01*
X119568176Y-79912509D01*
X119637625Y-79926075D01*
X119650707Y-79929706D01*
X119681935Y-79952108D01*
X119693308Y-80002550D01*
X119690123Y-80098421D01*
X119684842Y-80154344D01*
X119672241Y-80226805D01*
X119658373Y-80254725D01*
X119655077Y-80254266D01*
X119605495Y-80245005D01*
X119503642Y-80225060D01*
X119357480Y-80196019D01*
X119174969Y-80159468D01*
X118964072Y-80116994D01*
X118732750Y-80070186D01*
X117827875Y-79886670D01*
X117827875Y-79696940D01*
X118304125Y-79696940D01*
X118605750Y-79752493D01*
X118678713Y-79765606D01*
X118811098Y-79787735D01*
X118917130Y-79803335D01*
X118978812Y-79809648D01*
X119017602Y-79805777D01*
X119044025Y-79775498D01*
X119050250Y-79700125D01*
X119050258Y-79669617D01*
X119046355Y-79628236D01*
X119029015Y-79603411D01*
X118988380Y-79593806D01*
X118914592Y-79598088D01*
X118797794Y-79614920D01*
X118628127Y-79642970D01*
X118304125Y-79696940D01*
X117827875Y-79696940D01*
X117827875Y-79509625D01*
X118716875Y-79328252D01*
X118759717Y-79319519D01*
X118987158Y-79273433D01*
X118988380Y-79273188D01*
X119193689Y-79232028D01*
X119371052Y-79196928D01*
G37*
X119371052Y-79196928D02*
X119510990Y-79169756D01*
X119605246Y-79152135D01*
X119645562Y-79145689D01*
X119654667Y-79147727D01*
X119677626Y-79193856D01*
X119685250Y-79301110D01*
X119683157Y-79385706D01*
X119668495Y-79439214D01*
X119628686Y-79471270D01*
X119551150Y-79491972D01*
X119423312Y-79511421D01*
X119272500Y-79532710D01*
X119272500Y-79867539D01*
X119423312Y-79889298D01*
X119467482Y-79895900D01*
X119568176Y-79912509D01*
X119637625Y-79926075D01*
X119650707Y-79929706D01*
X119681935Y-79952108D01*
X119693308Y-80002550D01*
X119690123Y-80098421D01*
X119684842Y-80154344D01*
X119672241Y-80226805D01*
X119658373Y-80254725D01*
X119655077Y-80254266D01*
X119605495Y-80245005D01*
X119503642Y-80225060D01*
X119357480Y-80196019D01*
X119174969Y-80159468D01*
X118964072Y-80116994D01*
X118732750Y-80070186D01*
X117827875Y-79886670D01*
X117827875Y-79696940D01*
X118304125Y-79696940D01*
X118605750Y-79752493D01*
X118678713Y-79765606D01*
X118811098Y-79787735D01*
X118917130Y-79803335D01*
X118978812Y-79809648D01*
X119017602Y-79805777D01*
X119044025Y-79775498D01*
X119050250Y-79700125D01*
X119050258Y-79669617D01*
X119046355Y-79628236D01*
X119029015Y-79603411D01*
X118988380Y-79593806D01*
X118914592Y-79598088D01*
X118797794Y-79614920D01*
X118628127Y-79642970D01*
X118304125Y-79696940D01*
X117827875Y-79696940D01*
X117827875Y-79509625D01*
X118716875Y-79328252D01*
X118759717Y-79319519D01*
X118987158Y-79273433D01*
X118988380Y-79273188D01*
X119193689Y-79232028D01*
X119371052Y-79196928D01*
G36*
X117029048Y-75176917D02*
G01*
X117118458Y-75201988D01*
X117234997Y-75252778D01*
X117359294Y-75320051D01*
X117471977Y-75394569D01*
X117531673Y-75441287D01*
X117585807Y-75494002D01*
X117584783Y-75515624D01*
X117529063Y-75505557D01*
X117419104Y-75463205D01*
X117388173Y-75448964D01*
X117299947Y-75401183D01*
X117205864Y-75342876D01*
X117118028Y-75282611D01*
X117048543Y-75228956D01*
X117009513Y-75190479D01*
X117013041Y-75175750D01*
X117029048Y-75176917D01*
G37*
X117029048Y-75176917D02*
X117118458Y-75201988D01*
X117234997Y-75252778D01*
X117359294Y-75320051D01*
X117471977Y-75394569D01*
X117531673Y-75441287D01*
X117585807Y-75494002D01*
X117584783Y-75515624D01*
X117529063Y-75505557D01*
X117419104Y-75463205D01*
X117388173Y-75448964D01*
X117299947Y-75401183D01*
X117205864Y-75342876D01*
X117118028Y-75282611D01*
X117048543Y-75228956D01*
X117009513Y-75190479D01*
X117013041Y-75175750D01*
X117029048Y-75176917D01*
G36*
X116504389Y-75180307D02*
G01*
X116498997Y-75200323D01*
X116452385Y-75242452D01*
X116358771Y-75313287D01*
X116300700Y-75352544D01*
X116164422Y-75429910D01*
X116033333Y-75489158D01*
X115859375Y-75553834D01*
X115986375Y-75440115D01*
X115993953Y-75433475D01*
X116083307Y-75367094D01*
X116194993Y-75298231D01*
X116310546Y-75236786D01*
X116411505Y-75192659D01*
X116479405Y-75175750D01*
X116504389Y-75180307D01*
G37*
X116504389Y-75180307D02*
X116498997Y-75200323D01*
X116452385Y-75242452D01*
X116358771Y-75313287D01*
X116300700Y-75352544D01*
X116164422Y-75429910D01*
X116033333Y-75489158D01*
X115859375Y-75553834D01*
X115986375Y-75440115D01*
X115993953Y-75433475D01*
X116083307Y-75367094D01*
X116194993Y-75298231D01*
X116310546Y-75236786D01*
X116411505Y-75192659D01*
X116479405Y-75175750D01*
X116504389Y-75180307D01*
G36*
X119691372Y-86780317D02*
G01*
X119681620Y-87177250D01*
X119463000Y-87177250D01*
X119463000Y-86732750D01*
X117812000Y-86732750D01*
X117812000Y-86383500D01*
X118756562Y-86383442D01*
X119701125Y-86383384D01*
X119691372Y-86780317D01*
G37*
X119691372Y-86780317D02*
X119681620Y-87177250D01*
X119463000Y-87177250D01*
X119463000Y-86732750D01*
X117812000Y-86732750D01*
X117812000Y-86383500D01*
X118756562Y-86383442D01*
X119701125Y-86383384D01*
X119691372Y-86780317D01*
G36*
X117621500Y-74535732D02*
G01*
X117621252Y-74538590D01*
X117589913Y-74581581D01*
X117516125Y-74640930D01*
X117414260Y-74708266D01*
X117298690Y-74775214D01*
X117183785Y-74833402D01*
X117083918Y-74874454D01*
X117013460Y-74890000D01*
X117004988Y-74881614D01*
X117033032Y-74848332D01*
X117095441Y-74797318D01*
X117180519Y-74736782D01*
X117276571Y-74674936D01*
X117371901Y-74619990D01*
X117454812Y-74580156D01*
X117526814Y-74553231D01*
X117595116Y-74533943D01*
X117621500Y-74535732D01*
G37*
X117621500Y-74535732D02*
X117621252Y-74538590D01*
X117589913Y-74581581D01*
X117516125Y-74640930D01*
X117414260Y-74708266D01*
X117298690Y-74775214D01*
X117183785Y-74833402D01*
X117083918Y-74874454D01*
X117013460Y-74890000D01*
X117004988Y-74881614D01*
X117033032Y-74848332D01*
X117095441Y-74797318D01*
X117180519Y-74736782D01*
X117276571Y-74674936D01*
X117371901Y-74619990D01*
X117454812Y-74580156D01*
X117526814Y-74553231D01*
X117595116Y-74533943D01*
X117621500Y-74535732D01*
G36*
X118811526Y-82732292D02*
G01*
X119043189Y-82733093D01*
X119251491Y-82734808D01*
X119428403Y-82737301D01*
X119565898Y-82740439D01*
X119655949Y-82744087D01*
X119690528Y-82748111D01*
X119698537Y-82772641D01*
X119698465Y-82835424D01*
X119696476Y-82861817D01*
X119692868Y-82950378D01*
X119689840Y-83074629D01*
X119687895Y-83216437D01*
X119685250Y-83526000D01*
X119463000Y-83526000D01*
X119463000Y-83081500D01*
X118828000Y-83081500D01*
X118828000Y-83430750D01*
X118609068Y-83430750D01*
X118599471Y-83264062D01*
X118589875Y-83097375D01*
X118050125Y-83097375D01*
X118040736Y-83311687D01*
X118031348Y-83526000D01*
X117812000Y-83526000D01*
X117812000Y-82732250D01*
X118743333Y-82732250D01*
X118811526Y-82732292D01*
G37*
X118811526Y-82732292D02*
X119043189Y-82733093D01*
X119251491Y-82734808D01*
X119428403Y-82737301D01*
X119565898Y-82740439D01*
X119655949Y-82744087D01*
X119690528Y-82748111D01*
X119698537Y-82772641D01*
X119698465Y-82835424D01*
X119696476Y-82861817D01*
X119692868Y-82950378D01*
X119689840Y-83074629D01*
X119687895Y-83216437D01*
X119685250Y-83526000D01*
X119463000Y-83526000D01*
X119463000Y-83081500D01*
X118828000Y-83081500D01*
X118828000Y-83430750D01*
X118609068Y-83430750D01*
X118599471Y-83264062D01*
X118589875Y-83097375D01*
X118050125Y-83097375D01*
X118040736Y-83311687D01*
X118031348Y-83526000D01*
X117812000Y-83526000D01*
X117812000Y-82732250D01*
X118743333Y-82732250D01*
X118811526Y-82732292D01*
G36*
X120525710Y-72397092D02*
G01*
X120709001Y-72401575D01*
X120854747Y-72410404D01*
X120969333Y-72424339D01*
X121059146Y-72444144D01*
X121130572Y-72470578D01*
X121189996Y-72504403D01*
X121243805Y-72546381D01*
X121298386Y-72597273D01*
X121323927Y-72627875D01*
X121384268Y-72713973D01*
X121467841Y-72842229D01*
X121570008Y-73004791D01*
X121686129Y-73193808D01*
X121811566Y-73401428D01*
X121941680Y-73619800D01*
X122071833Y-73841072D01*
X122197385Y-74057391D01*
X122313698Y-74260908D01*
X122416133Y-74443769D01*
X122500052Y-74598124D01*
X122560816Y-74716120D01*
X122593786Y-74789907D01*
X122601829Y-74812925D01*
X122625376Y-74892879D01*
X122637620Y-74970202D01*
X122636175Y-75051230D01*
X122618655Y-75142298D01*
X122582676Y-75249743D01*
X122525852Y-75379898D01*
X122445797Y-75539101D01*
X122340125Y-75733687D01*
X122206452Y-75969990D01*
X122042392Y-76254348D01*
X122006742Y-76315827D01*
X121852426Y-76581842D01*
X121725789Y-76799538D01*
X121623339Y-76974380D01*
X121541587Y-77111835D01*
X121477044Y-77217365D01*
X121426218Y-77296437D01*
X121385621Y-77354514D01*
X121351762Y-77397063D01*
X121321150Y-77429548D01*
X121290297Y-77457433D01*
X121255712Y-77486183D01*
X121207824Y-77523995D01*
X121155144Y-77558894D01*
X121096666Y-77587055D01*
X121025979Y-77609121D01*
X120936673Y-77625732D01*
X120822337Y-77637531D01*
X120676561Y-77645157D01*
X120492933Y-77649254D01*
X120265045Y-77650463D01*
X119986485Y-77649424D01*
X119650843Y-77646780D01*
X119539551Y-77645789D01*
X119248344Y-77642981D01*
X119011877Y-77640088D01*
X118823595Y-77636725D01*
X118676942Y-77632507D01*
X118565362Y-77627047D01*
X118482301Y-77619963D01*
X118421202Y-77610867D01*
X118375510Y-77599376D01*
X118338669Y-77585104D01*
X118304125Y-77567665D01*
X118280507Y-77554261D01*
X118177113Y-77483461D01*
X118092359Y-77409095D01*
X118043364Y-77346952D01*
X117975534Y-77245159D01*
X117895869Y-77115093D01*
X117809297Y-76965956D01*
X117720745Y-76806948D01*
X117635144Y-76647272D01*
X117557420Y-76496129D01*
X117492501Y-76362722D01*
X117445317Y-76256251D01*
X117420795Y-76185918D01*
X117423864Y-76160925D01*
X117428589Y-76162466D01*
X117468147Y-76200487D01*
X117534591Y-76284232D01*
X117622999Y-76406713D01*
X117728444Y-76560944D01*
X117846003Y-76739941D01*
X117970750Y-76936716D01*
X118040312Y-77049458D01*
X118109020Y-77158593D01*
X118171545Y-77246682D01*
X118234854Y-77315959D01*
X118305915Y-77368659D01*
X118391693Y-77407015D01*
X118499157Y-77433264D01*
X118635272Y-77449639D01*
X118807006Y-77458375D01*
X119021327Y-77461708D01*
X119285200Y-77461871D01*
X119605592Y-77461099D01*
X119816485Y-77460469D01*
X120069615Y-77458808D01*
X120300490Y-77456309D01*
X120500859Y-77453108D01*
X120662475Y-77449343D01*
X120777089Y-77445150D01*
X120836451Y-77440666D01*
X120955778Y-77421799D01*
X120832120Y-77287646D01*
X120781575Y-77229512D01*
X120720718Y-77148907D01*
X120689022Y-77092243D01*
X120674416Y-77068655D01*
X120620027Y-77031256D01*
X120519809Y-76989549D01*
X120365508Y-76939641D01*
X120082100Y-76837390D01*
X119813931Y-76696440D01*
X119576049Y-76517577D01*
X119550321Y-76496182D01*
X119409640Y-76405061D01*
X119259923Y-76339840D01*
X119161483Y-76304153D01*
X119100131Y-76266237D01*
X119082000Y-76224474D01*
X119077223Y-76167874D01*
X119049157Y-76093329D01*
X119003115Y-76064750D01*
X118978670Y-76059121D01*
X118926623Y-76021189D01*
X118914672Y-76002700D01*
X118923930Y-75971087D01*
X118986235Y-75937962D01*
X118992575Y-75935292D01*
X119055743Y-75902780D01*
X119081369Y-75878335D01*
X119071755Y-75864654D01*
X119018695Y-75824567D01*
X118932545Y-75770942D01*
X118828536Y-75712565D01*
X118721897Y-75658222D01*
X118627859Y-75616700D01*
X118572164Y-75592373D01*
X118508578Y-75545357D01*
X118484873Y-75484475D01*
X118484986Y-75438150D01*
X118514047Y-75398535D01*
X118590188Y-75366146D01*
X118613045Y-75358292D01*
X118674702Y-75332688D01*
X118693782Y-75316699D01*
X118661786Y-75307569D01*
X118579835Y-75288151D01*
X118460211Y-75261103D01*
X118315186Y-75229072D01*
X118157034Y-75194705D01*
X117998024Y-75160651D01*
X117850430Y-75129556D01*
X117726524Y-75104067D01*
X117638577Y-75086833D01*
X117598861Y-75080500D01*
X117596489Y-75071476D01*
X117621499Y-75032875D01*
X117649781Y-75007946D01*
X117712700Y-74984782D01*
X117773249Y-74974901D01*
X117885807Y-74943512D01*
X118033528Y-74895007D01*
X118204251Y-74833899D01*
X118385813Y-74764705D01*
X118566049Y-74691940D01*
X118732798Y-74620117D01*
X118873896Y-74553752D01*
X118894823Y-74543211D01*
X119094986Y-74435796D01*
X119301875Y-74314275D01*
X119507702Y-74184250D01*
X119704679Y-74051323D01*
X119885017Y-73921096D01*
X120040929Y-73799173D01*
X120164626Y-73691154D01*
X120248321Y-73602643D01*
X120284225Y-73539241D01*
X120288047Y-73527804D01*
X120325799Y-73466018D01*
X120393429Y-73378744D01*
X120479562Y-73281020D01*
X120506347Y-73251949D01*
X120608375Y-73134627D01*
X120710763Y-73008254D01*
X120805077Y-72884201D01*
X120882884Y-72773837D01*
X120935753Y-72688532D01*
X120955250Y-72639655D01*
X120948067Y-72631278D01*
X120896083Y-72618849D01*
X120790958Y-72610051D01*
X120629261Y-72604649D01*
X120407562Y-72602412D01*
X120276402Y-72601685D01*
X120026405Y-72599045D01*
X119753305Y-72594948D01*
X119482116Y-72589786D01*
X119237853Y-72583956D01*
X119160183Y-72581960D01*
X118920972Y-72578093D01*
X118733309Y-72580331D01*
X118587977Y-72590038D01*
X118475760Y-72608580D01*
X118387442Y-72637321D01*
X118313807Y-72677625D01*
X118245638Y-72730857D01*
X118195784Y-72784502D01*
X118118582Y-72884683D01*
X118030484Y-73011642D01*
X117942456Y-73150208D01*
X117858487Y-73285904D01*
X117754980Y-73446024D01*
X117655006Y-73593834D01*
X117564530Y-73720989D01*
X117489520Y-73819147D01*
X117435942Y-73879964D01*
X117409762Y-73895096D01*
X117409114Y-73880551D01*
X117429822Y-73823346D01*
X117471629Y-73741555D01*
X117481002Y-73724842D01*
X117530962Y-73633084D01*
X117599988Y-73503733D01*
X117680230Y-73351569D01*
X117763837Y-73191375D01*
X117818103Y-73086237D01*
X117901281Y-72926257D01*
X117975295Y-72794142D01*
X118046748Y-72687149D01*
X118122241Y-72602537D01*
X118208377Y-72537565D01*
X118311757Y-72489492D01*
X118438984Y-72455576D01*
X118596659Y-72433076D01*
X118791385Y-72419249D01*
X119029764Y-72411356D01*
X119318397Y-72406654D01*
X119663887Y-72402403D01*
X119686700Y-72402104D01*
X120020945Y-72398118D01*
X120298487Y-72396193D01*
X120525710Y-72397092D01*
G37*
X120525710Y-72397092D02*
X120709001Y-72401575D01*
X120854747Y-72410404D01*
X120969333Y-72424339D01*
X121059146Y-72444144D01*
X121130572Y-72470578D01*
X121189996Y-72504403D01*
X121243805Y-72546381D01*
X121298386Y-72597273D01*
X121323927Y-72627875D01*
X121384268Y-72713973D01*
X121467841Y-72842229D01*
X121570008Y-73004791D01*
X121686129Y-73193808D01*
X121811566Y-73401428D01*
X121941680Y-73619800D01*
X122071833Y-73841072D01*
X122197385Y-74057391D01*
X122313698Y-74260908D01*
X122416133Y-74443769D01*
X122500052Y-74598124D01*
X122560816Y-74716120D01*
X122593786Y-74789907D01*
X122601829Y-74812925D01*
X122625376Y-74892879D01*
X122637620Y-74970202D01*
X122636175Y-75051230D01*
X122618655Y-75142298D01*
X122582676Y-75249743D01*
X122525852Y-75379898D01*
X122445797Y-75539101D01*
X122340125Y-75733687D01*
X122206452Y-75969990D01*
X122042392Y-76254348D01*
X122006742Y-76315827D01*
X121852426Y-76581842D01*
X121725789Y-76799538D01*
X121623339Y-76974380D01*
X121541587Y-77111835D01*
X121477044Y-77217365D01*
X121426218Y-77296437D01*
X121385621Y-77354514D01*
X121351762Y-77397063D01*
X121321150Y-77429548D01*
X121290297Y-77457433D01*
X121255712Y-77486183D01*
X121207824Y-77523995D01*
X121155144Y-77558894D01*
X121096666Y-77587055D01*
X121025979Y-77609121D01*
X120936673Y-77625732D01*
X120822337Y-77637531D01*
X120676561Y-77645157D01*
X120492933Y-77649254D01*
X120265045Y-77650463D01*
X119986485Y-77649424D01*
X119650843Y-77646780D01*
X119539551Y-77645789D01*
X119248344Y-77642981D01*
X119011877Y-77640088D01*
X118823595Y-77636725D01*
X118676942Y-77632507D01*
X118565362Y-77627047D01*
X118482301Y-77619963D01*
X118421202Y-77610867D01*
X118375510Y-77599376D01*
X118338669Y-77585104D01*
X118304125Y-77567665D01*
X118280507Y-77554261D01*
X118177113Y-77483461D01*
X118092359Y-77409095D01*
X118043364Y-77346952D01*
X117975534Y-77245159D01*
X117895869Y-77115093D01*
X117809297Y-76965956D01*
X117720745Y-76806948D01*
X117635144Y-76647272D01*
X117557420Y-76496129D01*
X117492501Y-76362722D01*
X117445317Y-76256251D01*
X117420795Y-76185918D01*
X117423864Y-76160925D01*
X117428589Y-76162466D01*
X117468147Y-76200487D01*
X117534591Y-76284232D01*
X117622999Y-76406713D01*
X117728444Y-76560944D01*
X117846003Y-76739941D01*
X117970750Y-76936716D01*
X118040312Y-77049458D01*
X118109020Y-77158593D01*
X118171545Y-77246682D01*
X118234854Y-77315959D01*
X118305915Y-77368659D01*
X118391693Y-77407015D01*
X118499157Y-77433264D01*
X118635272Y-77449639D01*
X118807006Y-77458375D01*
X119021327Y-77461708D01*
X119285200Y-77461871D01*
X119605592Y-77461099D01*
X119816485Y-77460469D01*
X120069615Y-77458808D01*
X120300490Y-77456309D01*
X120500859Y-77453108D01*
X120662475Y-77449343D01*
X120777089Y-77445150D01*
X120836451Y-77440666D01*
X120955778Y-77421799D01*
X120832120Y-77287646D01*
X120781575Y-77229512D01*
X120720718Y-77148907D01*
X120689022Y-77092243D01*
X120674416Y-77068655D01*
X120620027Y-77031256D01*
X120519809Y-76989549D01*
X120365508Y-76939641D01*
X120082100Y-76837390D01*
X119813931Y-76696440D01*
X119576049Y-76517577D01*
X119550321Y-76496182D01*
X119409640Y-76405061D01*
X119259923Y-76339840D01*
X119161483Y-76304153D01*
X119100131Y-76266237D01*
X119082000Y-76224474D01*
X119077223Y-76167874D01*
X119049157Y-76093329D01*
X119003115Y-76064750D01*
X118978670Y-76059121D01*
X118926623Y-76021189D01*
X118914672Y-76002700D01*
X118923930Y-75971087D01*
X118986235Y-75937962D01*
X118992575Y-75935292D01*
X119055743Y-75902780D01*
X119081369Y-75878335D01*
X119071755Y-75864654D01*
X119018695Y-75824567D01*
X118932545Y-75770942D01*
X118828536Y-75712565D01*
X118721897Y-75658222D01*
X118627859Y-75616700D01*
X118572164Y-75592373D01*
X118508578Y-75545357D01*
X118484873Y-75484475D01*
X118484986Y-75438150D01*
X118514047Y-75398535D01*
X118590188Y-75366146D01*
X118613045Y-75358292D01*
X118674702Y-75332688D01*
X118693782Y-75316699D01*
X118661786Y-75307569D01*
X118579835Y-75288151D01*
X118460211Y-75261103D01*
X118315186Y-75229072D01*
X118157034Y-75194705D01*
X117998024Y-75160651D01*
X117850430Y-75129556D01*
X117726524Y-75104067D01*
X117638577Y-75086833D01*
X117598861Y-75080500D01*
X117596489Y-75071476D01*
X117621499Y-75032875D01*
X117649781Y-75007946D01*
X117712700Y-74984782D01*
X117773249Y-74974901D01*
X117885807Y-74943512D01*
X118033528Y-74895007D01*
X118204251Y-74833899D01*
X118385813Y-74764705D01*
X118566049Y-74691940D01*
X118732798Y-74620117D01*
X118873896Y-74553752D01*
X118894823Y-74543211D01*
X119094986Y-74435796D01*
X119301875Y-74314275D01*
X119507702Y-74184250D01*
X119704679Y-74051323D01*
X119885017Y-73921096D01*
X120040929Y-73799173D01*
X120164626Y-73691154D01*
X120248321Y-73602643D01*
X120284225Y-73539241D01*
X120288047Y-73527804D01*
X120325799Y-73466018D01*
X120393429Y-73378744D01*
X120479562Y-73281020D01*
X120506347Y-73251949D01*
X120608375Y-73134627D01*
X120710763Y-73008254D01*
X120805077Y-72884201D01*
X120882884Y-72773837D01*
X120935753Y-72688532D01*
X120955250Y-72639655D01*
X120948067Y-72631278D01*
X120896083Y-72618849D01*
X120790958Y-72610051D01*
X120629261Y-72604649D01*
X120407562Y-72602412D01*
X120276402Y-72601685D01*
X120026405Y-72599045D01*
X119753305Y-72594948D01*
X119482116Y-72589786D01*
X119237853Y-72583956D01*
X119160183Y-72581960D01*
X118920972Y-72578093D01*
X118733309Y-72580331D01*
X118587977Y-72590038D01*
X118475760Y-72608580D01*
X118387442Y-72637321D01*
X118313807Y-72677625D01*
X118245638Y-72730857D01*
X118195784Y-72784502D01*
X118118582Y-72884683D01*
X118030484Y-73011642D01*
X117942456Y-73150208D01*
X117858487Y-73285904D01*
X117754980Y-73446024D01*
X117655006Y-73593834D01*
X117564530Y-73720989D01*
X117489520Y-73819147D01*
X117435942Y-73879964D01*
X117409762Y-73895096D01*
X117409114Y-73880551D01*
X117429822Y-73823346D01*
X117471629Y-73741555D01*
X117481002Y-73724842D01*
X117530962Y-73633084D01*
X117599988Y-73503733D01*
X117680230Y-73351569D01*
X117763837Y-73191375D01*
X117818103Y-73086237D01*
X117901281Y-72926257D01*
X117975295Y-72794142D01*
X118046748Y-72687149D01*
X118122241Y-72602537D01*
X118208377Y-72537565D01*
X118311757Y-72489492D01*
X118438984Y-72455576D01*
X118596659Y-72433076D01*
X118791385Y-72419249D01*
X119029764Y-72411356D01*
X119318397Y-72406654D01*
X119663887Y-72402403D01*
X119686700Y-72402104D01*
X120020945Y-72398118D01*
X120298487Y-72396193D01*
X120525710Y-72397092D01*
G36*
X117915187Y-88658145D02*
G01*
X117963213Y-88665382D01*
X118068939Y-88680836D01*
X118219507Y-88702597D01*
X118405278Y-88729278D01*
X118616613Y-88759491D01*
X118843875Y-88791849D01*
X119669375Y-88909150D01*
X119685934Y-89051262D01*
X119690780Y-89093324D01*
X119698907Y-89166904D01*
X119701809Y-89198222D01*
X119701771Y-89198277D01*
X119670046Y-89205199D01*
X119585713Y-89220955D01*
X119458464Y-89243805D01*
X119297990Y-89272008D01*
X119113982Y-89303823D01*
X118951281Y-89332080D01*
X118749061Y-89368681D01*
X118607402Y-89396620D01*
X118524920Y-89416200D01*
X118500231Y-89427725D01*
X118531951Y-89431500D01*
X118531963Y-89431500D01*
X118572061Y-89436567D01*
X118661799Y-89450311D01*
X118788260Y-89470580D01*
X118938527Y-89495220D01*
X119099684Y-89522079D01*
X119258815Y-89549004D01*
X119403004Y-89573843D01*
X119519333Y-89594443D01*
X119594887Y-89608650D01*
X119603525Y-89610490D01*
X119653282Y-89631304D01*
X119678336Y-89676939D01*
X119690366Y-89766727D01*
X119692595Y-89808235D01*
X119689655Y-89879544D01*
X119677478Y-89907750D01*
X119676772Y-89907778D01*
X119635625Y-89912899D01*
X119540626Y-89926019D01*
X119400088Y-89945952D01*
X119222325Y-89971510D01*
X119015650Y-90001505D01*
X118788376Y-90034750D01*
X118775616Y-90036622D01*
X118547146Y-90069848D01*
X118337918Y-90099727D01*
X118156645Y-90125059D01*
X118012041Y-90144641D01*
X117912818Y-90157272D01*
X117867689Y-90161750D01*
X117836740Y-90153367D01*
X117817186Y-90112209D01*
X117812000Y-90023028D01*
X117812000Y-89884307D01*
X118097750Y-89848403D01*
X118112215Y-89846586D01*
X118293177Y-89823848D01*
X118492733Y-89798773D01*
X118670258Y-89776466D01*
X118737390Y-89767712D01*
X118848055Y-89751593D01*
X118922355Y-89738398D01*
X118946935Y-89730352D01*
X118931381Y-89725898D01*
X118862665Y-89712093D01*
X118749048Y-89691483D01*
X118601250Y-89665993D01*
X118429989Y-89637547D01*
X118376800Y-89628883D01*
X118177489Y-89596401D01*
X118031011Y-89571229D01*
X117929446Y-89550365D01*
X117864878Y-89530807D01*
X117829385Y-89509550D01*
X117815051Y-89483594D01*
X117813956Y-89449936D01*
X117818181Y-89405573D01*
X117827875Y-89289790D01*
X118399375Y-89195628D01*
X118517604Y-89176146D01*
X118687122Y-89147309D01*
X118802164Y-89124416D01*
X118861513Y-89105467D01*
X118863953Y-89088465D01*
X118808270Y-89071410D01*
X118693245Y-89052304D01*
X118517665Y-89029149D01*
X118280312Y-88999946D01*
X117812000Y-88942606D01*
X117812000Y-88792174D01*
X117811999Y-88641742D01*
X117915187Y-88658145D01*
G37*
X117915187Y-88658145D02*
X117963213Y-88665382D01*
X118068939Y-88680836D01*
X118219507Y-88702597D01*
X118405278Y-88729278D01*
X118616613Y-88759491D01*
X118843875Y-88791849D01*
X119669375Y-88909150D01*
X119685934Y-89051262D01*
X119690780Y-89093324D01*
X119698907Y-89166904D01*
X119701809Y-89198222D01*
X119701771Y-89198277D01*
X119670046Y-89205199D01*
X119585713Y-89220955D01*
X119458464Y-89243805D01*
X119297990Y-89272008D01*
X119113982Y-89303823D01*
X118951281Y-89332080D01*
X118749061Y-89368681D01*
X118607402Y-89396620D01*
X118524920Y-89416200D01*
X118500231Y-89427725D01*
X118531951Y-89431500D01*
X118531963Y-89431500D01*
X118572061Y-89436567D01*
X118661799Y-89450311D01*
X118788260Y-89470580D01*
X118938527Y-89495220D01*
X119099684Y-89522079D01*
X119258815Y-89549004D01*
X119403004Y-89573843D01*
X119519333Y-89594443D01*
X119594887Y-89608650D01*
X119603525Y-89610490D01*
X119653282Y-89631304D01*
X119678336Y-89676939D01*
X119690366Y-89766727D01*
X119692595Y-89808235D01*
X119689655Y-89879544D01*
X119677478Y-89907750D01*
X119676772Y-89907778D01*
X119635625Y-89912899D01*
X119540626Y-89926019D01*
X119400088Y-89945952D01*
X119222325Y-89971510D01*
X119015650Y-90001505D01*
X118788376Y-90034750D01*
X118775616Y-90036622D01*
X118547146Y-90069848D01*
X118337918Y-90099727D01*
X118156645Y-90125059D01*
X118012041Y-90144641D01*
X117912818Y-90157272D01*
X117867689Y-90161750D01*
X117836740Y-90153367D01*
X117817186Y-90112209D01*
X117812000Y-90023028D01*
X117812000Y-89884307D01*
X118097750Y-89848403D01*
X118112215Y-89846586D01*
X118293177Y-89823848D01*
X118492733Y-89798773D01*
X118670258Y-89776466D01*
X118737390Y-89767712D01*
X118848055Y-89751593D01*
X118922355Y-89738398D01*
X118946935Y-89730352D01*
X118931381Y-89725898D01*
X118862665Y-89712093D01*
X118749048Y-89691483D01*
X118601250Y-89665993D01*
X118429989Y-89637547D01*
X118376800Y-89628883D01*
X118177489Y-89596401D01*
X118031011Y-89571229D01*
X117929446Y-89550365D01*
X117864878Y-89530807D01*
X117829385Y-89509550D01*
X117815051Y-89483594D01*
X117813956Y-89449936D01*
X117818181Y-89405573D01*
X117827875Y-89289790D01*
X118399375Y-89195628D01*
X118517604Y-89176146D01*
X118687122Y-89147309D01*
X118802164Y-89124416D01*
X118861513Y-89105467D01*
X118863953Y-89088465D01*
X118808270Y-89071410D01*
X118693245Y-89052304D01*
X118517665Y-89029149D01*
X118280312Y-88999946D01*
X117812000Y-88942606D01*
X117812000Y-88792174D01*
X117811999Y-88641742D01*
X117915187Y-88658145D01*
G36*
X116771151Y-75363025D02*
G01*
X116794051Y-75465052D01*
X116796754Y-75479757D01*
X116807766Y-75609456D01*
X116805036Y-75760975D01*
X116790082Y-75906096D01*
X116764418Y-76016604D01*
X116763610Y-76018732D01*
X116748629Y-76027559D01*
X116734642Y-75986348D01*
X116722747Y-75907878D01*
X116714042Y-75804926D01*
X116709625Y-75690272D01*
X116710595Y-75576693D01*
X116718049Y-75476968D01*
X116724239Y-75429600D01*
X116739181Y-75344838D01*
X116753840Y-75322800D01*
X116771151Y-75363025D01*
G37*
X116771151Y-75363025D02*
X116794051Y-75465052D01*
X116796754Y-75479757D01*
X116807766Y-75609456D01*
X116805036Y-75760975D01*
X116790082Y-75906096D01*
X116764418Y-76016604D01*
X116763610Y-76018732D01*
X116748629Y-76027559D01*
X116734642Y-75986348D01*
X116722747Y-75907878D01*
X116714042Y-75804926D01*
X116709625Y-75690272D01*
X116710595Y-75576693D01*
X116718049Y-75476968D01*
X116724239Y-75429600D01*
X116739181Y-75344838D01*
X116753840Y-75322800D01*
X116771151Y-75363025D01*
G36*
X116953904Y-75326099D02*
G01*
X117004811Y-75386640D01*
X117063848Y-75469692D01*
X117123891Y-75566392D01*
X117177812Y-75667875D01*
X117231435Y-75783811D01*
X117261159Y-75862175D01*
X117258989Y-75888884D01*
X117224630Y-75865822D01*
X117157782Y-75794875D01*
X117125087Y-75755743D01*
X116997728Y-75555911D01*
X116909822Y-75334500D01*
X116904988Y-75308016D01*
X116918254Y-75296936D01*
X116953904Y-75326099D01*
G37*
X116953904Y-75326099D02*
X117004811Y-75386640D01*
X117063848Y-75469692D01*
X117123891Y-75566392D01*
X117177812Y-75667875D01*
X117231435Y-75783811D01*
X117261159Y-75862175D01*
X117258989Y-75888884D01*
X117224630Y-75865822D01*
X117157782Y-75794875D01*
X117125087Y-75755743D01*
X116997728Y-75555911D01*
X116909822Y-75334500D01*
X116904988Y-75308016D01*
X116918254Y-75296936D01*
X116953904Y-75326099D01*
G36*
X121622000Y-86828000D02*
G01*
X120320250Y-86828000D01*
X120320250Y-86605750D01*
X121622000Y-86605750D01*
X121622000Y-86828000D01*
G37*
X121622000Y-86828000D02*
X120320250Y-86828000D01*
X120320250Y-86605750D01*
X121622000Y-86605750D01*
X121622000Y-86828000D01*
G36*
X116222034Y-74986681D02*
G01*
X116370892Y-75004995D01*
X116494375Y-75029275D01*
X116319750Y-75064020D01*
X116264127Y-75073019D01*
X116124076Y-75082701D01*
X116002250Y-75075649D01*
X115965820Y-75069924D01*
X115866105Y-75055775D01*
X115795875Y-75047913D01*
X115776237Y-75045505D01*
X115772166Y-75034457D01*
X115827625Y-75013398D01*
X115911111Y-74995586D01*
X116059548Y-74983687D01*
X116222034Y-74986681D01*
G37*
X116222034Y-74986681D02*
X116370892Y-75004995D01*
X116494375Y-75029275D01*
X116319750Y-75064020D01*
X116264127Y-75073019D01*
X116124076Y-75082701D01*
X116002250Y-75075649D01*
X115965820Y-75069924D01*
X115866105Y-75055775D01*
X115795875Y-75047913D01*
X115776237Y-75045505D01*
X115772166Y-75034457D01*
X115827625Y-75013398D01*
X115911111Y-74995586D01*
X116059548Y-74983687D01*
X116222034Y-74986681D01*
G36*
X116614573Y-75287994D02*
G01*
X116599221Y-75348105D01*
X116566542Y-75437687D01*
X116556690Y-75460938D01*
X116508683Y-75557048D01*
X116449102Y-75659114D01*
X116386376Y-75754814D01*
X116328934Y-75831825D01*
X116285206Y-75877825D01*
X116263622Y-75880492D01*
X116262129Y-75866077D01*
X116279378Y-75797707D01*
X116321526Y-75699357D01*
X116380169Y-75585713D01*
X116446908Y-75471465D01*
X116513340Y-75371301D01*
X116571064Y-75299911D01*
X116611677Y-75271981D01*
X116614573Y-75287994D01*
G37*
X116614573Y-75287994D02*
X116599221Y-75348105D01*
X116566542Y-75437687D01*
X116556690Y-75460938D01*
X116508683Y-75557048D01*
X116449102Y-75659114D01*
X116386376Y-75754814D01*
X116328934Y-75831825D01*
X116285206Y-75877825D01*
X116263622Y-75880492D01*
X116262129Y-75866077D01*
X116279378Y-75797707D01*
X116321526Y-75699357D01*
X116380169Y-75585713D01*
X116446908Y-75471465D01*
X116513340Y-75371301D01*
X116571064Y-75299911D01*
X116611677Y-75271981D01*
X116614573Y-75287994D01*
G36*
X121622000Y-82502935D02*
G01*
X121618661Y-82614972D01*
X121597475Y-82750625D01*
X121550340Y-82849663D01*
X121469902Y-82917414D01*
X121348810Y-82959209D01*
X121179710Y-82980378D01*
X120955249Y-82986250D01*
X120826579Y-82984346D01*
X120638988Y-82970540D01*
X120502577Y-82941820D01*
X120410160Y-82896346D01*
X120354555Y-82832275D01*
X120350939Y-82824096D01*
X120335345Y-82752165D01*
X120324387Y-82641370D01*
X120322143Y-82571232D01*
X120479000Y-82571232D01*
X120482220Y-82612864D01*
X120504389Y-82663537D01*
X120555104Y-82697895D01*
X120643059Y-82718806D01*
X120776946Y-82729140D01*
X120965455Y-82731763D01*
X120967156Y-82731761D01*
X121119725Y-82729650D01*
X121250244Y-82724334D01*
X121344899Y-82716610D01*
X121389874Y-82707275D01*
X121418990Y-82669224D01*
X121443334Y-82596636D01*
X121459044Y-82510000D01*
X120969022Y-82510000D01*
X120884461Y-82510056D01*
X120721907Y-82511044D01*
X120609716Y-82514170D01*
X120538609Y-82520592D01*
X120499307Y-82531469D01*
X120482530Y-82547963D01*
X120479000Y-82571232D01*
X120322143Y-82571232D01*
X120320250Y-82512087D01*
X120320250Y-82256000D01*
X121622000Y-82256000D01*
X121622000Y-82502935D01*
G37*
X121622000Y-82502935D02*
X121618661Y-82614972D01*
X121597475Y-82750625D01*
X121550340Y-82849663D01*
X121469902Y-82917414D01*
X121348810Y-82959209D01*
X121179710Y-82980378D01*
X120955249Y-82986250D01*
X120826579Y-82984346D01*
X120638988Y-82970540D01*
X120502577Y-82941820D01*
X120410160Y-82896346D01*
X120354555Y-82832275D01*
X120350939Y-82824096D01*
X120335345Y-82752165D01*
X120324387Y-82641370D01*
X120322143Y-82571232D01*
X120479000Y-82571232D01*
X120482220Y-82612864D01*
X120504389Y-82663537D01*
X120555104Y-82697895D01*
X120643059Y-82718806D01*
X120776946Y-82729140D01*
X120965455Y-82731763D01*
X120967156Y-82731761D01*
X121119725Y-82729650D01*
X121250244Y-82724334D01*
X121344899Y-82716610D01*
X121389874Y-82707275D01*
X121418990Y-82669224D01*
X121443334Y-82596636D01*
X121459044Y-82510000D01*
X120969022Y-82510000D01*
X120884461Y-82510056D01*
X120721907Y-82511044D01*
X120609716Y-82514170D01*
X120538609Y-82520592D01*
X120499307Y-82531469D01*
X120482530Y-82547963D01*
X120479000Y-82571232D01*
X120322143Y-82571232D01*
X120320250Y-82512087D01*
X120320250Y-82256000D01*
X121622000Y-82256000D01*
X121622000Y-82502935D01*
G36*
X120446382Y-84864710D02*
G01*
X120473069Y-84895475D01*
X120479000Y-84970625D01*
X120479000Y-85081750D01*
X121622000Y-85081750D01*
X121622020Y-85200812D01*
X121622041Y-85319875D01*
X120494875Y-85319875D01*
X120484925Y-85423062D01*
X120478393Y-85468655D01*
X120453110Y-85514917D01*
X120397613Y-85526250D01*
X120375645Y-85525818D01*
X120348701Y-85518346D01*
X120332315Y-85492630D01*
X120323862Y-85437355D01*
X120320715Y-85341208D01*
X120320250Y-85192875D01*
X120320250Y-84859500D01*
X120399625Y-84859500D01*
X120446382Y-84864710D01*
G37*
X120446382Y-84864710D02*
X120473069Y-84895475D01*
X120479000Y-84970625D01*
X120479000Y-85081750D01*
X121622000Y-85081750D01*
X121622020Y-85200812D01*
X121622041Y-85319875D01*
X120494875Y-85319875D01*
X120484925Y-85423062D01*
X120478393Y-85468655D01*
X120453110Y-85514917D01*
X120397613Y-85526250D01*
X120375645Y-85525818D01*
X120348701Y-85518346D01*
X120332315Y-85492630D01*
X120323862Y-85437355D01*
X120320715Y-85341208D01*
X120320250Y-85192875D01*
X120320250Y-84859500D01*
X120399625Y-84859500D01*
X120446382Y-84864710D01*
G36*
X121092911Y-83177119D02*
G01*
X121234112Y-83179046D01*
X121333634Y-83183823D01*
X121401846Y-83192741D01*
X121449117Y-83207093D01*
X121485817Y-83228170D01*
X121522315Y-83257265D01*
X121534922Y-83268517D01*
X121598356Y-83346736D01*
X121631011Y-83423952D01*
X121636303Y-83554740D01*
X121605577Y-83700646D01*
X121538427Y-83811750D01*
X121531476Y-83818919D01*
X121502652Y-83845331D01*
X121469195Y-83864602D01*
X121421296Y-83878082D01*
X121349144Y-83887121D01*
X121242929Y-83893069D01*
X121092841Y-83897275D01*
X120889070Y-83901089D01*
X120316175Y-83911053D01*
X120326150Y-83797166D01*
X120336125Y-83683280D01*
X120850980Y-83676077D01*
X120992489Y-83673688D01*
X121152933Y-83668945D01*
X121266133Y-83661807D01*
X121341750Y-83651250D01*
X121389446Y-83636248D01*
X121418884Y-83615774D01*
X121419878Y-83614771D01*
X121454712Y-83546185D01*
X121430412Y-83481146D01*
X121350871Y-83430273D01*
X121334371Y-83425820D01*
X121253185Y-83415254D01*
X121127574Y-83406743D01*
X120971301Y-83401065D01*
X120798134Y-83399000D01*
X120684261Y-83398929D01*
X120535396Y-83397870D01*
X120434454Y-83394358D01*
X120371628Y-83386922D01*
X120337110Y-83374091D01*
X120321093Y-83354396D01*
X120313767Y-83326364D01*
X120310047Y-83306236D01*
X120305364Y-83258995D01*
X120315740Y-83224914D01*
X120349249Y-83201847D01*
X120413965Y-83187645D01*
X120517961Y-83180160D01*
X120669310Y-83177244D01*
X120876084Y-83176750D01*
X120899661Y-83176750D01*
X121092911Y-83177119D01*
G37*
X121092911Y-83177119D02*
X121234112Y-83179046D01*
X121333634Y-83183823D01*
X121401846Y-83192741D01*
X121449117Y-83207093D01*
X121485817Y-83228170D01*
X121522315Y-83257265D01*
X121534922Y-83268517D01*
X121598356Y-83346736D01*
X121631011Y-83423952D01*
X121636303Y-83554740D01*
X121605577Y-83700646D01*
X121538427Y-83811750D01*
X121531476Y-83818919D01*
X121502652Y-83845331D01*
X121469195Y-83864602D01*
X121421296Y-83878082D01*
X121349144Y-83887121D01*
X121242929Y-83893069D01*
X121092841Y-83897275D01*
X120889070Y-83901089D01*
X120316175Y-83911053D01*
X120326150Y-83797166D01*
X120336125Y-83683280D01*
X120850980Y-83676077D01*
X120992489Y-83673688D01*
X121152933Y-83668945D01*
X121266133Y-83661807D01*
X121341750Y-83651250D01*
X121389446Y-83636248D01*
X121418884Y-83615774D01*
X121419878Y-83614771D01*
X121454712Y-83546185D01*
X121430412Y-83481146D01*
X121350871Y-83430273D01*
X121334371Y-83425820D01*
X121253185Y-83415254D01*
X121127574Y-83406743D01*
X120971301Y-83401065D01*
X120798134Y-83399000D01*
X120684261Y-83398929D01*
X120535396Y-83397870D01*
X120434454Y-83394358D01*
X120371628Y-83386922D01*
X120337110Y-83374091D01*
X120321093Y-83354396D01*
X120313767Y-83326364D01*
X120310047Y-83306236D01*
X120305364Y-83258995D01*
X120315740Y-83224914D01*
X120349249Y-83201847D01*
X120413965Y-83187645D01*
X120517961Y-83180160D01*
X120669310Y-83177244D01*
X120876084Y-83176750D01*
X120899661Y-83176750D01*
X121092911Y-83177119D01*
G36*
X120656063Y-84097599D02*
G01*
X120726509Y-84101483D01*
X120782684Y-84117262D01*
X120839253Y-84153314D01*
X120910880Y-84218017D01*
X121012232Y-84319750D01*
X121080439Y-84386743D01*
X121200369Y-84487794D01*
X121294653Y-84538521D01*
X121368761Y-84541273D01*
X121428160Y-84498399D01*
X121431017Y-84494828D01*
X121450075Y-84430831D01*
X121415802Y-84371727D01*
X121337664Y-84326560D01*
X121225125Y-84304375D01*
X121207418Y-84287590D01*
X121204640Y-84226487D01*
X121225636Y-84137187D01*
X121263506Y-84105455D01*
X121337515Y-84099531D01*
X121425577Y-84119370D01*
X121506203Y-84162997D01*
X121571516Y-84235906D01*
X121618746Y-84329684D01*
X121634209Y-84386763D01*
X121647599Y-84479269D01*
X121631389Y-84553951D01*
X121582312Y-84638509D01*
X121557521Y-84672034D01*
X121452063Y-84759818D01*
X121328409Y-84788085D01*
X121188685Y-84757192D01*
X121035014Y-84667491D01*
X120869521Y-84519340D01*
X120808883Y-84458534D01*
X120700812Y-84366969D01*
X120617340Y-84326208D01*
X120552408Y-84334109D01*
X120499958Y-84388526D01*
X120492307Y-84403639D01*
X120494096Y-84468584D01*
X120541421Y-84520665D01*
X120620263Y-84542000D01*
X120653230Y-84544757D01*
X120679251Y-84570116D01*
X120676215Y-84637638D01*
X120669440Y-84675737D01*
X120641809Y-84738401D01*
X120588091Y-84754676D01*
X120493702Y-84732112D01*
X120388415Y-84669046D01*
X120317713Y-84567122D01*
X120288745Y-84443489D01*
X120305183Y-84314169D01*
X120370697Y-84195186D01*
X120395559Y-84166879D01*
X120450286Y-84121819D01*
X120517742Y-84101951D01*
X120623187Y-84097500D01*
X120656063Y-84097599D01*
G37*
X120656063Y-84097599D02*
X120726509Y-84101483D01*
X120782684Y-84117262D01*
X120839253Y-84153314D01*
X120910880Y-84218017D01*
X121012232Y-84319750D01*
X121080439Y-84386743D01*
X121200369Y-84487794D01*
X121294653Y-84538521D01*
X121368761Y-84541273D01*
X121428160Y-84498399D01*
X121431017Y-84494828D01*
X121450075Y-84430831D01*
X121415802Y-84371727D01*
X121337664Y-84326560D01*
X121225125Y-84304375D01*
X121207418Y-84287590D01*
X121204640Y-84226487D01*
X121225636Y-84137187D01*
X121263506Y-84105455D01*
X121337515Y-84099531D01*
X121425577Y-84119370D01*
X121506203Y-84162997D01*
X121571516Y-84235906D01*
X121618746Y-84329684D01*
X121634209Y-84386763D01*
X121647599Y-84479269D01*
X121631389Y-84553951D01*
X121582312Y-84638509D01*
X121557521Y-84672034D01*
X121452063Y-84759818D01*
X121328409Y-84788085D01*
X121188685Y-84757192D01*
X121035014Y-84667491D01*
X120869521Y-84519340D01*
X120808883Y-84458534D01*
X120700812Y-84366969D01*
X120617340Y-84326208D01*
X120552408Y-84334109D01*
X120499958Y-84388526D01*
X120492307Y-84403639D01*
X120494096Y-84468584D01*
X120541421Y-84520665D01*
X120620263Y-84542000D01*
X120653230Y-84544757D01*
X120679251Y-84570116D01*
X120676215Y-84637638D01*
X120669440Y-84675737D01*
X120641809Y-84738401D01*
X120588091Y-84754676D01*
X120493702Y-84732112D01*
X120388415Y-84669046D01*
X120317713Y-84567122D01*
X120288745Y-84443489D01*
X120305183Y-84314169D01*
X120370697Y-84195186D01*
X120395559Y-84166879D01*
X120450286Y-84121819D01*
X120517742Y-84101951D01*
X120623187Y-84097500D01*
X120656063Y-84097599D01*
G36*
X119692563Y-81565437D02*
G01*
X119697986Y-81614865D01*
X119697201Y-81684500D01*
X119693942Y-81710154D01*
X119687679Y-81787687D01*
X119685409Y-81801789D01*
X119669756Y-81820286D01*
X119630648Y-81832342D01*
X119558075Y-81839295D01*
X119442028Y-81842484D01*
X119272500Y-81843250D01*
X118859750Y-81843250D01*
X118859052Y-81994062D01*
X118853854Y-82078395D01*
X118812583Y-82242397D01*
X118735445Y-82372802D01*
X118628791Y-82456846D01*
X118504333Y-82493734D01*
X118345570Y-82508287D01*
X118184470Y-82498594D01*
X118049800Y-82464285D01*
X118023162Y-82452407D01*
X117936772Y-82396677D01*
X117876402Y-82318824D01*
X117838122Y-82208714D01*
X117818003Y-82056213D01*
X117812118Y-81851187D01*
X117812115Y-81843250D01*
X118031372Y-81843250D01*
X118052382Y-81962312D01*
X118077213Y-82058990D01*
X118126050Y-82131167D01*
X118208930Y-82166966D01*
X118339568Y-82176625D01*
X118445564Y-82171937D01*
X118516879Y-82153108D01*
X118560684Y-82114994D01*
X118592223Y-82041667D01*
X118605750Y-81948306D01*
X118605750Y-81843250D01*
X118031372Y-81843250D01*
X117812115Y-81843250D01*
X117812000Y-81494000D01*
X119680833Y-81494000D01*
X119692563Y-81565437D01*
G37*
X119692563Y-81565437D02*
X119697986Y-81614865D01*
X119697201Y-81684500D01*
X119693942Y-81710154D01*
X119687679Y-81787687D01*
X119685409Y-81801789D01*
X119669756Y-81820286D01*
X119630648Y-81832342D01*
X119558075Y-81839295D01*
X119442028Y-81842484D01*
X119272500Y-81843250D01*
X118859750Y-81843250D01*
X118859052Y-81994062D01*
X118853854Y-82078395D01*
X118812583Y-82242397D01*
X118735445Y-82372802D01*
X118628791Y-82456846D01*
X118504333Y-82493734D01*
X118345570Y-82508287D01*
X118184470Y-82498594D01*
X118049800Y-82464285D01*
X118023162Y-82452407D01*
X117936772Y-82396677D01*
X117876402Y-82318824D01*
X117838122Y-82208714D01*
X117818003Y-82056213D01*
X117812118Y-81851187D01*
X117812115Y-81843250D01*
X118031372Y-81843250D01*
X118052382Y-81962312D01*
X118077213Y-82058990D01*
X118126050Y-82131167D01*
X118208930Y-82166966D01*
X118339568Y-82176625D01*
X118445564Y-82171937D01*
X118516879Y-82153108D01*
X118560684Y-82114994D01*
X118592223Y-82041667D01*
X118605750Y-81948306D01*
X118605750Y-81843250D01*
X118031372Y-81843250D01*
X117812115Y-81843250D01*
X117812000Y-81494000D01*
X119680833Y-81494000D01*
X119692563Y-81565437D01*
G36*
X121622000Y-85907250D02*
G01*
X121320375Y-85907250D01*
X121289081Y-85907304D01*
X121155226Y-85909849D01*
X121072479Y-85917356D01*
X121030450Y-85931424D01*
X121018750Y-85953651D01*
X121020857Y-85963458D01*
X121064383Y-86001933D01*
X121153687Y-86035422D01*
X121329172Y-86081573D01*
X121456321Y-86117020D01*
X121540076Y-86145580D01*
X121589480Y-86172146D01*
X121613574Y-86201608D01*
X121621400Y-86238859D01*
X121622000Y-86288791D01*
X121622000Y-86411827D01*
X121463250Y-86365913D01*
X121378765Y-86341417D01*
X121224296Y-86296678D01*
X121116649Y-86266886D01*
X121045789Y-86250733D01*
X121001681Y-86246911D01*
X120974288Y-86254113D01*
X120953575Y-86271029D01*
X120929507Y-86296353D01*
X120906609Y-86315714D01*
X120800245Y-86363240D01*
X120669972Y-86380842D01*
X120541290Y-86367233D01*
X120439702Y-86321123D01*
X120377169Y-86256878D01*
X120333278Y-86163912D01*
X120313750Y-86036181D01*
X120314166Y-85978687D01*
X120479486Y-85978687D01*
X120484896Y-86036035D01*
X120524986Y-86106460D01*
X120614486Y-86146357D01*
X120674201Y-86152718D01*
X120780856Y-86116393D01*
X120830556Y-86069757D01*
X120860000Y-85985893D01*
X120859997Y-85983735D01*
X120855438Y-85941044D01*
X120832104Y-85918167D01*
X120775093Y-85908954D01*
X120669500Y-85907250D01*
X120570114Y-85908838D01*
X120509698Y-85917572D01*
X120484407Y-85939006D01*
X120479486Y-85978687D01*
X120314166Y-85978687D01*
X120315021Y-85860509D01*
X120325668Y-85653250D01*
X121622000Y-85653250D01*
X121622000Y-85907250D01*
G37*
X121622000Y-85907250D02*
X121320375Y-85907250D01*
X121289081Y-85907304D01*
X121155226Y-85909849D01*
X121072479Y-85917356D01*
X121030450Y-85931424D01*
X121018750Y-85953651D01*
X121020857Y-85963458D01*
X121064383Y-86001933D01*
X121153687Y-86035422D01*
X121329172Y-86081573D01*
X121456321Y-86117020D01*
X121540076Y-86145580D01*
X121589480Y-86172146D01*
X121613574Y-86201608D01*
X121621400Y-86238859D01*
X121622000Y-86288791D01*
X121622000Y-86411827D01*
X121463250Y-86365913D01*
X121378765Y-86341417D01*
X121224296Y-86296678D01*
X121116649Y-86266886D01*
X121045789Y-86250733D01*
X121001681Y-86246911D01*
X120974288Y-86254113D01*
X120953575Y-86271029D01*
X120929507Y-86296353D01*
X120906609Y-86315714D01*
X120800245Y-86363240D01*
X120669972Y-86380842D01*
X120541290Y-86367233D01*
X120439702Y-86321123D01*
X120377169Y-86256878D01*
X120333278Y-86163912D01*
X120313750Y-86036181D01*
X120314166Y-85978687D01*
X120479486Y-85978687D01*
X120484896Y-86036035D01*
X120524986Y-86106460D01*
X120614486Y-86146357D01*
X120674201Y-86152718D01*
X120780856Y-86116393D01*
X120830556Y-86069757D01*
X120860000Y-85985893D01*
X120859997Y-85983735D01*
X120855438Y-85941044D01*
X120832104Y-85918167D01*
X120775093Y-85908954D01*
X120669500Y-85907250D01*
X120570114Y-85908838D01*
X120509698Y-85917572D01*
X120484407Y-85939006D01*
X120479486Y-85978687D01*
X120314166Y-85978687D01*
X120315021Y-85860509D01*
X120325668Y-85653250D01*
X121622000Y-85653250D01*
X121622000Y-85907250D01*
G36*
X119130269Y-85025379D02*
G01*
X119270797Y-85034083D01*
X119357123Y-85047138D01*
X119370756Y-85050983D01*
X119508460Y-85109838D01*
X119619653Y-85192144D01*
X119685882Y-85284572D01*
X119694549Y-85314109D01*
X119708563Y-85405226D01*
X119714987Y-85513676D01*
X119712046Y-85602422D01*
X119690560Y-85687590D01*
X119641607Y-85757077D01*
X119596795Y-85809376D01*
X119589419Y-85837995D01*
X119621531Y-85852892D01*
X119659062Y-85888781D01*
X119689072Y-85958355D01*
X119702413Y-86032461D01*
X119690360Y-86082055D01*
X119681212Y-86084662D01*
X119620324Y-86089830D01*
X119512756Y-86093982D01*
X119370040Y-86096746D01*
X119203708Y-86097750D01*
X118732750Y-86097750D01*
X118732750Y-85849041D01*
X118732854Y-85820216D01*
X118735516Y-85705679D01*
X118741039Y-85621656D01*
X118748444Y-85584639D01*
X118787406Y-85577671D01*
X118859569Y-85582950D01*
X118900687Y-85591090D01*
X118944707Y-85621363D01*
X118955000Y-85688603D01*
X118956641Y-85731401D01*
X118972425Y-85764926D01*
X119018816Y-85778015D01*
X119112256Y-85780250D01*
X119209197Y-85774805D01*
X119343887Y-85740214D01*
X119429287Y-85676814D01*
X119461527Y-85588207D01*
X119436740Y-85477996D01*
X119436528Y-85477532D01*
X119411193Y-85438588D01*
X119370390Y-85409424D01*
X119306130Y-85388965D01*
X119210421Y-85376133D01*
X119075272Y-85369853D01*
X118892691Y-85369047D01*
X118654689Y-85372639D01*
X118576806Y-85374277D01*
X118400442Y-85378985D01*
X118274382Y-85384900D01*
X118188930Y-85393239D01*
X118134391Y-85405224D01*
X118101070Y-85422073D01*
X118079270Y-85445005D01*
X118047206Y-85503517D01*
X118039701Y-85596651D01*
X118084644Y-85674769D01*
X118175098Y-85728506D01*
X118304125Y-85748500D01*
X118447000Y-85748500D01*
X118447000Y-86105066D01*
X118264470Y-86082261D01*
X118262361Y-86081996D01*
X118075420Y-86044994D01*
X117942487Y-85983323D01*
X117856400Y-85889188D01*
X117810000Y-85754791D01*
X117796125Y-85572335D01*
X117805511Y-85402203D01*
X117838351Y-85276496D01*
X117901174Y-85182235D01*
X118000508Y-85104477D01*
X118025238Y-85089810D01*
X118072210Y-85067869D01*
X118129149Y-85051995D01*
X118206762Y-85040892D01*
X118315755Y-85033260D01*
X118466834Y-85027801D01*
X118670706Y-85023218D01*
X118723298Y-85022306D01*
X118944713Y-85021347D01*
X119130269Y-85025379D01*
G37*
X119130269Y-85025379D02*
X119270797Y-85034083D01*
X119357123Y-85047138D01*
X119370756Y-85050983D01*
X119508460Y-85109838D01*
X119619653Y-85192144D01*
X119685882Y-85284572D01*
X119694549Y-85314109D01*
X119708563Y-85405226D01*
X119714987Y-85513676D01*
X119712046Y-85602422D01*
X119690560Y-85687590D01*
X119641607Y-85757077D01*
X119596795Y-85809376D01*
X119589419Y-85837995D01*
X119621531Y-85852892D01*
X119659062Y-85888781D01*
X119689072Y-85958355D01*
X119702413Y-86032461D01*
X119690360Y-86082055D01*
X119681212Y-86084662D01*
X119620324Y-86089830D01*
X119512756Y-86093982D01*
X119370040Y-86096746D01*
X119203708Y-86097750D01*
X118732750Y-86097750D01*
X118732750Y-85849041D01*
X118732854Y-85820216D01*
X118735516Y-85705679D01*
X118741039Y-85621656D01*
X118748444Y-85584639D01*
X118787406Y-85577671D01*
X118859569Y-85582950D01*
X118900687Y-85591090D01*
X118944707Y-85621363D01*
X118955000Y-85688603D01*
X118956641Y-85731401D01*
X118972425Y-85764926D01*
X119018816Y-85778015D01*
X119112256Y-85780250D01*
X119209197Y-85774805D01*
X119343887Y-85740214D01*
X119429287Y-85676814D01*
X119461527Y-85588207D01*
X119436740Y-85477996D01*
X119436528Y-85477532D01*
X119411193Y-85438588D01*
X119370390Y-85409424D01*
X119306130Y-85388965D01*
X119210421Y-85376133D01*
X119075272Y-85369853D01*
X118892691Y-85369047D01*
X118654689Y-85372639D01*
X118576806Y-85374277D01*
X118400442Y-85378985D01*
X118274382Y-85384900D01*
X118188930Y-85393239D01*
X118134391Y-85405224D01*
X118101070Y-85422073D01*
X118079270Y-85445005D01*
X118047206Y-85503517D01*
X118039701Y-85596651D01*
X118084644Y-85674769D01*
X118175098Y-85728506D01*
X118304125Y-85748500D01*
X118447000Y-85748500D01*
X118447000Y-86105066D01*
X118264470Y-86082261D01*
X118262361Y-86081996D01*
X118075420Y-86044994D01*
X117942487Y-85983323D01*
X117856400Y-85889188D01*
X117810000Y-85754791D01*
X117796125Y-85572335D01*
X117805511Y-85402203D01*
X117838351Y-85276496D01*
X117901174Y-85182235D01*
X118000508Y-85104477D01*
X118025238Y-85089810D01*
X118072210Y-85067869D01*
X118129149Y-85051995D01*
X118206762Y-85040892D01*
X118315755Y-85033260D01*
X118466834Y-85027801D01*
X118670706Y-85023218D01*
X118723298Y-85022306D01*
X118944713Y-85021347D01*
X119130269Y-85025379D01*
G36*
X117206742Y-74318500D02*
G01*
X117176502Y-74395901D01*
X117123372Y-74509779D01*
X117060666Y-74606640D01*
X116971241Y-74715375D01*
X116946648Y-74743416D01*
X116907966Y-74783695D01*
X116898676Y-74778892D01*
X116910147Y-74731250D01*
X116922832Y-74688781D01*
X117021232Y-74462915D01*
X117157658Y-74270875D01*
X117272568Y-74143875D01*
X117206742Y-74318500D01*
G37*
X117206742Y-74318500D02*
X117176502Y-74395901D01*
X117123372Y-74509779D01*
X117060666Y-74606640D01*
X116971241Y-74715375D01*
X116946648Y-74743416D01*
X116907966Y-74783695D01*
X116898676Y-74778892D01*
X116910147Y-74731250D01*
X116922832Y-74688781D01*
X117021232Y-74462915D01*
X117157658Y-74270875D01*
X117272568Y-74143875D01*
X117206742Y-74318500D01*
G36*
X121622000Y-87335355D02*
G01*
X121621995Y-87361630D01*
X121621022Y-87487822D01*
X121615981Y-87564724D01*
X121603490Y-87604542D01*
X121580166Y-87619482D01*
X121542625Y-87621750D01*
X121510769Y-87620246D01*
X121478956Y-87604218D01*
X121465823Y-87557216D01*
X121463250Y-87463000D01*
X121463250Y-87304250D01*
X121018750Y-87304250D01*
X121018750Y-87431250D01*
X121018721Y-87442309D01*
X121013244Y-87518621D01*
X120990514Y-87551318D01*
X120939375Y-87558250D01*
X120932462Y-87558204D01*
X120884767Y-87549441D01*
X120864332Y-87513073D01*
X120860000Y-87431250D01*
X120860000Y-87304250D01*
X120479000Y-87304250D01*
X120479000Y-87465108D01*
X120478031Y-87541162D01*
X120469491Y-87597957D01*
X120445050Y-87617821D01*
X120396402Y-87615921D01*
X120356577Y-87608671D01*
X120332100Y-87590083D01*
X120319403Y-87547141D01*
X120314645Y-87466796D01*
X120313983Y-87336000D01*
X120314162Y-87066125D01*
X121622000Y-87048961D01*
X121622000Y-87335355D01*
G37*
X121622000Y-87335355D02*
X121621995Y-87361630D01*
X121621022Y-87487822D01*
X121615981Y-87564724D01*
X121603490Y-87604542D01*
X121580166Y-87619482D01*
X121542625Y-87621750D01*
X121510769Y-87620246D01*
X121478956Y-87604218D01*
X121465823Y-87557216D01*
X121463250Y-87463000D01*
X121463250Y-87304250D01*
X121018750Y-87304250D01*
X121018750Y-87431250D01*
X121018721Y-87442309D01*
X121013244Y-87518621D01*
X120990514Y-87551318D01*
X120939375Y-87558250D01*
X120932462Y-87558204D01*
X120884767Y-87549441D01*
X120864332Y-87513073D01*
X120860000Y-87431250D01*
X120860000Y-87304250D01*
X120479000Y-87304250D01*
X120479000Y-87465108D01*
X120478031Y-87541162D01*
X120469491Y-87597957D01*
X120445050Y-87617821D01*
X120396402Y-87615921D01*
X120356577Y-87608671D01*
X120332100Y-87590083D01*
X120319403Y-87547141D01*
X120314645Y-87466796D01*
X120313983Y-87336000D01*
X120314162Y-87066125D01*
X121622000Y-87048961D01*
X121622000Y-87335355D01*
G36*
X116295609Y-74197211D02*
G01*
X116344825Y-74252052D01*
X116405520Y-74334107D01*
X116468995Y-74431047D01*
X116526550Y-74530541D01*
X116569484Y-74620261D01*
X116598583Y-74692677D01*
X116625011Y-74766165D01*
X116622686Y-74786763D01*
X116588851Y-74758055D01*
X116520751Y-74683625D01*
X116490573Y-74647108D01*
X116423257Y-74549630D01*
X116358357Y-74438365D01*
X116304386Y-74329757D01*
X116269857Y-74240248D01*
X116263280Y-74186282D01*
X116266572Y-74181915D01*
X116295609Y-74197211D01*
G37*
X116295609Y-74197211D02*
X116344825Y-74252052D01*
X116405520Y-74334107D01*
X116468995Y-74431047D01*
X116526550Y-74530541D01*
X116569484Y-74620261D01*
X116598583Y-74692677D01*
X116625011Y-74766165D01*
X116622686Y-74786763D01*
X116588851Y-74758055D01*
X116520751Y-74683625D01*
X116490573Y-74647108D01*
X116423257Y-74549630D01*
X116358357Y-74438365D01*
X116304386Y-74329757D01*
X116269857Y-74240248D01*
X116263280Y-74186282D01*
X116266572Y-74181915D01*
X116295609Y-74197211D01*
G36*
X121021154Y-79430250D02*
G01*
X121038132Y-79538045D01*
X121057182Y-79658410D01*
X121070757Y-79743466D01*
X121076676Y-79779500D01*
X121073732Y-79811970D01*
X121062679Y-79895113D01*
X121045258Y-80015632D01*
X121023294Y-80160500D01*
X120966795Y-80525625D01*
X120910483Y-80164924D01*
X120896640Y-80074963D01*
X120878140Y-79937984D01*
X120870341Y-79829492D01*
X120873274Y-79727050D01*
X120886970Y-79608215D01*
X120911458Y-79450549D01*
X120968747Y-79096875D01*
X121021154Y-79430250D01*
G37*
X121021154Y-79430250D02*
X121038132Y-79538045D01*
X121057182Y-79658410D01*
X121070757Y-79743466D01*
X121076676Y-79779500D01*
X121073732Y-79811970D01*
X121062679Y-79895113D01*
X121045258Y-80015632D01*
X121023294Y-80160500D01*
X120966795Y-80525625D01*
X120910483Y-80164924D01*
X120896640Y-80074963D01*
X120878140Y-79937984D01*
X120870341Y-79829492D01*
X120873274Y-79727050D01*
X120886970Y-79608215D01*
X120911458Y-79450549D01*
X120968747Y-79096875D01*
X121021154Y-79430250D01*
G36*
X121622000Y-81557500D02*
G01*
X121248937Y-81558479D01*
X120875875Y-81559459D01*
X121241000Y-81710830D01*
X121315042Y-81741715D01*
X121445708Y-81798474D01*
X121531314Y-81841304D01*
X121581706Y-81876446D01*
X121606730Y-81910140D01*
X121616234Y-81948626D01*
X121626343Y-82035051D01*
X120304375Y-82017875D01*
X120315417Y-81938500D01*
X120324520Y-81884786D01*
X120334340Y-81850784D01*
X120352264Y-81848157D01*
X120422267Y-81844767D01*
X120532291Y-81842086D01*
X120668648Y-81840534D01*
X120771195Y-81838562D01*
X120880387Y-81832479D01*
X120949660Y-81823449D01*
X120967224Y-81812575D01*
X120950262Y-81801758D01*
X120882765Y-81768053D01*
X120779109Y-81720952D01*
X120653625Y-81667102D01*
X120650927Y-81665974D01*
X120495199Y-81597760D01*
X120391485Y-81543169D01*
X120331687Y-81495817D01*
X120307704Y-81449314D01*
X120311436Y-81397274D01*
X120314324Y-81387783D01*
X120326147Y-81369187D01*
X120351641Y-81355582D01*
X120399109Y-81346192D01*
X120476857Y-81340240D01*
X120593189Y-81336950D01*
X120756411Y-81335545D01*
X120974828Y-81335250D01*
X121622000Y-81335250D01*
X121622000Y-81557500D01*
G37*
X121622000Y-81557500D02*
X121248937Y-81558479D01*
X120875875Y-81559459D01*
X121241000Y-81710830D01*
X121315042Y-81741715D01*
X121445708Y-81798474D01*
X121531314Y-81841304D01*
X121581706Y-81876446D01*
X121606730Y-81910140D01*
X121616234Y-81948626D01*
X121626343Y-82035051D01*
X120304375Y-82017875D01*
X120315417Y-81938500D01*
X120324520Y-81884786D01*
X120334340Y-81850784D01*
X120352264Y-81848157D01*
X120422267Y-81844767D01*
X120532291Y-81842086D01*
X120668648Y-81840534D01*
X120771195Y-81838562D01*
X120880387Y-81832479D01*
X120949660Y-81823449D01*
X120967224Y-81812575D01*
X120950262Y-81801758D01*
X120882765Y-81768053D01*
X120779109Y-81720952D01*
X120653625Y-81667102D01*
X120650927Y-81665974D01*
X120495199Y-81597760D01*
X120391485Y-81543169D01*
X120331687Y-81495817D01*
X120307704Y-81449314D01*
X120311436Y-81397274D01*
X120314324Y-81387783D01*
X120326147Y-81369187D01*
X120351641Y-81355582D01*
X120399109Y-81346192D01*
X120476857Y-81340240D01*
X120593189Y-81336950D01*
X120756411Y-81335545D01*
X120974828Y-81335250D01*
X121622000Y-81335250D01*
X121622000Y-81557500D01*
%TO.C,*%
G36*
X124074000Y-87605000D02*
G01*
X122892000Y-87605000D01*
X122904000Y-87395000D01*
X123489000Y-87390000D01*
X124074000Y-87384000D01*
X124074000Y-87605000D01*
G37*
G36*
X124074000Y-85105000D02*
G01*
X122424000Y-85095000D01*
X122412000Y-84885000D01*
X124074000Y-84885000D01*
X124074000Y-85105000D01*
G37*
G36*
X124074000Y-83285000D02*
G01*
X123137000Y-83285000D01*
X123095000Y-83338000D01*
X123074000Y-83371000D01*
X123074000Y-83505000D01*
X123085000Y-83515000D01*
X123152000Y-83528000D01*
X123305000Y-83536000D01*
X123583000Y-83541000D01*
X124074000Y-83547000D01*
X124074000Y-83765000D01*
X123599000Y-83765000D01*
X123387000Y-83763000D01*
X123162000Y-83756000D01*
X123044000Y-83746000D01*
X123041000Y-83745000D01*
X122917000Y-83673000D01*
X122893000Y-83641000D01*
X122883000Y-83537000D01*
X122886000Y-83523000D01*
X122945000Y-83380000D01*
X122946000Y-83378000D01*
X122990000Y-83298000D01*
X122943000Y-83285000D01*
X122901000Y-83272000D01*
X122898000Y-83180000D01*
X122904000Y-83075000D01*
X123489000Y-83070000D01*
X124074000Y-83064000D01*
X124074000Y-83285000D01*
G37*
G36*
X122642000Y-87386000D02*
G01*
X122721000Y-87398000D01*
X122725000Y-87408000D01*
X122734000Y-87508000D01*
X122734000Y-87605000D01*
X122494000Y-87605000D01*
X122494000Y-87385000D01*
X122601000Y-87385000D01*
X122642000Y-87386000D01*
G37*
G36*
X123532000Y-85307000D02*
G01*
X123811000Y-85324000D01*
X123977000Y-85383000D01*
X124066000Y-85493000D01*
X124091000Y-85617000D01*
X124073000Y-85800000D01*
X124064000Y-85819000D01*
X123969000Y-85918000D01*
X123927000Y-85946000D01*
X123863000Y-85967000D01*
X123743000Y-85976000D01*
X123516000Y-85981000D01*
X123375000Y-85983000D01*
X123209000Y-85981000D01*
X123121000Y-85969000D01*
X123055000Y-85941000D01*
X122927000Y-85839000D01*
X122886000Y-85661000D01*
X122887807Y-85649000D01*
X123058000Y-85649000D01*
X123060000Y-85707000D01*
X123108000Y-85752000D01*
X123241000Y-85771000D01*
X123497000Y-85775000D01*
X123565000Y-85775000D01*
X123756000Y-85772000D01*
X123849000Y-85761000D01*
X123892000Y-85737000D01*
X123934000Y-85644000D01*
X123929000Y-85601000D01*
X123885000Y-85557000D01*
X123761000Y-85537000D01*
X123516000Y-85530000D01*
X123316000Y-85529000D01*
X123152000Y-85540000D01*
X123079000Y-85577000D01*
X123058000Y-85649000D01*
X122887807Y-85649000D01*
X122911000Y-85495000D01*
X123044000Y-85357000D01*
X123102000Y-85333000D01*
X123214000Y-85316000D01*
X123316000Y-85312000D01*
X123424000Y-85308000D01*
X123532000Y-85307000D01*
G37*
G36*
X123822000Y-78706000D02*
G01*
X123855000Y-78760000D01*
X123862000Y-78924000D01*
X123761000Y-79043000D01*
X123704000Y-79069000D01*
X123765000Y-79094000D01*
X123811000Y-79123000D01*
X123872000Y-79264000D01*
X123836000Y-79446000D01*
X123709000Y-79609000D01*
X123447000Y-79732000D01*
X123117000Y-79758000D01*
X122799000Y-79673000D01*
X122636000Y-79562000D01*
X122474000Y-79330000D01*
X122440000Y-79165000D01*
X122440000Y-78898000D01*
X122491000Y-78675000D01*
X122671000Y-78409000D01*
X122974000Y-78216000D01*
X123390000Y-78133000D01*
X123671000Y-78139000D01*
X123948000Y-78226000D01*
X124188000Y-78426000D01*
X124328000Y-78745000D01*
X124342000Y-78875000D01*
X124339000Y-79082000D01*
X124320000Y-79273000D01*
X124288000Y-79378000D01*
X124285000Y-79379000D01*
X124204000Y-79374000D01*
X124148000Y-79358000D01*
X124147000Y-79287000D01*
X124158000Y-79177000D01*
X124163000Y-78985000D01*
X124162000Y-78868000D01*
X124148000Y-78747000D01*
X124110000Y-78655000D01*
X124067000Y-78583000D01*
X123861000Y-78401000D01*
X123555000Y-78330000D01*
X123213000Y-78354000D01*
X122890000Y-78488000D01*
X122674000Y-78727000D01*
X122649000Y-78774000D01*
X122611000Y-78881000D01*
X122605000Y-79035000D01*
X122605000Y-79069000D01*
X122641000Y-79281000D01*
X122757000Y-79439000D01*
X122774000Y-79454000D01*
X123020000Y-79576000D01*
X123320000Y-79599000D01*
X123600000Y-79518000D01*
X123692000Y-79441000D01*
X123752000Y-79326000D01*
X123722000Y-79252000D01*
X123683000Y-79251000D01*
X123522000Y-79269000D01*
X123287000Y-79302000D01*
X123138000Y-79325000D01*
X122950000Y-79354000D01*
X122871000Y-79365000D01*
X122863000Y-79313000D01*
X122858000Y-79160000D01*
X122860023Y-79110000D01*
X123014000Y-79110000D01*
X123032000Y-79138000D01*
X123114000Y-79136000D01*
X123307000Y-79106000D01*
X123477000Y-79076000D01*
X123625000Y-79026000D01*
X123690000Y-78956000D01*
X123711000Y-78895000D01*
X123665000Y-78826000D01*
X123655000Y-78817000D01*
X123592000Y-78788000D01*
X123460000Y-78789000D01*
X123279000Y-78821000D01*
X123087000Y-78928000D01*
X123014000Y-79083000D01*
X123014000Y-79110000D01*
X122860023Y-79110000D01*
X122865000Y-78987000D01*
X122895000Y-78883000D01*
X123050000Y-78715000D01*
X123348000Y-78593000D01*
X123592000Y-78584000D01*
X123623000Y-78583000D01*
X123822000Y-78706000D01*
G37*
G36*
X123602000Y-88729000D02*
G01*
X123847000Y-88748000D01*
X123984000Y-88795000D01*
X124059000Y-88886000D01*
X124085000Y-88953000D01*
X124054000Y-89140000D01*
X124034000Y-89175000D01*
X124044000Y-89205000D01*
X124062000Y-89214000D01*
X124074000Y-89315000D01*
X124074000Y-89425000D01*
X122412000Y-89425000D01*
X122424000Y-89215000D01*
X122689000Y-89209000D01*
X122712000Y-89209000D01*
X122884000Y-89203000D01*
X122954000Y-89196000D01*
X122953000Y-89192000D01*
X122924408Y-89139000D01*
X123069000Y-89139000D01*
X123087000Y-89195000D01*
X123484000Y-89200000D01*
X123696000Y-89202000D01*
X123846000Y-89196000D01*
X123897000Y-89180000D01*
X123913000Y-89081000D01*
X123881000Y-88982000D01*
X123849000Y-88971000D01*
X123698000Y-88955000D01*
X123486000Y-88947000D01*
X123281000Y-88949000D01*
X123149000Y-88964000D01*
X123079000Y-89005000D01*
X123069000Y-89139000D01*
X122924408Y-89139000D01*
X122912000Y-89116000D01*
X122879000Y-88991000D01*
X122953000Y-88838000D01*
X123144000Y-88745000D01*
X123301000Y-88730000D01*
X123486000Y-88729000D01*
X123561000Y-88728000D01*
X123602000Y-88729000D01*
G37*
G36*
X123559000Y-82195000D02*
G01*
X123795000Y-82205000D01*
X123930000Y-82234000D01*
X124012000Y-82293000D01*
X124073000Y-82397000D01*
X124091000Y-82521000D01*
X124059000Y-82705000D01*
X123949000Y-82812000D01*
X123760000Y-82865000D01*
X123674000Y-82865000D01*
X123674000Y-82671000D01*
X123779000Y-82658000D01*
X123879000Y-82632000D01*
X123934000Y-82534000D01*
X123933000Y-82514000D01*
X123865000Y-82437000D01*
X123672000Y-82408000D01*
X123494000Y-82401000D01*
X123494000Y-82870000D01*
X123289000Y-82862000D01*
X123260000Y-82861000D01*
X123102000Y-82846000D01*
X123011000Y-82809000D01*
X122929000Y-82729000D01*
X122890801Y-82546000D01*
X123054000Y-82546000D01*
X123095000Y-82628000D01*
X123244000Y-82660000D01*
X123374000Y-82670000D01*
X123374000Y-82400000D01*
X123244000Y-82410000D01*
X123225000Y-82412000D01*
X123088000Y-82446000D01*
X123054000Y-82535000D01*
X123054000Y-82546000D01*
X122890801Y-82546000D01*
X122886000Y-82523000D01*
X122914000Y-82373000D01*
X123054000Y-82240000D01*
X123069000Y-82232000D01*
X123145000Y-82207000D01*
X123263000Y-82197000D01*
X123374000Y-82196000D01*
X123484000Y-82195000D01*
X123559000Y-82195000D01*
G37*
G36*
X123915000Y-79958000D02*
G01*
X124028000Y-80033000D01*
X124040000Y-80046000D01*
X124093000Y-80208000D01*
X123987000Y-80369000D01*
X123944000Y-80410000D01*
X123967000Y-80424000D01*
X124046000Y-80440000D01*
X124074000Y-80542000D01*
X124074000Y-80635000D01*
X123649000Y-80630000D01*
X123432000Y-80626000D01*
X123193000Y-80611000D01*
X123051000Y-80583000D01*
X122969000Y-80534000D01*
X122898000Y-80417000D01*
X122886000Y-80212000D01*
X122973000Y-80041000D01*
X123038000Y-79997000D01*
X123229000Y-79945000D01*
X123265000Y-79959000D01*
X123274000Y-80055000D01*
X123274000Y-80165000D01*
X123195000Y-80165000D01*
X123111000Y-80181000D01*
X123054000Y-80293000D01*
X123088000Y-80371000D01*
X123243000Y-80405000D01*
X123331000Y-80405000D01*
X123472000Y-80405000D01*
X123631000Y-80405000D01*
X123727000Y-80404000D01*
X123834000Y-80384000D01*
X123885000Y-80324000D01*
X123911000Y-80266000D01*
X123883000Y-80209000D01*
X123867000Y-80191000D01*
X123764000Y-80165000D01*
X123663000Y-80188000D01*
X123508000Y-80343000D01*
X123472000Y-80405000D01*
X123331000Y-80405000D01*
X123407000Y-80253000D01*
X123484000Y-80121000D01*
X123650000Y-79975000D01*
X123764000Y-79962000D01*
X123870000Y-79951000D01*
X123915000Y-79958000D01*
G37*
G36*
X124074000Y-81065000D02*
G01*
X122412000Y-81065000D01*
X122424000Y-80855000D01*
X124074000Y-80845000D01*
X124074000Y-81065000D01*
G37*
G36*
X123606000Y-84036000D02*
G01*
X123669000Y-84083000D01*
X123725000Y-84024000D01*
X123826000Y-83967000D01*
X123966000Y-84007000D01*
X124011000Y-84049000D01*
X124033000Y-84007000D01*
X124038000Y-83999000D01*
X124163000Y-83916000D01*
X124188000Y-83918000D01*
X124312000Y-83924000D01*
X124370000Y-83979000D01*
X124434000Y-84175000D01*
X124441000Y-84261000D01*
X124406000Y-84512000D01*
X124289000Y-84651000D01*
X124244000Y-84669000D01*
X124050000Y-84671000D01*
X123910000Y-84570000D01*
X123887000Y-84502000D01*
X123856000Y-84336000D01*
X123839000Y-84223000D01*
X123832702Y-84200000D01*
X124023000Y-84200000D01*
X124034000Y-84325000D01*
X124047000Y-84399000D01*
X124110000Y-84519000D01*
X124214000Y-84489000D01*
X124244000Y-84451000D01*
X124267000Y-84324000D01*
X124268000Y-84306000D01*
X124250000Y-84145000D01*
X124188000Y-84093000D01*
X124067000Y-84129000D01*
X124048000Y-84146000D01*
X124023000Y-84200000D01*
X123832702Y-84200000D01*
X123816000Y-84139000D01*
X123756000Y-84144000D01*
X123730000Y-84165000D01*
X123714000Y-84266000D01*
X123698000Y-84396000D01*
X123581000Y-84547000D01*
X123545000Y-84568000D01*
X123457000Y-84590000D01*
X123289000Y-84595000D01*
X123074000Y-84594000D01*
X123041000Y-84680000D01*
X123031000Y-84706000D01*
X123004000Y-84765000D01*
X122937000Y-84743000D01*
X122875000Y-84721000D01*
X122907000Y-84658000D01*
X122908000Y-84656000D01*
X122968000Y-84562000D01*
X122983000Y-84539000D01*
X122947000Y-84476000D01*
X122909000Y-84420000D01*
X122888789Y-84260000D01*
X123036000Y-84260000D01*
X123073000Y-84374000D01*
X123078000Y-84378000D01*
X123215000Y-84419000D01*
X123397000Y-84417000D01*
X123523000Y-84373000D01*
X123553000Y-84285000D01*
X123521000Y-84183000D01*
X123435000Y-84159000D01*
X123276000Y-84145000D01*
X123145000Y-84153000D01*
X123117000Y-84163000D01*
X123036000Y-84260000D01*
X122888789Y-84260000D01*
X122885000Y-84230000D01*
X122971000Y-84058000D01*
X123142000Y-83968000D01*
X123276000Y-83960000D01*
X123388000Y-83953000D01*
X123606000Y-84036000D01*
G37*
G36*
X124074000Y-88065000D02*
G01*
X123123000Y-88065000D01*
X123088000Y-88123000D01*
X123067000Y-88166000D01*
X123078000Y-88281000D01*
X123126000Y-88293000D01*
X123289000Y-88302000D01*
X123588000Y-88305000D01*
X124074000Y-88305000D01*
X124074000Y-88527000D01*
X122970000Y-88515000D01*
X122920000Y-88456000D01*
X122878000Y-88342000D01*
X122952000Y-88152000D01*
X123013000Y-88065000D01*
X122953000Y-88065000D01*
X122902000Y-88051000D01*
X122894000Y-87955000D01*
X122894000Y-87845000D01*
X124074000Y-87845000D01*
X124074000Y-88065000D01*
G37*
G36*
X123039000Y-86148000D02*
G01*
X123251000Y-86183000D01*
X123530000Y-86227000D01*
X124076000Y-86314000D01*
X124070000Y-86414000D01*
X124064000Y-86513000D01*
X123677000Y-86588000D01*
X123541000Y-86615000D01*
X123357000Y-86652000D01*
X123282000Y-86670000D01*
X123308000Y-86678000D01*
X123450000Y-86709000D01*
X123674000Y-86754000D01*
X124074000Y-86830000D01*
X124074000Y-87016000D01*
X123499000Y-87111000D01*
X123461000Y-87117000D01*
X123186000Y-87162000D01*
X122989000Y-87193000D01*
X122909000Y-87205000D01*
X122905000Y-87202000D01*
X122894000Y-87118000D01*
X122894000Y-87031000D01*
X123303000Y-86974000D01*
X123458000Y-86951000D01*
X123637000Y-86922000D01*
X123702000Y-86906000D01*
X123672000Y-86897000D01*
X123525000Y-86867000D01*
X123297000Y-86824000D01*
X122904000Y-86753000D01*
X122892000Y-86589000D01*
X122988000Y-86569000D01*
X123013000Y-86564000D01*
X123179000Y-86533000D01*
X123408000Y-86493000D01*
X123487000Y-86479000D01*
X123659000Y-86446000D01*
X123725000Y-86429000D01*
X123714000Y-86426000D01*
X123598000Y-86407000D01*
X123402000Y-86376000D01*
X123183000Y-86343000D01*
X123000000Y-86317000D01*
X122909000Y-86306000D01*
X122904000Y-86301000D01*
X122894000Y-86213000D01*
X122898000Y-86143000D01*
X122939000Y-86131000D01*
X122940000Y-86131000D01*
X123039000Y-86148000D01*
G37*
G36*
X124474000Y-81525000D02*
G01*
X123990000Y-81525000D01*
X124042000Y-81587000D01*
X124090000Y-81688000D01*
X124049000Y-81867000D01*
X124035000Y-81886000D01*
X123939000Y-81958000D01*
X123770000Y-81994000D01*
X123484000Y-82004000D01*
X123430000Y-82004000D01*
X123187000Y-81996000D01*
X123044000Y-81966000D01*
X122949000Y-81907000D01*
X122909000Y-81863000D01*
X122886000Y-81753000D01*
X122886000Y-81735000D01*
X122913310Y-81645000D01*
X123056000Y-81645000D01*
X123108000Y-81760000D01*
X123162000Y-81782000D01*
X123274000Y-81792000D01*
X123493000Y-81794000D01*
X123746000Y-81787000D01*
X123869000Y-81768000D01*
X123881000Y-81761000D01*
X123913000Y-81669000D01*
X123913000Y-81664000D01*
X123906000Y-81583000D01*
X123859000Y-81542000D01*
X123733000Y-81527000D01*
X123486000Y-81525000D01*
X123100000Y-81525000D01*
X123077000Y-81576000D01*
X123056000Y-81645000D01*
X122913310Y-81645000D01*
X122930000Y-81590000D01*
X122964000Y-81538000D01*
X122935000Y-81525000D01*
X122903000Y-81511000D01*
X122894000Y-81415000D01*
X122894000Y-81305000D01*
X124474000Y-81305000D01*
X124474000Y-81525000D01*
G37*
G36*
X139522000Y-59201500D02*
G01*
X139610000Y-59268500D01*
X139688000Y-59377500D01*
X139724000Y-59637500D01*
X139691000Y-59776500D01*
X139573000Y-59922500D01*
X139564000Y-59926500D01*
X139405000Y-59950500D01*
X139249000Y-59922500D01*
X139148000Y-59813500D01*
X139101000Y-59572500D01*
X139108000Y-59453500D01*
X139150000Y-59335500D01*
X139241000Y-59231500D01*
X139421000Y-59192500D01*
X139522000Y-59201500D01*
G37*
G36*
X133721000Y-61316500D02*
G01*
X133702000Y-61492500D01*
X133662000Y-61640500D01*
X133616000Y-61756500D01*
X133410000Y-62044500D01*
X133125000Y-62201500D01*
X132939000Y-62229500D01*
X132615000Y-62178500D01*
X132356000Y-62006500D01*
X132232000Y-61834500D01*
X132132000Y-61541500D01*
X132102000Y-61142500D01*
X132105951Y-61061500D01*
X132483000Y-61061500D01*
X132495000Y-61147500D01*
X132597000Y-61246500D01*
X132643000Y-61261500D01*
X132859000Y-61283500D01*
X132898000Y-61284500D01*
X133166000Y-61266500D01*
X133308000Y-61190500D01*
X133350000Y-61044500D01*
X133313000Y-60936500D01*
X133163000Y-60864500D01*
X132878000Y-60844500D01*
X132671000Y-60861500D01*
X132525000Y-60928500D01*
X132483000Y-61061500D01*
X132105951Y-61061500D01*
X132116000Y-60855500D01*
X132194000Y-60534500D01*
X132352000Y-60284500D01*
X132482000Y-60168500D01*
X132752000Y-60060500D01*
X132841000Y-60046500D01*
X133167000Y-60086500D01*
X133446000Y-60280500D01*
X133578000Y-60455500D01*
X133698000Y-60782500D01*
X133714000Y-61044500D01*
X133725000Y-61212500D01*
X133721000Y-61316500D01*
G37*
G36*
X138741000Y-60091500D02*
G01*
X138870000Y-60215500D01*
X138920000Y-60302500D01*
X138920000Y-62005500D01*
X138864000Y-62086500D01*
X138846000Y-62110500D01*
X138764000Y-62189500D01*
X138725000Y-62201500D01*
X138571000Y-62202500D01*
X138449000Y-62161500D01*
X138430000Y-62143500D01*
X138378000Y-62074500D01*
X138348000Y-61968500D01*
X138333000Y-61785500D01*
X138326000Y-61482500D01*
X138325000Y-61407500D01*
X138315000Y-61116500D01*
X138295000Y-60942500D01*
X138259000Y-60853500D01*
X138200000Y-60812500D01*
X138114000Y-60801500D01*
X138008000Y-60900500D01*
X137994000Y-60936500D01*
X137979000Y-61021500D01*
X137972000Y-61174500D01*
X137970000Y-61442500D01*
X137969000Y-61626500D01*
X137961000Y-61857500D01*
X137948000Y-61979500D01*
X137942000Y-61999500D01*
X137862000Y-62127500D01*
X137805000Y-62178500D01*
X137687000Y-62207500D01*
X137547000Y-62196500D01*
X137407000Y-62077500D01*
X137388000Y-62045500D01*
X137372000Y-61988500D01*
X137362000Y-61884500D01*
X137357000Y-61694500D01*
X137353000Y-61382500D01*
X137353000Y-61041500D01*
X137366000Y-60699500D01*
X137398000Y-60463500D01*
X137456000Y-60301500D01*
X137543000Y-60183500D01*
X137658000Y-60095500D01*
X137827000Y-60072500D01*
X137977000Y-60100500D01*
X138156000Y-60255500D01*
X138252000Y-60540500D01*
X138284000Y-60674500D01*
X138311000Y-60654500D01*
X138331000Y-60480500D01*
X138357000Y-60285500D01*
X138447000Y-60122500D01*
X138614000Y-60072500D01*
X138741000Y-60091500D01*
G37*
G36*
X151388000Y-61658500D02*
G01*
X151330000Y-61928500D01*
X151224000Y-62082500D01*
X151061000Y-62191500D01*
X150996000Y-62203500D01*
X150810000Y-62208500D01*
X150664000Y-62185500D01*
X150628000Y-62167500D01*
X150487000Y-62005500D01*
X150430000Y-61781500D01*
X150403000Y-61752500D01*
X150391000Y-61758500D01*
X150365000Y-61871500D01*
X150316000Y-62053500D01*
X150206000Y-62184500D01*
X150092000Y-62211500D01*
X149914000Y-62171500D01*
X149807000Y-62040500D01*
X149796000Y-62013500D01*
X149780000Y-61949500D01*
X149772000Y-61843500D01*
X149772000Y-61654500D01*
X149775000Y-61345500D01*
X149775693Y-61312500D01*
X150433000Y-61312500D01*
X150462000Y-61406500D01*
X150490000Y-61418500D01*
X150640000Y-61432500D01*
X150692000Y-61431500D01*
X150821000Y-61401500D01*
X150847000Y-61312500D01*
X150802000Y-61226500D01*
X150640000Y-61193500D01*
X150498000Y-61215500D01*
X150433000Y-61312500D01*
X149775693Y-61312500D01*
X149780000Y-61107500D01*
X149788000Y-60865500D01*
X149800000Y-60717500D01*
X149819000Y-60623500D01*
X149829000Y-60588500D01*
X149978000Y-60293500D01*
X150208000Y-60114500D01*
X150272000Y-60087500D01*
X150378000Y-60066500D01*
X150560000Y-60062500D01*
X150716000Y-60064500D01*
X150828000Y-60081500D01*
X150940000Y-60128500D01*
X151021000Y-60170500D01*
X151138000Y-60248500D01*
X151233000Y-60386500D01*
X151264000Y-60624500D01*
X151167000Y-60842500D01*
X151149000Y-60862500D01*
X151018000Y-60926500D01*
X150811000Y-60900500D01*
X150721000Y-60881500D01*
X150563000Y-60862500D01*
X150500000Y-60866500D01*
X150418000Y-60918500D01*
X150370000Y-61045500D01*
X150373000Y-61092500D01*
X150415000Y-61103500D01*
X150716000Y-61038500D01*
X151038000Y-61060500D01*
X151266000Y-61201500D01*
X151322000Y-61312500D01*
X151358000Y-61383500D01*
X151388000Y-61658500D01*
G37*
G36*
X141503000Y-61493500D02*
G01*
X141501000Y-61728500D01*
X141462000Y-61916500D01*
X141390000Y-62034500D01*
X141220000Y-62175500D01*
X141159000Y-62194500D01*
X140958000Y-62211500D01*
X140783000Y-62185500D01*
X140652000Y-62078500D01*
X140561000Y-61827500D01*
X140548000Y-61776500D01*
X140512000Y-61761500D01*
X140485000Y-61881500D01*
X140476000Y-61951500D01*
X140379000Y-62146500D01*
X140190000Y-62212500D01*
X140064000Y-62188500D01*
X139939000Y-62046500D01*
X139932000Y-62031500D01*
X139908000Y-61966500D01*
X139896000Y-61876500D01*
X139891000Y-61715500D01*
X139890000Y-61440500D01*
X139890000Y-61353500D01*
X139891995Y-61294500D01*
X140552000Y-61294500D01*
X140587000Y-61399500D01*
X140589000Y-61401500D01*
X140698000Y-61430500D01*
X140852000Y-61431500D01*
X140949000Y-61403500D01*
X140968000Y-61315500D01*
X140910000Y-61216500D01*
X140844000Y-61201500D01*
X140690000Y-61202500D01*
X140580000Y-61232500D01*
X140552000Y-61294500D01*
X139891995Y-61294500D01*
X139904000Y-60939500D01*
X139942000Y-60644500D01*
X140013000Y-60434500D01*
X140122000Y-60274500D01*
X140132000Y-60263500D01*
X140343000Y-60112500D01*
X140631000Y-60056500D01*
X140905000Y-60073500D01*
X141170000Y-60183500D01*
X141309000Y-60298500D01*
X141386000Y-60504500D01*
X141388000Y-60528500D01*
X141345000Y-60768500D01*
X141205000Y-60904500D01*
X140992000Y-60914500D01*
X140927000Y-60897500D01*
X140718000Y-60861500D01*
X140596000Y-60880500D01*
X140553000Y-60908500D01*
X140490000Y-61066500D01*
X140491000Y-61084500D01*
X140535000Y-61104500D01*
X140665000Y-61068500D01*
X140830000Y-61037500D01*
X140989000Y-61036500D01*
X141112000Y-61050500D01*
X141353000Y-61154500D01*
X141451000Y-61315500D01*
X141482000Y-61366500D01*
X141503000Y-61493500D01*
G37*
G36*
X135608000Y-59198500D02*
G01*
X135743000Y-59228500D01*
X136063000Y-59393500D01*
X136331000Y-59696500D01*
X136507000Y-60116500D01*
X136584000Y-60642500D01*
X136585000Y-60650500D01*
X136554000Y-61179500D01*
X136409000Y-61626500D01*
X136324000Y-61775500D01*
X136046000Y-62060500D01*
X135680000Y-62211500D01*
X135544000Y-62227500D01*
X135225000Y-62206500D01*
X134949000Y-62122500D01*
X134841000Y-62059500D01*
X134685000Y-61885500D01*
X134640000Y-61632500D01*
X134663000Y-61414500D01*
X134770000Y-61222500D01*
X134785000Y-61209500D01*
X134952000Y-61155500D01*
X135225000Y-61190500D01*
X135481000Y-61229500D01*
X135696000Y-61205500D01*
X135808000Y-61121500D01*
X135922000Y-60956500D01*
X135941000Y-60899500D01*
X135967000Y-60665500D01*
X135939000Y-60441500D01*
X135835000Y-60255500D01*
X135652000Y-60132500D01*
X135468000Y-60121500D01*
X135240000Y-60166500D01*
X135197000Y-60178500D01*
X135033000Y-60196500D01*
X135005000Y-60196500D01*
X134850000Y-60155500D01*
X134744000Y-60008500D01*
X134702000Y-59905500D01*
X134687000Y-59745500D01*
X134722000Y-59522500D01*
X134865000Y-59341500D01*
X134907000Y-59312500D01*
X135099000Y-59232500D01*
X135383000Y-59198500D01*
X135444000Y-59195500D01*
X135608000Y-59198500D01*
G37*
G36*
X143463000Y-60682500D02*
G01*
X143483000Y-60765500D01*
X143494000Y-60883500D01*
X143499000Y-61078500D01*
X143500000Y-61392500D01*
X143500000Y-61542500D01*
X143498000Y-61789500D01*
X143492000Y-61931500D01*
X143480000Y-62006500D01*
X143459000Y-62052500D01*
X143455000Y-62058500D01*
X143351000Y-62167500D01*
X143348000Y-62169500D01*
X143182000Y-62212500D01*
X143055000Y-62190500D01*
X142906000Y-62048500D01*
X142887000Y-62008500D01*
X142869000Y-61932500D01*
X142859000Y-61794500D01*
X142854000Y-61547500D01*
X142846000Y-61132500D01*
X142758000Y-61132500D01*
X142652000Y-61145500D01*
X142467000Y-61269500D01*
X142425000Y-61325500D01*
X142364000Y-61472500D01*
X142328000Y-61709500D01*
X142319000Y-61788500D01*
X142271000Y-61999500D01*
X142180000Y-62132500D01*
X142109000Y-62186500D01*
X141985000Y-62208500D01*
X141885000Y-62208500D01*
X141790000Y-62168500D01*
X141770000Y-62153500D01*
X141671000Y-62032500D01*
X141652000Y-61995500D01*
X141628000Y-61901500D01*
X141625000Y-61733500D01*
X141656000Y-61444500D01*
X141789000Y-61138500D01*
X142018000Y-60949500D01*
X142067000Y-60906500D01*
X141999000Y-60852500D01*
X141877000Y-60777500D01*
X141730000Y-60565500D01*
X141655583Y-60283500D01*
X142194000Y-60283500D01*
X142209000Y-60473500D01*
X142307000Y-60601500D01*
X142397000Y-60624500D01*
X142598000Y-60632500D01*
X142716000Y-60631500D01*
X142815000Y-60621500D01*
X142849000Y-60593500D01*
X142863000Y-60505500D01*
X142870000Y-60326500D01*
X142870000Y-60228500D01*
X142849000Y-60085500D01*
X142762000Y-60036500D01*
X142563000Y-60035500D01*
X142479000Y-60038500D01*
X142350000Y-60052500D01*
X142289000Y-60082500D01*
X142263000Y-60110500D01*
X142194000Y-60283500D01*
X141655583Y-60283500D01*
X141654000Y-60277500D01*
X141654000Y-59928500D01*
X141747000Y-59587500D01*
X141936000Y-59358500D01*
X142001000Y-59313500D01*
X142105000Y-59263500D01*
X142240000Y-59236500D01*
X142448000Y-59224500D01*
X142773000Y-59222500D01*
X143066000Y-59223500D01*
X143265000Y-59232500D01*
X143376000Y-59259500D01*
X143439000Y-59313500D01*
X143490000Y-59404500D01*
X143530000Y-59511500D01*
X143540000Y-59672500D01*
X143529000Y-59808500D01*
X143436000Y-60030500D01*
X143251000Y-60126500D01*
X143250000Y-60127500D01*
X143163000Y-60175500D01*
X143228000Y-60268500D01*
X143274000Y-60326500D01*
X143356000Y-60432500D01*
X143463000Y-60682500D01*
G37*
G36*
X130803000Y-60082500D02*
G01*
X130935000Y-60217500D01*
X130947000Y-60243500D01*
X130966000Y-60302500D01*
X130977000Y-60404500D01*
X130984000Y-60588500D01*
X130990000Y-60893500D01*
X130991000Y-60926500D01*
X130997000Y-61222500D01*
X131005000Y-61399500D01*
X131017000Y-61492500D01*
X131035000Y-61538500D01*
X131142000Y-61595500D01*
X131272000Y-61540500D01*
X131320000Y-61489500D01*
X131330000Y-60895500D01*
X131332000Y-60776500D01*
X131338000Y-60514500D01*
X131346000Y-60360500D01*
X131360000Y-60276500D01*
X131381000Y-60223500D01*
X131470000Y-60109500D01*
X131650000Y-60062500D01*
X131784000Y-60083500D01*
X131920000Y-60214500D01*
X131935000Y-60244500D01*
X131949000Y-60305500D01*
X131956000Y-60419500D01*
X131959000Y-60623500D01*
X131959000Y-61050500D01*
X131957000Y-61355500D01*
X131952000Y-61548500D01*
X131941000Y-61667500D01*
X131923000Y-61751500D01*
X131903000Y-61816500D01*
X131857000Y-61937500D01*
X131852000Y-61948500D01*
X131742000Y-62088500D01*
X131620000Y-62185500D01*
X131598000Y-62193500D01*
X131428000Y-62207500D01*
X131328000Y-62197500D01*
X131223000Y-62145500D01*
X131145000Y-62065500D01*
X131055000Y-61819500D01*
X131043000Y-61748500D01*
X131011000Y-61720500D01*
X130984000Y-61841500D01*
X130968000Y-61942500D01*
X130862000Y-62142500D01*
X130674000Y-62212500D01*
X130555000Y-62192500D01*
X130427000Y-62058500D01*
X130380000Y-61962500D01*
X130380000Y-60908500D01*
X130381000Y-60611500D01*
X130385000Y-60426500D01*
X130392000Y-60319500D01*
X130405000Y-60260500D01*
X130426000Y-60216500D01*
X130510000Y-60109500D01*
X130694000Y-60058500D01*
X130803000Y-60082500D01*
G37*
G36*
X145750000Y-60088500D02*
G01*
X145893000Y-60237500D01*
X145900000Y-60250500D01*
X145936000Y-60363500D01*
X145932000Y-60503500D01*
X145882000Y-60713500D01*
X145781000Y-61032500D01*
X145706000Y-61251500D01*
X145622000Y-61482500D01*
X145567000Y-61616500D01*
X145538000Y-61671500D01*
X145364000Y-61877500D01*
X145126000Y-61962500D01*
X145012000Y-61976500D01*
X144971000Y-62152500D01*
X144947000Y-62267500D01*
X144930000Y-62379500D01*
X144956000Y-62452500D01*
X145041000Y-62512500D01*
X145118000Y-62464500D01*
X145209000Y-62301500D01*
X145251000Y-62205500D01*
X145406000Y-62017500D01*
X145590000Y-61971500D01*
X145782000Y-62074500D01*
X145853000Y-62171500D01*
X145910000Y-62432500D01*
X145876000Y-62651500D01*
X145724000Y-62901500D01*
X145474000Y-63044500D01*
X145232000Y-63069500D01*
X144957000Y-62972500D01*
X144756000Y-62738500D01*
X144748000Y-62723500D01*
X144684000Y-62575500D01*
X144621000Y-62378500D01*
X144551000Y-62096500D01*
X144462000Y-61692500D01*
X144423000Y-61506500D01*
X144351000Y-61161500D01*
X144305000Y-60925500D01*
X144279000Y-60763500D01*
X144267000Y-60643500D01*
X144263000Y-60532500D01*
X144276000Y-60354500D01*
X144367000Y-60141500D01*
X144548000Y-60057500D01*
X144676000Y-60057500D01*
X144811000Y-60126500D01*
X144894000Y-60227500D01*
X144954000Y-60489500D01*
X144953000Y-60531500D01*
X144916000Y-60715500D01*
X144805000Y-60936500D01*
X144761000Y-61018500D01*
X144715000Y-61216500D01*
X144801000Y-61344500D01*
X144828000Y-61361500D01*
X144898000Y-61345500D01*
X144951000Y-61296500D01*
X145010000Y-61193500D01*
X145085000Y-61006500D01*
X145191000Y-60700500D01*
X145256000Y-60513500D01*
X145346000Y-60275500D01*
X145403000Y-60156500D01*
X145499000Y-60073500D01*
X145648000Y-60042500D01*
X145750000Y-60088500D01*
G37*
G36*
X130209000Y-61376500D02*
G01*
X130140000Y-61773500D01*
X130015000Y-62035500D01*
X129826000Y-62181500D01*
X129674000Y-62210500D01*
X129484000Y-62185500D01*
X129402000Y-62133500D01*
X129264000Y-61937500D01*
X129210000Y-61680500D01*
X129210000Y-61660500D01*
X129183000Y-61592500D01*
X129162000Y-61622500D01*
X129144000Y-61771500D01*
X129136000Y-61857500D01*
X129059000Y-62103500D01*
X128920000Y-62219500D01*
X128822000Y-62222500D01*
X128669000Y-62182500D01*
X128663000Y-62178500D01*
X128567000Y-62087500D01*
X128548000Y-62059500D01*
X128526000Y-61980500D01*
X128524000Y-61822500D01*
X128525000Y-61782500D01*
X128528000Y-61581500D01*
X128532000Y-61268500D01*
X128535437Y-61044500D01*
X129136000Y-61044500D01*
X129149000Y-61194500D01*
X129250000Y-61297500D01*
X129366000Y-61328500D01*
X129566000Y-61302500D01*
X129595000Y-61285500D01*
X129678000Y-61151500D01*
X129678000Y-60982500D01*
X129589000Y-60861500D01*
X129559000Y-60850500D01*
X129392000Y-60832500D01*
X129277000Y-60839500D01*
X129198000Y-60879500D01*
X129158000Y-60925500D01*
X129136000Y-61044500D01*
X128535437Y-61044500D01*
X128538000Y-60877500D01*
X128544000Y-60442500D01*
X128547000Y-60236500D01*
X128553000Y-59837500D01*
X128558000Y-59562500D01*
X128565000Y-59386500D01*
X128573000Y-59282500D01*
X128585000Y-59226500D01*
X128601000Y-59192500D01*
X128687000Y-59095500D01*
X128834000Y-59032500D01*
X128950000Y-59061500D01*
X129093000Y-59206500D01*
X129115000Y-59258500D01*
X129130000Y-59328500D01*
X129138000Y-59449500D01*
X129143000Y-59658500D01*
X129147000Y-59992500D01*
X129150000Y-60260500D01*
X129154000Y-60482500D01*
X129160000Y-60588500D01*
X129168000Y-60603500D01*
X129182000Y-60552500D01*
X129225000Y-60402500D01*
X129368000Y-60172500D01*
X129568000Y-60077500D01*
X129767000Y-60083500D01*
X129942000Y-60178500D01*
X129995000Y-60233500D01*
X130139000Y-60510500D01*
X130213000Y-60896500D01*
X130212000Y-61151500D01*
X130210000Y-61361500D01*
X130209000Y-61376500D01*
G37*
G36*
X147673000Y-62176500D02*
G01*
X147664000Y-62534500D01*
X147655000Y-62756500D01*
X147647000Y-62848500D01*
X147588000Y-62956500D01*
X147482000Y-63053500D01*
X147298000Y-63055500D01*
X147145000Y-62935500D01*
X147134000Y-62915500D01*
X147114000Y-62862500D01*
X147103000Y-62767500D01*
X147096000Y-62590500D01*
X147090000Y-62292500D01*
X147085000Y-62062500D01*
X147078000Y-61852500D01*
X147068000Y-61749500D01*
X147052000Y-61722500D01*
X147044000Y-61725500D01*
X147002000Y-61812500D01*
X146956000Y-61936500D01*
X146805000Y-62139500D01*
X146755000Y-62174500D01*
X146612000Y-62208500D01*
X146467000Y-62202500D01*
X146264000Y-62095500D01*
X146179000Y-61990500D01*
X146061000Y-61700500D01*
X146002000Y-61316500D01*
X146006369Y-61042500D01*
X146539000Y-61042500D01*
X146551000Y-61214500D01*
X146642000Y-61329500D01*
X146695000Y-61343500D01*
X146858000Y-61349500D01*
X146988000Y-61324500D01*
X147035000Y-61286500D01*
X147089000Y-61108500D01*
X147081000Y-61006500D01*
X146997000Y-60893500D01*
X146797000Y-60862500D01*
X146794000Y-60862500D01*
X146666000Y-60871500D01*
X146600000Y-60913500D01*
X146539000Y-61042500D01*
X146006369Y-61042500D01*
X146009000Y-60877500D01*
X146043000Y-60646500D01*
X146159000Y-60311500D01*
X146341000Y-60117500D01*
X146546000Y-60070500D01*
X146758000Y-60120500D01*
X146907000Y-60262500D01*
X147026000Y-60522500D01*
X147062000Y-60657500D01*
X147079000Y-60651500D01*
X147090000Y-60492500D01*
X147104000Y-60325500D01*
X147154000Y-60170500D01*
X147257000Y-60085500D01*
X147320000Y-60063500D01*
X147517000Y-60087500D01*
X147662000Y-60225500D01*
X147689000Y-60309500D01*
X147698000Y-60482500D01*
X147691000Y-61026500D01*
X147690000Y-61108500D01*
X147682000Y-61676500D01*
X147673000Y-62176500D01*
G37*
G36*
X153315000Y-59231500D02*
G01*
X153452000Y-59402500D01*
X153457000Y-59414500D01*
X153470000Y-59460500D01*
X153479000Y-59539500D01*
X153484000Y-59678500D01*
X153487000Y-59902500D01*
X153489000Y-60234500D01*
X153489000Y-61282500D01*
X153487000Y-61580500D01*
X153483000Y-61776500D01*
X153476000Y-61894500D01*
X153466000Y-61961500D01*
X153452000Y-62002500D01*
X153418000Y-62065500D01*
X153280000Y-62182500D01*
X153205000Y-62205500D01*
X153020000Y-62167500D01*
X152875000Y-62026500D01*
X152863000Y-61998500D01*
X152847000Y-61914500D01*
X152837000Y-61752500D01*
X152830000Y-61472500D01*
X152820000Y-60982500D01*
X152525000Y-60976500D01*
X152230000Y-60971500D01*
X152230000Y-61414500D01*
X152225000Y-61724500D01*
X152206000Y-61916500D01*
X152165000Y-62033500D01*
X152092000Y-62118500D01*
X152055000Y-62148500D01*
X151859000Y-62209500D01*
X151673000Y-62115500D01*
X151651000Y-62090500D01*
X151575000Y-61959500D01*
X151574000Y-61957500D01*
X151564000Y-61841500D01*
X151557000Y-61601500D01*
X151552000Y-61274500D01*
X151549000Y-60894500D01*
X151549000Y-60497500D01*
X151551000Y-60119500D01*
X151555000Y-59793500D01*
X151562000Y-59557500D01*
X151572000Y-59444500D01*
X151583000Y-59415500D01*
X151668000Y-59286500D01*
X151736000Y-59225500D01*
X151852000Y-59198500D01*
X152010000Y-59218500D01*
X152160000Y-59360500D01*
X152220000Y-59459500D01*
X152227000Y-59916500D01*
X152233000Y-60373500D01*
X152527000Y-60368500D01*
X152820000Y-60362500D01*
X152830000Y-59902500D01*
X152831000Y-59865500D01*
X152837000Y-59620500D01*
X152846000Y-59483500D01*
X152864000Y-59409500D01*
X152894000Y-59350500D01*
X152962000Y-59265500D01*
X153157000Y-59192500D01*
X153315000Y-59231500D01*
G37*
G36*
X139564000Y-60091500D02*
G01*
X139617000Y-60127500D01*
X139658000Y-60178500D01*
X139683000Y-60271500D01*
X139696000Y-60435500D01*
X139702000Y-60699500D01*
X139706000Y-61094500D01*
X139706000Y-61125500D01*
X139708000Y-61492500D01*
X139707000Y-61733500D01*
X139702000Y-61880500D01*
X139692000Y-61966500D01*
X139675000Y-62023500D01*
X139572000Y-62167500D01*
X139459000Y-62208500D01*
X139267000Y-62181500D01*
X139157000Y-62042500D01*
X139108000Y-61935500D01*
X139114000Y-61098500D01*
X139114000Y-61078500D01*
X139118000Y-60707500D01*
X139122000Y-60464500D01*
X139129000Y-60319500D01*
X139140000Y-60239500D01*
X139156000Y-60196500D01*
X139199000Y-60138500D01*
X139373000Y-60054500D01*
X139564000Y-60091500D01*
G37*
G36*
X149562000Y-61702500D02*
G01*
X149561000Y-61748500D01*
X149555000Y-62157500D01*
X149546000Y-62494500D01*
X149538000Y-62730500D01*
X149529000Y-62836500D01*
X149471000Y-62952500D01*
X149362000Y-63053500D01*
X149343000Y-63059500D01*
X149155000Y-63047500D01*
X149010000Y-62900500D01*
X148997000Y-62874500D01*
X148976000Y-62813500D01*
X148964000Y-62718500D01*
X148957000Y-62546500D01*
X148953000Y-62257500D01*
X148952000Y-62177500D01*
X148944000Y-61888500D01*
X148931000Y-61741500D01*
X148910000Y-61723500D01*
X148878000Y-61818500D01*
X148822000Y-61962500D01*
X148678000Y-62145500D01*
X148509000Y-62207500D01*
X148299000Y-62192500D01*
X148146000Y-62093500D01*
X148004000Y-61897500D01*
X147958000Y-61778500D01*
X147902000Y-61503500D01*
X147884000Y-61132500D01*
X147888500Y-61030500D01*
X148420000Y-61030500D01*
X148425000Y-61202500D01*
X148511000Y-61322500D01*
X148563000Y-61339500D01*
X148731000Y-61350500D01*
X148868000Y-61324500D01*
X148909000Y-61293500D01*
X148969000Y-61120500D01*
X148961000Y-61013500D01*
X148877000Y-60895500D01*
X148677000Y-60862500D01*
X148669000Y-60862500D01*
X148544000Y-60871500D01*
X148478000Y-60915500D01*
X148420000Y-61030500D01*
X147888500Y-61030500D01*
X147899000Y-60792500D01*
X147971000Y-60447500D01*
X148107000Y-60208500D01*
X148213000Y-60119500D01*
X148431000Y-60072500D01*
X148549000Y-60085500D01*
X148742000Y-60204500D01*
X148882000Y-60462500D01*
X148906000Y-60533500D01*
X148933000Y-60648500D01*
X148942000Y-60619500D01*
X148961000Y-60476500D01*
X148982000Y-60335500D01*
X149024000Y-60186500D01*
X149059000Y-60140500D01*
X149221000Y-60061500D01*
X149404000Y-60091500D01*
X149542000Y-60225500D01*
X149568000Y-60302500D01*
X149577000Y-60472500D01*
X149577000Y-60484500D01*
X149575000Y-60647500D01*
X149571000Y-60928500D01*
X149569000Y-61120500D01*
X149567000Y-61292500D01*
X149562000Y-61702500D01*
G37*
G36*
X134289000Y-59060500D02*
G01*
X134443000Y-59207500D01*
X134453000Y-59232500D01*
X134464000Y-59284500D01*
X134471000Y-59377500D01*
X134476000Y-59536500D01*
X134479000Y-59784500D01*
X134480000Y-60145500D01*
X134480000Y-60981500D01*
X134479000Y-61388500D01*
X134477000Y-61673500D01*
X134473000Y-61860500D01*
X134467000Y-61973500D01*
X134457000Y-62034500D01*
X134444000Y-62068500D01*
X134443000Y-62070500D01*
X134344000Y-62174500D01*
X134304000Y-62195500D01*
X134166000Y-62207500D01*
X134031000Y-62175500D01*
X133928000Y-62042500D01*
X133919000Y-62020500D01*
X133908000Y-61969500D01*
X133900000Y-61877500D01*
X133895000Y-61722500D01*
X133892000Y-61478500D01*
X133891000Y-61123500D01*
X133890000Y-60631500D01*
X133890000Y-59300500D01*
X133935000Y-59211500D01*
X134027000Y-59092500D01*
X134203000Y-59038500D01*
X134289000Y-59060500D01*
G37*
%TD*%
%LPC*%
D16*
%TO.C,D1*%
X126956000Y-92792000D03*
D17*
X126956000Y-95332000D03*
%TD*%
D16*
%TO.C,D2*%
X139783000Y-99904000D03*
D17*
X139783000Y-102444000D03*
%TD*%
D16*
%TO.C,D3*%
X149816000Y-92919000D03*
D17*
X149816000Y-95459000D03*
%TD*%
D18*
%TO.C,REF\u002A\u002A*%
X140589000Y-56471000D03*
%TD*%
D19*
%TO.C,BT1*%
X130384000Y-73702000D03*
X151466000Y-73702000D03*
D20*
X140925000Y-73702000D03*
%TD*%
D21*
%TO.C,SW1*%
X158957855Y-86268076D03*
X157690000Y-88987000D03*
X156422145Y-91705923D03*
%TD*%
M02*
