%TF.GenerationSoftware,KiCad,Pcbnew,(6.0.4)*%
%TF.CreationDate,2024-01-19T15:50:56-08:00*%
%TF.ProjectId,Blinky,426c696e-6b79-42e6-9b69-6361645f7063,rev?*%
%TF.SameCoordinates,Original*%
%TF.FileFunction,Copper,L2,Bot*%
%TF.FilePolarity,Positive*%
%FSLAX46Y46*%
G04 Gerber Fmt 4.6, Leading zero omitted, Abs format (unit mm)*
G04 Created by KiCad (PCBNEW (6.0.4)) date 2024-01-19 15:50:56*
%MOMM*%
%LPD*%
G01*
G04 APERTURE LIST*
%TA.AperFunction,ComponentPad*%
%ADD10R,1.800000X1.800000*%
%TD*%
%TA.AperFunction,ComponentPad*%
%ADD11C,1.800000*%
%TD*%
%TA.AperFunction,ComponentPad*%
%ADD12O,2.500000X4.000000*%
%TD*%
%TA.AperFunction,SMDPad,CuDef*%
%ADD13C,17.272000*%
%TD*%
%TA.AperFunction,ComponentPad*%
%ADD14C,2.000000*%
%TD*%
%TA.AperFunction,Conductor*%
%ADD15C,0.508000*%
%TD*%
%TA.AperFunction,Conductor*%
%ADD16C,1.016000*%
%TD*%
G04 APERTURE END LIST*
D10*
%TO.P,D1,1*%
%TO.N,GND*%
X126956000Y-92792000D03*
D11*
%TO.P,D1,2*%
%TO.N,/LED+*%
X126956000Y-95332000D03*
%TD*%
D10*
%TO.P,D2,1*%
%TO.N,GND*%
X139783000Y-99904000D03*
D11*
%TO.P,D2,2*%
%TO.N,/LED+*%
X139783000Y-102444000D03*
%TD*%
D10*
%TO.P,D3,1*%
%TO.N,GND*%
X149816000Y-92919000D03*
D11*
%TO.P,D3,2*%
%TO.N,/LED+*%
X149816000Y-95459000D03*
%TD*%
D12*
%TO.P,BT1,1*%
%TO.N,VCC*%
X130384000Y-73702000D03*
X151466000Y-73702000D03*
D13*
%TO.P,BT1,2*%
%TO.N,GND*%
X140925000Y-73702000D03*
%TD*%
D14*
%TO.P,SW1,1*%
%TO.N,Net-(SW1-Pad1)*%
X158957855Y-86268076D03*
%TO.P,SW1,2*%
%TO.N,VCC*%
X157690000Y-88987000D03*
%TO.P,SW1,3*%
%TO.N,/LED+*%
X156422145Y-91705923D03*
%TD*%
D15*
%TO.N,VCC*%
X151466000Y-82932000D02*
X151466000Y-81702000D01*
X151466000Y-81702000D02*
X151466000Y-73702000D01*
X130384000Y-73702000D02*
X130384000Y-81420000D01*
X151466000Y-82763000D02*
X157690000Y-88987000D01*
X130384000Y-81420000D02*
X134966000Y-86002000D01*
X151466000Y-81702000D02*
X151466000Y-82763000D01*
X148396000Y-86002000D02*
X151466000Y-82932000D01*
X134966000Y-86002000D02*
X148396000Y-86002000D01*
%TO.N,GND*%
X147525000Y-92919000D02*
X140408000Y-100036000D01*
D16*
X128099000Y-68032000D02*
X135255000Y-68032000D01*
D15*
X140408000Y-100036000D02*
X139529000Y-100036000D01*
D16*
X126956000Y-69175000D02*
X128099000Y-68032000D01*
D15*
X132290000Y-92797000D02*
X127083000Y-92797000D01*
X127083000Y-92797000D02*
X126956000Y-92670000D01*
X149816000Y-92919000D02*
X147525000Y-92919000D01*
X126956000Y-92792000D02*
X126956000Y-69175000D01*
D16*
X135255000Y-68032000D02*
X140925000Y-73702000D01*
D15*
X139529000Y-100036000D02*
X132290000Y-92797000D01*
%TO.N,/LED+*%
X149816000Y-95459000D02*
X149816000Y-99528000D01*
X135338000Y-104735000D02*
X126956000Y-96353000D01*
X144609000Y-104735000D02*
X135338000Y-104735000D01*
X136984000Y-102444000D02*
X139783000Y-102444000D01*
X156422145Y-91705923D02*
X152669068Y-95459000D01*
X149816000Y-99528000D02*
X144609000Y-104735000D01*
X152669068Y-95459000D02*
X149816000Y-95459000D01*
X126956000Y-95332000D02*
X129872000Y-95332000D01*
X129872000Y-95332000D02*
X136984000Y-102444000D01*
X126956000Y-96353000D02*
X126956000Y-95210000D01*
%TD*%
M02*
