%TF.GenerationSoftware,KiCad,Pcbnew,(5.1.8)-1*%
%TF.CreationDate,2021-01-11T11:59:14-08:00*%
%TF.ProjectId,v2attemptBlinky,76326174-7465-46d7-9074-426c696e6b79,rev?*%
%TF.SameCoordinates,Original*%
%TF.FileFunction,Copper,L2,Bot*%
%TF.FilePolarity,Positive*%
%FSLAX46Y46*%
G04 Gerber Fmt 4.6, Leading zero omitted, Abs format (unit mm)*
G04 Created by KiCad (PCBNEW (5.1.8)-1) date 2021-01-11 11:59:14*
%MOMM*%
%LPD*%
G01*
G04 APERTURE LIST*
%TA.AperFunction,ComponentPad*%
%ADD10C,0.100000*%
%TD*%
%TA.AperFunction,ComponentPad*%
%ADD11O,2.500000X4.000000*%
%TD*%
%TA.AperFunction,SMDPad,CuDef*%
%ADD12C,17.272000*%
%TD*%
%TA.AperFunction,ComponentPad*%
%ADD13R,1.800000X1.800000*%
%TD*%
%TA.AperFunction,ComponentPad*%
%ADD14C,1.800000*%
%TD*%
%TA.AperFunction,Conductor*%
%ADD15C,0.508000*%
%TD*%
%TA.AperFunction,Conductor*%
%ADD16C,0.254000*%
%TD*%
%TA.AperFunction,Conductor*%
%ADD17C,0.100000*%
%TD*%
G04 APERTURE END LIST*
%TO.P,SW1,*%
%TO.N,*%
%TA.AperFunction,ComponentPad*%
G36*
G01*
X131978053Y-109161398D02*
X133233757Y-109497862D01*
G75*
G02*
X134011574Y-110845081I-284701J-1062518D01*
G01*
X134011574Y-110845081D01*
G75*
G02*
X132664355Y-111622898I-1062518J284701D01*
G01*
X131408651Y-111286434D01*
G75*
G02*
X130630834Y-109939215I284701J1062518D01*
G01*
X130630834Y-109939215D01*
G75*
G02*
X131978053Y-109161398I1062518J-284701D01*
G01*
G37*
%TD.AperFunction*%
%TA.AperFunction,ComponentPad*%
G36*
G01*
X134100369Y-101240806D02*
X135356073Y-101577270D01*
G75*
G02*
X136133890Y-102924489I-284701J-1062518D01*
G01*
X136133890Y-102924489D01*
G75*
G02*
X134786671Y-103702306I-1062518J284701D01*
G01*
X133530967Y-103365842D01*
G75*
G02*
X132753150Y-102018623I284701J1062518D01*
G01*
X132753150Y-102018623D01*
G75*
G02*
X134100369Y-101240806I1062518J-284701D01*
G01*
G37*
%TD.AperFunction*%
%TO.P,SW1,3*%
%TO.N,/LED+*%
%TA.AperFunction,ComponentPad*%
G36*
G01*
X132575875Y-107509849D02*
X133541801Y-107768669D01*
G75*
G02*
X134072131Y-108687227I-194114J-724444D01*
G01*
X134072131Y-108687227D01*
G75*
G02*
X133153573Y-109217557I-724444J194114D01*
G01*
X132187647Y-108958737D01*
G75*
G02*
X131657317Y-108040179I194114J724444D01*
G01*
X131657317Y-108040179D01*
G75*
G02*
X132575875Y-107509849I724444J-194114D01*
G01*
G37*
%TD.AperFunction*%
%TO.P,SW1,2*%
%TO.N,VCC*%
%TA.AperFunction,ComponentPad*%
G36*
G01*
X133093513Y-105577998D02*
X134059439Y-105836818D01*
G75*
G02*
X134589769Y-106755376I-194114J-724444D01*
G01*
X134589769Y-106755376D01*
G75*
G02*
X133671211Y-107285706I-724444J194114D01*
G01*
X132705285Y-107026886D01*
G75*
G02*
X132174955Y-106108328I194114J724444D01*
G01*
X132174955Y-106108328D01*
G75*
G02*
X133093513Y-105577998I724444J-194114D01*
G01*
G37*
%TD.AperFunction*%
%TA.AperFunction,ComponentPad*%
D10*
%TO.P,SW1,1*%
%TO.N,Net-(SW1-Pad1)*%
G36*
X132886707Y-103452032D02*
G01*
X135301522Y-104099079D01*
X134913293Y-105547968D01*
X132498478Y-104900921D01*
X132886707Y-103452032D01*
G37*
%TD.AperFunction*%
%TD*%
D11*
%TO.P,BT1,1*%
%TO.N,VCC*%
X122300000Y-93300000D03*
X101218000Y-93300000D03*
D12*
%TO.P,BT1,2*%
%TO.N,GND*%
X111759000Y-93300000D03*
%TD*%
D13*
%TO.P,D1,1*%
%TO.N,GND*%
X97500000Y-113900000D03*
D14*
%TO.P,D1,2*%
%TO.N,/LED+*%
X97500000Y-116440000D03*
%TD*%
D13*
%TO.P,D2,1*%
%TO.N,GND*%
X111800000Y-117900000D03*
D14*
%TO.P,D2,2*%
%TO.N,/LED+*%
X111800000Y-120440000D03*
%TD*%
%TO.P,D3,2*%
%TO.N,/LED+*%
X124500000Y-114640000D03*
D13*
%TO.P,D3,1*%
%TO.N,GND*%
X124500000Y-112100000D03*
%TD*%
D15*
%TO.N,VCC*%
X127800000Y-103100000D02*
X130632695Y-105932695D01*
X122300000Y-93300000D02*
X125700000Y-93300000D01*
X130632695Y-105932695D02*
X133382362Y-106431852D01*
X127800000Y-95400000D02*
X127800000Y-103100000D01*
X125700000Y-93300000D02*
X127800000Y-95400000D01*
X122300000Y-101300000D02*
X122300000Y-93300000D01*
X118000000Y-105600000D02*
X122300000Y-101300000D01*
X105800000Y-105600000D02*
X118000000Y-105600000D01*
X101218000Y-93300000D02*
X101218000Y-101018000D01*
X101218000Y-101018000D02*
X105800000Y-105600000D01*
%TO.N,/LED+*%
X101700000Y-120340000D02*
X97600000Y-116240000D01*
X112000000Y-120340000D02*
X101700000Y-120340000D01*
X125760000Y-114740000D02*
X124500000Y-114740000D01*
X127800000Y-112700000D02*
X125760000Y-114740000D01*
X127800000Y-109500000D02*
X127800000Y-112700000D01*
X132864724Y-108363703D02*
X128936297Y-108363703D01*
X124500000Y-114740000D02*
X124460000Y-114740000D01*
X128936297Y-108363703D02*
X127800000Y-109500000D01*
X99460000Y-116440000D02*
X97500000Y-116440000D01*
X124500000Y-114640000D02*
X102760000Y-114640000D01*
X100960000Y-116440000D02*
X97500000Y-116440000D01*
X102760000Y-114640000D02*
X100960000Y-116440000D01*
%TD*%
D16*
%TO.N,GND*%
X114298884Y-75062553D02*
X116277593Y-75375950D01*
X118225613Y-75843628D01*
X120130934Y-76462705D01*
X121981810Y-77229363D01*
X123766829Y-78138875D01*
X125474986Y-79185635D01*
X127095749Y-80363188D01*
X128619126Y-81664275D01*
X130035725Y-83080874D01*
X131336812Y-84604251D01*
X132514365Y-86225014D01*
X133561125Y-87933171D01*
X134470637Y-89718190D01*
X135237295Y-91569066D01*
X135856372Y-93474387D01*
X136324050Y-95422407D01*
X136637447Y-97401116D01*
X136794629Y-99398313D01*
X136794629Y-101401687D01*
X136736485Y-102140474D01*
X136722243Y-102079392D01*
X136581195Y-101768090D01*
X136382124Y-101490288D01*
X136132681Y-101256660D01*
X135842453Y-101076185D01*
X135602742Y-100985965D01*
X134182396Y-100605385D01*
X133929690Y-100563663D01*
X133588109Y-100574846D01*
X133255272Y-100652453D01*
X132943970Y-100793501D01*
X132666168Y-100992572D01*
X132432540Y-101242014D01*
X132252066Y-101532242D01*
X132131679Y-101852102D01*
X132076007Y-102189302D01*
X132087190Y-102530883D01*
X132164797Y-102863720D01*
X132305845Y-103175022D01*
X132310195Y-103181093D01*
X132270377Y-103286887D01*
X131882148Y-104735776D01*
X131861772Y-104859189D01*
X131865865Y-104984206D01*
X131894268Y-105106023D01*
X131945892Y-105219957D01*
X131976127Y-105262150D01*
X131967406Y-105271461D01*
X131064853Y-105107617D01*
X128689000Y-102731765D01*
X128689000Y-95443659D01*
X128693300Y-95399999D01*
X128689000Y-95356334D01*
X128689000Y-95356333D01*
X128676136Y-95225726D01*
X128676136Y-95225724D01*
X128625302Y-95058147D01*
X128621589Y-95051200D01*
X128542753Y-94903709D01*
X128431659Y-94768341D01*
X128397743Y-94740507D01*
X126359499Y-92702264D01*
X126331659Y-92668341D01*
X126196291Y-92557247D01*
X126041851Y-92474697D01*
X125874274Y-92423864D01*
X125743667Y-92411000D01*
X125743660Y-92411000D01*
X125700000Y-92406700D01*
X125656340Y-92411000D01*
X124180430Y-92411000D01*
X124157725Y-92180476D01*
X124049939Y-91825152D01*
X123874903Y-91497683D01*
X123639345Y-91210655D01*
X123352317Y-90975097D01*
X123024848Y-90800061D01*
X122669524Y-90692275D01*
X122300000Y-90655880D01*
X121930477Y-90692275D01*
X121575153Y-90800061D01*
X121247684Y-90975097D01*
X120960656Y-91210655D01*
X120840241Y-91357381D01*
X120454288Y-89956772D01*
X119634979Y-88324645D01*
X119369636Y-87927530D01*
X118323233Y-86915372D01*
X111938605Y-93300000D01*
X118323233Y-99684628D01*
X119369636Y-98672470D01*
X120271516Y-97084478D01*
X120846265Y-95351051D01*
X120857189Y-95263271D01*
X120960655Y-95389345D01*
X121247683Y-95624903D01*
X121411001Y-95712198D01*
X121411000Y-100931765D01*
X117631765Y-104711000D01*
X106168236Y-104711000D01*
X102107000Y-100649765D01*
X102107000Y-99864233D01*
X105374372Y-99864233D01*
X106386530Y-100910636D01*
X107974522Y-101812516D01*
X109707949Y-102387265D01*
X111520197Y-102612796D01*
X113341622Y-102480442D01*
X115102228Y-101995288D01*
X116734355Y-101175979D01*
X117131470Y-100910636D01*
X118143628Y-99864233D01*
X111759000Y-93479605D01*
X105374372Y-99864233D01*
X102107000Y-99864233D01*
X102107000Y-95712198D01*
X102270317Y-95624903D01*
X102557345Y-95389345D01*
X102677759Y-95242620D01*
X103063712Y-96643228D01*
X103883021Y-98275355D01*
X104148364Y-98672470D01*
X105194767Y-99684628D01*
X111579395Y-93300000D01*
X105194767Y-86915372D01*
X104148364Y-87927530D01*
X103246484Y-89515522D01*
X102671735Y-91248949D01*
X102660811Y-91336729D01*
X102557345Y-91210655D01*
X102270317Y-90975097D01*
X101942848Y-90800061D01*
X101587524Y-90692275D01*
X101218000Y-90655880D01*
X100848477Y-90692275D01*
X100493153Y-90800061D01*
X100165684Y-90975097D01*
X99878656Y-91210655D01*
X99643098Y-91497683D01*
X99468062Y-91825152D01*
X99360275Y-92180476D01*
X99333000Y-92457403D01*
X99333000Y-94142596D01*
X99360275Y-94419523D01*
X99468061Y-94774847D01*
X99643097Y-95102317D01*
X99878655Y-95389345D01*
X100165683Y-95624903D01*
X100329000Y-95712198D01*
X100329001Y-100974330D01*
X100324700Y-101018000D01*
X100341864Y-101192274D01*
X100392698Y-101359852D01*
X100462418Y-101490288D01*
X100475248Y-101514291D01*
X100586342Y-101649659D01*
X100620259Y-101677494D01*
X105140506Y-106197742D01*
X105168341Y-106231659D01*
X105303709Y-106342753D01*
X105458149Y-106425303D01*
X105574892Y-106460716D01*
X105625725Y-106476136D01*
X105800000Y-106493301D01*
X105843668Y-106489000D01*
X117956340Y-106489000D01*
X118000000Y-106493300D01*
X118043660Y-106489000D01*
X118043667Y-106489000D01*
X118174274Y-106476136D01*
X118341851Y-106425303D01*
X118496291Y-106342753D01*
X118631659Y-106231659D01*
X118659499Y-106197736D01*
X122897737Y-101959498D01*
X122931659Y-101931659D01*
X123042753Y-101796291D01*
X123125303Y-101641851D01*
X123158552Y-101532242D01*
X123176136Y-101474276D01*
X123183285Y-101401687D01*
X123189000Y-101343667D01*
X123189000Y-101343661D01*
X123193300Y-101300001D01*
X123189000Y-101256341D01*
X123189000Y-95712198D01*
X123352317Y-95624903D01*
X123639345Y-95389345D01*
X123874903Y-95102317D01*
X124049939Y-94774848D01*
X124157725Y-94419524D01*
X124180430Y-94189000D01*
X125331765Y-94189000D01*
X126911000Y-95768236D01*
X126911001Y-103056330D01*
X126906700Y-103100000D01*
X126923864Y-103274274D01*
X126974698Y-103441852D01*
X127040755Y-103565435D01*
X127057248Y-103596291D01*
X127168342Y-103731659D01*
X127202259Y-103759494D01*
X129978490Y-106535725D01*
X130011719Y-106574859D01*
X130074457Y-106624610D01*
X130136403Y-106675447D01*
X130143040Y-106678995D01*
X130148931Y-106683666D01*
X130220171Y-106720222D01*
X130290843Y-106757997D01*
X130298043Y-106760181D01*
X130304733Y-106763614D01*
X130381744Y-106785572D01*
X130458420Y-106808831D01*
X130509522Y-106813864D01*
X131688475Y-107027884D01*
X131685912Y-107029045D01*
X131464150Y-107187956D01*
X131277652Y-107387079D01*
X131223163Y-107474703D01*
X128979957Y-107474703D01*
X128936297Y-107470403D01*
X128892637Y-107474703D01*
X128892630Y-107474703D01*
X128778622Y-107485932D01*
X128762022Y-107487567D01*
X128711189Y-107502987D01*
X128594446Y-107538400D01*
X128440006Y-107620950D01*
X128304638Y-107732044D01*
X128276802Y-107765962D01*
X127202264Y-108840501D01*
X127168341Y-108868341D01*
X127057247Y-109003710D01*
X126974697Y-109158150D01*
X126923864Y-109325727D01*
X126911000Y-109456334D01*
X126911000Y-109456340D01*
X126906700Y-109500000D01*
X126911000Y-109543660D01*
X126911001Y-112331763D01*
X125979072Y-113263692D01*
X125989502Y-113244180D01*
X126025812Y-113124482D01*
X126038072Y-113000000D01*
X126035000Y-112385750D01*
X125876250Y-112227000D01*
X124627000Y-112227000D01*
X124627000Y-112247000D01*
X124373000Y-112247000D01*
X124373000Y-112227000D01*
X123123750Y-112227000D01*
X122965000Y-112385750D01*
X122961928Y-113000000D01*
X122974188Y-113124482D01*
X123010498Y-113244180D01*
X123069463Y-113354494D01*
X123148815Y-113451185D01*
X123245506Y-113530537D01*
X123355820Y-113589502D01*
X123374127Y-113595056D01*
X123307688Y-113661495D01*
X123247883Y-113751000D01*
X102803659Y-113751000D01*
X102759999Y-113746700D01*
X102716339Y-113751000D01*
X102716333Y-113751000D01*
X102618924Y-113760594D01*
X102585724Y-113763864D01*
X102484058Y-113794704D01*
X102418149Y-113814697D01*
X102263709Y-113897247D01*
X102128341Y-114008341D01*
X102100501Y-114042264D01*
X100591765Y-115551000D01*
X98752117Y-115551000D01*
X98692312Y-115461495D01*
X98625873Y-115395056D01*
X98644180Y-115389502D01*
X98754494Y-115330537D01*
X98851185Y-115251185D01*
X98930537Y-115154494D01*
X98989502Y-115044180D01*
X99025812Y-114924482D01*
X99038072Y-114800000D01*
X99035000Y-114185750D01*
X98876250Y-114027000D01*
X97627000Y-114027000D01*
X97627000Y-114047000D01*
X97373000Y-114047000D01*
X97373000Y-114027000D01*
X96123750Y-114027000D01*
X95965000Y-114185750D01*
X95961928Y-114800000D01*
X95974188Y-114924482D01*
X96010498Y-115044180D01*
X96069463Y-115154494D01*
X96148815Y-115251185D01*
X96245506Y-115330537D01*
X96355820Y-115389502D01*
X96374127Y-115395056D01*
X96307688Y-115461495D01*
X96139701Y-115712905D01*
X96023989Y-115992257D01*
X95965000Y-116288816D01*
X95965000Y-116591184D01*
X96023989Y-116887743D01*
X96139701Y-117167095D01*
X96307688Y-117418505D01*
X96521495Y-117632312D01*
X96772905Y-117800299D01*
X97052257Y-117916011D01*
X97348816Y-117975000D01*
X97651184Y-117975000D01*
X97947743Y-117916011D01*
X97997971Y-117895206D01*
X101040506Y-120937742D01*
X101068341Y-120971659D01*
X101203709Y-121082753D01*
X101358149Y-121165303D01*
X101474892Y-121200716D01*
X101525725Y-121216136D01*
X101700000Y-121233301D01*
X101743668Y-121229000D01*
X110481065Y-121229000D01*
X110607688Y-121418505D01*
X110821495Y-121632312D01*
X111072905Y-121800299D01*
X111352257Y-121916011D01*
X111648816Y-121975000D01*
X111951184Y-121975000D01*
X112247743Y-121916011D01*
X112527095Y-121800299D01*
X112778505Y-121632312D01*
X112992312Y-121418505D01*
X113160299Y-121167095D01*
X113276011Y-120887743D01*
X113335000Y-120591184D01*
X113335000Y-120288816D01*
X113276011Y-119992257D01*
X113160299Y-119712905D01*
X112992312Y-119461495D01*
X112925873Y-119395056D01*
X112944180Y-119389502D01*
X113054494Y-119330537D01*
X113151185Y-119251185D01*
X113230537Y-119154494D01*
X113289502Y-119044180D01*
X113325812Y-118924482D01*
X113338072Y-118800000D01*
X113335000Y-118185750D01*
X113176250Y-118027000D01*
X111927000Y-118027000D01*
X111927000Y-118047000D01*
X111673000Y-118047000D01*
X111673000Y-118027000D01*
X110423750Y-118027000D01*
X110265000Y-118185750D01*
X110261928Y-118800000D01*
X110274188Y-118924482D01*
X110310498Y-119044180D01*
X110369463Y-119154494D01*
X110448815Y-119251185D01*
X110545506Y-119330537D01*
X110655820Y-119389502D01*
X110674127Y-119395056D01*
X110618183Y-119451000D01*
X102068236Y-119451000D01*
X99946235Y-117329000D01*
X100916340Y-117329000D01*
X100960000Y-117333300D01*
X101003660Y-117329000D01*
X101003667Y-117329000D01*
X101134274Y-117316136D01*
X101301851Y-117265303D01*
X101456291Y-117182753D01*
X101591659Y-117071659D01*
X101619499Y-117037736D01*
X101657235Y-117000000D01*
X110261928Y-117000000D01*
X110265000Y-117614250D01*
X110423750Y-117773000D01*
X111673000Y-117773000D01*
X111673000Y-116523750D01*
X111927000Y-116523750D01*
X111927000Y-117773000D01*
X113176250Y-117773000D01*
X113335000Y-117614250D01*
X113338072Y-117000000D01*
X113325812Y-116875518D01*
X113289502Y-116755820D01*
X113230537Y-116645506D01*
X113151185Y-116548815D01*
X113054494Y-116469463D01*
X112944180Y-116410498D01*
X112824482Y-116374188D01*
X112700000Y-116361928D01*
X112085750Y-116365000D01*
X111927000Y-116523750D01*
X111673000Y-116523750D01*
X111514250Y-116365000D01*
X110900000Y-116361928D01*
X110775518Y-116374188D01*
X110655820Y-116410498D01*
X110545506Y-116469463D01*
X110448815Y-116548815D01*
X110369463Y-116645506D01*
X110310498Y-116755820D01*
X110274188Y-116875518D01*
X110261928Y-117000000D01*
X101657235Y-117000000D01*
X103128235Y-115529000D01*
X123247883Y-115529000D01*
X123307688Y-115618505D01*
X123521495Y-115832312D01*
X123772905Y-116000299D01*
X124052257Y-116116011D01*
X124348816Y-116175000D01*
X124651184Y-116175000D01*
X124947743Y-116116011D01*
X125227095Y-116000299D01*
X125478505Y-115832312D01*
X125681817Y-115629000D01*
X125716340Y-115629000D01*
X125760000Y-115633300D01*
X125803660Y-115629000D01*
X125803667Y-115629000D01*
X125934274Y-115616136D01*
X126101851Y-115565303D01*
X126256291Y-115482753D01*
X126391659Y-115371659D01*
X126419499Y-115337736D01*
X128397742Y-113359494D01*
X128431659Y-113331659D01*
X128542753Y-113196291D01*
X128625303Y-113041851D01*
X128676136Y-112874274D01*
X128689000Y-112743667D01*
X128689000Y-112743660D01*
X128693300Y-112700000D01*
X128689000Y-112656340D01*
X128689000Y-109868235D01*
X129304533Y-109252703D01*
X130254199Y-109252703D01*
X130129750Y-109452834D01*
X130009363Y-109772694D01*
X129953691Y-110109894D01*
X129964874Y-110451475D01*
X130042481Y-110784312D01*
X130183529Y-111095614D01*
X130382600Y-111373416D01*
X130632042Y-111607044D01*
X130922270Y-111787518D01*
X131161982Y-111877739D01*
X132582326Y-112258319D01*
X132835033Y-112300041D01*
X133176615Y-112288858D01*
X133509452Y-112211251D01*
X133820753Y-112070203D01*
X134051148Y-111905104D01*
X133561125Y-112866829D01*
X132514365Y-114574986D01*
X131336812Y-116195749D01*
X130035725Y-117719126D01*
X128619126Y-119135725D01*
X127095749Y-120436812D01*
X125474986Y-121614365D01*
X123766829Y-122661125D01*
X121981810Y-123570637D01*
X120130934Y-124337295D01*
X118225613Y-124956372D01*
X116277593Y-125424050D01*
X114298884Y-125737447D01*
X112301687Y-125894629D01*
X110298313Y-125894629D01*
X108301116Y-125737447D01*
X106322407Y-125424050D01*
X104374387Y-124956372D01*
X102469066Y-124337295D01*
X100618190Y-123570637D01*
X98833171Y-122661125D01*
X97125014Y-121614365D01*
X95504251Y-120436812D01*
X93980874Y-119135725D01*
X92564275Y-117719126D01*
X91263188Y-116195749D01*
X90085635Y-114574986D01*
X89120483Y-113000000D01*
X95961928Y-113000000D01*
X95965000Y-113614250D01*
X96123750Y-113773000D01*
X97373000Y-113773000D01*
X97373000Y-112523750D01*
X97627000Y-112523750D01*
X97627000Y-113773000D01*
X98876250Y-113773000D01*
X99035000Y-113614250D01*
X99038072Y-113000000D01*
X99025812Y-112875518D01*
X98989502Y-112755820D01*
X98930537Y-112645506D01*
X98851185Y-112548815D01*
X98754494Y-112469463D01*
X98644180Y-112410498D01*
X98524482Y-112374188D01*
X98400000Y-112361928D01*
X97785750Y-112365000D01*
X97627000Y-112523750D01*
X97373000Y-112523750D01*
X97214250Y-112365000D01*
X96600000Y-112361928D01*
X96475518Y-112374188D01*
X96355820Y-112410498D01*
X96245506Y-112469463D01*
X96148815Y-112548815D01*
X96069463Y-112645506D01*
X96010498Y-112755820D01*
X95974188Y-112875518D01*
X95961928Y-113000000D01*
X89120483Y-113000000D01*
X89038875Y-112866829D01*
X88189584Y-111200000D01*
X122961928Y-111200000D01*
X122965000Y-111814250D01*
X123123750Y-111973000D01*
X124373000Y-111973000D01*
X124373000Y-110723750D01*
X124627000Y-110723750D01*
X124627000Y-111973000D01*
X125876250Y-111973000D01*
X126035000Y-111814250D01*
X126038072Y-111200000D01*
X126025812Y-111075518D01*
X125989502Y-110955820D01*
X125930537Y-110845506D01*
X125851185Y-110748815D01*
X125754494Y-110669463D01*
X125644180Y-110610498D01*
X125524482Y-110574188D01*
X125400000Y-110561928D01*
X124785750Y-110565000D01*
X124627000Y-110723750D01*
X124373000Y-110723750D01*
X124214250Y-110565000D01*
X123600000Y-110561928D01*
X123475518Y-110574188D01*
X123355820Y-110610498D01*
X123245506Y-110669463D01*
X123148815Y-110748815D01*
X123069463Y-110845506D01*
X123010498Y-110955820D01*
X122974188Y-111075518D01*
X122961928Y-111200000D01*
X88189584Y-111200000D01*
X88129363Y-111081810D01*
X87362705Y-109230934D01*
X86743628Y-107325613D01*
X86275950Y-105377593D01*
X85962553Y-103398884D01*
X85805371Y-101401687D01*
X85805371Y-99398313D01*
X85962553Y-97401116D01*
X86275950Y-95422407D01*
X86743628Y-93474387D01*
X87362705Y-91569066D01*
X88129363Y-89718190D01*
X89038875Y-87933171D01*
X89772645Y-86735767D01*
X105374372Y-86735767D01*
X111759000Y-93120395D01*
X118143628Y-86735767D01*
X117131470Y-85689364D01*
X115543478Y-84787484D01*
X113810051Y-84212735D01*
X111997803Y-83987204D01*
X110176378Y-84119558D01*
X108415772Y-84604712D01*
X106783645Y-85424021D01*
X106386530Y-85689364D01*
X105374372Y-86735767D01*
X89772645Y-86735767D01*
X90085635Y-86225014D01*
X91263188Y-84604251D01*
X92564275Y-83080874D01*
X93980874Y-81664275D01*
X95504251Y-80363188D01*
X97125014Y-79185635D01*
X98833171Y-78138875D01*
X100618190Y-77229363D01*
X102469066Y-76462705D01*
X104374387Y-75843628D01*
X106322407Y-75375950D01*
X108301116Y-75062553D01*
X110298313Y-74905371D01*
X112301687Y-74905371D01*
X114298884Y-75062553D01*
%TA.AperFunction,Conductor*%
D17*
G36*
X114298884Y-75062553D02*
G01*
X116277593Y-75375950D01*
X118225613Y-75843628D01*
X120130934Y-76462705D01*
X121981810Y-77229363D01*
X123766829Y-78138875D01*
X125474986Y-79185635D01*
X127095749Y-80363188D01*
X128619126Y-81664275D01*
X130035725Y-83080874D01*
X131336812Y-84604251D01*
X132514365Y-86225014D01*
X133561125Y-87933171D01*
X134470637Y-89718190D01*
X135237295Y-91569066D01*
X135856372Y-93474387D01*
X136324050Y-95422407D01*
X136637447Y-97401116D01*
X136794629Y-99398313D01*
X136794629Y-101401687D01*
X136736485Y-102140474D01*
X136722243Y-102079392D01*
X136581195Y-101768090D01*
X136382124Y-101490288D01*
X136132681Y-101256660D01*
X135842453Y-101076185D01*
X135602742Y-100985965D01*
X134182396Y-100605385D01*
X133929690Y-100563663D01*
X133588109Y-100574846D01*
X133255272Y-100652453D01*
X132943970Y-100793501D01*
X132666168Y-100992572D01*
X132432540Y-101242014D01*
X132252066Y-101532242D01*
X132131679Y-101852102D01*
X132076007Y-102189302D01*
X132087190Y-102530883D01*
X132164797Y-102863720D01*
X132305845Y-103175022D01*
X132310195Y-103181093D01*
X132270377Y-103286887D01*
X131882148Y-104735776D01*
X131861772Y-104859189D01*
X131865865Y-104984206D01*
X131894268Y-105106023D01*
X131945892Y-105219957D01*
X131976127Y-105262150D01*
X131967406Y-105271461D01*
X131064853Y-105107617D01*
X128689000Y-102731765D01*
X128689000Y-95443659D01*
X128693300Y-95399999D01*
X128689000Y-95356334D01*
X128689000Y-95356333D01*
X128676136Y-95225726D01*
X128676136Y-95225724D01*
X128625302Y-95058147D01*
X128621589Y-95051200D01*
X128542753Y-94903709D01*
X128431659Y-94768341D01*
X128397743Y-94740507D01*
X126359499Y-92702264D01*
X126331659Y-92668341D01*
X126196291Y-92557247D01*
X126041851Y-92474697D01*
X125874274Y-92423864D01*
X125743667Y-92411000D01*
X125743660Y-92411000D01*
X125700000Y-92406700D01*
X125656340Y-92411000D01*
X124180430Y-92411000D01*
X124157725Y-92180476D01*
X124049939Y-91825152D01*
X123874903Y-91497683D01*
X123639345Y-91210655D01*
X123352317Y-90975097D01*
X123024848Y-90800061D01*
X122669524Y-90692275D01*
X122300000Y-90655880D01*
X121930477Y-90692275D01*
X121575153Y-90800061D01*
X121247684Y-90975097D01*
X120960656Y-91210655D01*
X120840241Y-91357381D01*
X120454288Y-89956772D01*
X119634979Y-88324645D01*
X119369636Y-87927530D01*
X118323233Y-86915372D01*
X111938605Y-93300000D01*
X118323233Y-99684628D01*
X119369636Y-98672470D01*
X120271516Y-97084478D01*
X120846265Y-95351051D01*
X120857189Y-95263271D01*
X120960655Y-95389345D01*
X121247683Y-95624903D01*
X121411001Y-95712198D01*
X121411000Y-100931765D01*
X117631765Y-104711000D01*
X106168236Y-104711000D01*
X102107000Y-100649765D01*
X102107000Y-99864233D01*
X105374372Y-99864233D01*
X106386530Y-100910636D01*
X107974522Y-101812516D01*
X109707949Y-102387265D01*
X111520197Y-102612796D01*
X113341622Y-102480442D01*
X115102228Y-101995288D01*
X116734355Y-101175979D01*
X117131470Y-100910636D01*
X118143628Y-99864233D01*
X111759000Y-93479605D01*
X105374372Y-99864233D01*
X102107000Y-99864233D01*
X102107000Y-95712198D01*
X102270317Y-95624903D01*
X102557345Y-95389345D01*
X102677759Y-95242620D01*
X103063712Y-96643228D01*
X103883021Y-98275355D01*
X104148364Y-98672470D01*
X105194767Y-99684628D01*
X111579395Y-93300000D01*
X105194767Y-86915372D01*
X104148364Y-87927530D01*
X103246484Y-89515522D01*
X102671735Y-91248949D01*
X102660811Y-91336729D01*
X102557345Y-91210655D01*
X102270317Y-90975097D01*
X101942848Y-90800061D01*
X101587524Y-90692275D01*
X101218000Y-90655880D01*
X100848477Y-90692275D01*
X100493153Y-90800061D01*
X100165684Y-90975097D01*
X99878656Y-91210655D01*
X99643098Y-91497683D01*
X99468062Y-91825152D01*
X99360275Y-92180476D01*
X99333000Y-92457403D01*
X99333000Y-94142596D01*
X99360275Y-94419523D01*
X99468061Y-94774847D01*
X99643097Y-95102317D01*
X99878655Y-95389345D01*
X100165683Y-95624903D01*
X100329000Y-95712198D01*
X100329001Y-100974330D01*
X100324700Y-101018000D01*
X100341864Y-101192274D01*
X100392698Y-101359852D01*
X100462418Y-101490288D01*
X100475248Y-101514291D01*
X100586342Y-101649659D01*
X100620259Y-101677494D01*
X105140506Y-106197742D01*
X105168341Y-106231659D01*
X105303709Y-106342753D01*
X105458149Y-106425303D01*
X105574892Y-106460716D01*
X105625725Y-106476136D01*
X105800000Y-106493301D01*
X105843668Y-106489000D01*
X117956340Y-106489000D01*
X118000000Y-106493300D01*
X118043660Y-106489000D01*
X118043667Y-106489000D01*
X118174274Y-106476136D01*
X118341851Y-106425303D01*
X118496291Y-106342753D01*
X118631659Y-106231659D01*
X118659499Y-106197736D01*
X122897737Y-101959498D01*
X122931659Y-101931659D01*
X123042753Y-101796291D01*
X123125303Y-101641851D01*
X123158552Y-101532242D01*
X123176136Y-101474276D01*
X123183285Y-101401687D01*
X123189000Y-101343667D01*
X123189000Y-101343661D01*
X123193300Y-101300001D01*
X123189000Y-101256341D01*
X123189000Y-95712198D01*
X123352317Y-95624903D01*
X123639345Y-95389345D01*
X123874903Y-95102317D01*
X124049939Y-94774848D01*
X124157725Y-94419524D01*
X124180430Y-94189000D01*
X125331765Y-94189000D01*
X126911000Y-95768236D01*
X126911001Y-103056330D01*
X126906700Y-103100000D01*
X126923864Y-103274274D01*
X126974698Y-103441852D01*
X127040755Y-103565435D01*
X127057248Y-103596291D01*
X127168342Y-103731659D01*
X127202259Y-103759494D01*
X129978490Y-106535725D01*
X130011719Y-106574859D01*
X130074457Y-106624610D01*
X130136403Y-106675447D01*
X130143040Y-106678995D01*
X130148931Y-106683666D01*
X130220171Y-106720222D01*
X130290843Y-106757997D01*
X130298043Y-106760181D01*
X130304733Y-106763614D01*
X130381744Y-106785572D01*
X130458420Y-106808831D01*
X130509522Y-106813864D01*
X131688475Y-107027884D01*
X131685912Y-107029045D01*
X131464150Y-107187956D01*
X131277652Y-107387079D01*
X131223163Y-107474703D01*
X128979957Y-107474703D01*
X128936297Y-107470403D01*
X128892637Y-107474703D01*
X128892630Y-107474703D01*
X128778622Y-107485932D01*
X128762022Y-107487567D01*
X128711189Y-107502987D01*
X128594446Y-107538400D01*
X128440006Y-107620950D01*
X128304638Y-107732044D01*
X128276802Y-107765962D01*
X127202264Y-108840501D01*
X127168341Y-108868341D01*
X127057247Y-109003710D01*
X126974697Y-109158150D01*
X126923864Y-109325727D01*
X126911000Y-109456334D01*
X126911000Y-109456340D01*
X126906700Y-109500000D01*
X126911000Y-109543660D01*
X126911001Y-112331763D01*
X125979072Y-113263692D01*
X125989502Y-113244180D01*
X126025812Y-113124482D01*
X126038072Y-113000000D01*
X126035000Y-112385750D01*
X125876250Y-112227000D01*
X124627000Y-112227000D01*
X124627000Y-112247000D01*
X124373000Y-112247000D01*
X124373000Y-112227000D01*
X123123750Y-112227000D01*
X122965000Y-112385750D01*
X122961928Y-113000000D01*
X122974188Y-113124482D01*
X123010498Y-113244180D01*
X123069463Y-113354494D01*
X123148815Y-113451185D01*
X123245506Y-113530537D01*
X123355820Y-113589502D01*
X123374127Y-113595056D01*
X123307688Y-113661495D01*
X123247883Y-113751000D01*
X102803659Y-113751000D01*
X102759999Y-113746700D01*
X102716339Y-113751000D01*
X102716333Y-113751000D01*
X102618924Y-113760594D01*
X102585724Y-113763864D01*
X102484058Y-113794704D01*
X102418149Y-113814697D01*
X102263709Y-113897247D01*
X102128341Y-114008341D01*
X102100501Y-114042264D01*
X100591765Y-115551000D01*
X98752117Y-115551000D01*
X98692312Y-115461495D01*
X98625873Y-115395056D01*
X98644180Y-115389502D01*
X98754494Y-115330537D01*
X98851185Y-115251185D01*
X98930537Y-115154494D01*
X98989502Y-115044180D01*
X99025812Y-114924482D01*
X99038072Y-114800000D01*
X99035000Y-114185750D01*
X98876250Y-114027000D01*
X97627000Y-114027000D01*
X97627000Y-114047000D01*
X97373000Y-114047000D01*
X97373000Y-114027000D01*
X96123750Y-114027000D01*
X95965000Y-114185750D01*
X95961928Y-114800000D01*
X95974188Y-114924482D01*
X96010498Y-115044180D01*
X96069463Y-115154494D01*
X96148815Y-115251185D01*
X96245506Y-115330537D01*
X96355820Y-115389502D01*
X96374127Y-115395056D01*
X96307688Y-115461495D01*
X96139701Y-115712905D01*
X96023989Y-115992257D01*
X95965000Y-116288816D01*
X95965000Y-116591184D01*
X96023989Y-116887743D01*
X96139701Y-117167095D01*
X96307688Y-117418505D01*
X96521495Y-117632312D01*
X96772905Y-117800299D01*
X97052257Y-117916011D01*
X97348816Y-117975000D01*
X97651184Y-117975000D01*
X97947743Y-117916011D01*
X97997971Y-117895206D01*
X101040506Y-120937742D01*
X101068341Y-120971659D01*
X101203709Y-121082753D01*
X101358149Y-121165303D01*
X101474892Y-121200716D01*
X101525725Y-121216136D01*
X101700000Y-121233301D01*
X101743668Y-121229000D01*
X110481065Y-121229000D01*
X110607688Y-121418505D01*
X110821495Y-121632312D01*
X111072905Y-121800299D01*
X111352257Y-121916011D01*
X111648816Y-121975000D01*
X111951184Y-121975000D01*
X112247743Y-121916011D01*
X112527095Y-121800299D01*
X112778505Y-121632312D01*
X112992312Y-121418505D01*
X113160299Y-121167095D01*
X113276011Y-120887743D01*
X113335000Y-120591184D01*
X113335000Y-120288816D01*
X113276011Y-119992257D01*
X113160299Y-119712905D01*
X112992312Y-119461495D01*
X112925873Y-119395056D01*
X112944180Y-119389502D01*
X113054494Y-119330537D01*
X113151185Y-119251185D01*
X113230537Y-119154494D01*
X113289502Y-119044180D01*
X113325812Y-118924482D01*
X113338072Y-118800000D01*
X113335000Y-118185750D01*
X113176250Y-118027000D01*
X111927000Y-118027000D01*
X111927000Y-118047000D01*
X111673000Y-118047000D01*
X111673000Y-118027000D01*
X110423750Y-118027000D01*
X110265000Y-118185750D01*
X110261928Y-118800000D01*
X110274188Y-118924482D01*
X110310498Y-119044180D01*
X110369463Y-119154494D01*
X110448815Y-119251185D01*
X110545506Y-119330537D01*
X110655820Y-119389502D01*
X110674127Y-119395056D01*
X110618183Y-119451000D01*
X102068236Y-119451000D01*
X99946235Y-117329000D01*
X100916340Y-117329000D01*
X100960000Y-117333300D01*
X101003660Y-117329000D01*
X101003667Y-117329000D01*
X101134274Y-117316136D01*
X101301851Y-117265303D01*
X101456291Y-117182753D01*
X101591659Y-117071659D01*
X101619499Y-117037736D01*
X101657235Y-117000000D01*
X110261928Y-117000000D01*
X110265000Y-117614250D01*
X110423750Y-117773000D01*
X111673000Y-117773000D01*
X111673000Y-116523750D01*
X111927000Y-116523750D01*
X111927000Y-117773000D01*
X113176250Y-117773000D01*
X113335000Y-117614250D01*
X113338072Y-117000000D01*
X113325812Y-116875518D01*
X113289502Y-116755820D01*
X113230537Y-116645506D01*
X113151185Y-116548815D01*
X113054494Y-116469463D01*
X112944180Y-116410498D01*
X112824482Y-116374188D01*
X112700000Y-116361928D01*
X112085750Y-116365000D01*
X111927000Y-116523750D01*
X111673000Y-116523750D01*
X111514250Y-116365000D01*
X110900000Y-116361928D01*
X110775518Y-116374188D01*
X110655820Y-116410498D01*
X110545506Y-116469463D01*
X110448815Y-116548815D01*
X110369463Y-116645506D01*
X110310498Y-116755820D01*
X110274188Y-116875518D01*
X110261928Y-117000000D01*
X101657235Y-117000000D01*
X103128235Y-115529000D01*
X123247883Y-115529000D01*
X123307688Y-115618505D01*
X123521495Y-115832312D01*
X123772905Y-116000299D01*
X124052257Y-116116011D01*
X124348816Y-116175000D01*
X124651184Y-116175000D01*
X124947743Y-116116011D01*
X125227095Y-116000299D01*
X125478505Y-115832312D01*
X125681817Y-115629000D01*
X125716340Y-115629000D01*
X125760000Y-115633300D01*
X125803660Y-115629000D01*
X125803667Y-115629000D01*
X125934274Y-115616136D01*
X126101851Y-115565303D01*
X126256291Y-115482753D01*
X126391659Y-115371659D01*
X126419499Y-115337736D01*
X128397742Y-113359494D01*
X128431659Y-113331659D01*
X128542753Y-113196291D01*
X128625303Y-113041851D01*
X128676136Y-112874274D01*
X128689000Y-112743667D01*
X128689000Y-112743660D01*
X128693300Y-112700000D01*
X128689000Y-112656340D01*
X128689000Y-109868235D01*
X129304533Y-109252703D01*
X130254199Y-109252703D01*
X130129750Y-109452834D01*
X130009363Y-109772694D01*
X129953691Y-110109894D01*
X129964874Y-110451475D01*
X130042481Y-110784312D01*
X130183529Y-111095614D01*
X130382600Y-111373416D01*
X130632042Y-111607044D01*
X130922270Y-111787518D01*
X131161982Y-111877739D01*
X132582326Y-112258319D01*
X132835033Y-112300041D01*
X133176615Y-112288858D01*
X133509452Y-112211251D01*
X133820753Y-112070203D01*
X134051148Y-111905104D01*
X133561125Y-112866829D01*
X132514365Y-114574986D01*
X131336812Y-116195749D01*
X130035725Y-117719126D01*
X128619126Y-119135725D01*
X127095749Y-120436812D01*
X125474986Y-121614365D01*
X123766829Y-122661125D01*
X121981810Y-123570637D01*
X120130934Y-124337295D01*
X118225613Y-124956372D01*
X116277593Y-125424050D01*
X114298884Y-125737447D01*
X112301687Y-125894629D01*
X110298313Y-125894629D01*
X108301116Y-125737447D01*
X106322407Y-125424050D01*
X104374387Y-124956372D01*
X102469066Y-124337295D01*
X100618190Y-123570637D01*
X98833171Y-122661125D01*
X97125014Y-121614365D01*
X95504251Y-120436812D01*
X93980874Y-119135725D01*
X92564275Y-117719126D01*
X91263188Y-116195749D01*
X90085635Y-114574986D01*
X89120483Y-113000000D01*
X95961928Y-113000000D01*
X95965000Y-113614250D01*
X96123750Y-113773000D01*
X97373000Y-113773000D01*
X97373000Y-112523750D01*
X97627000Y-112523750D01*
X97627000Y-113773000D01*
X98876250Y-113773000D01*
X99035000Y-113614250D01*
X99038072Y-113000000D01*
X99025812Y-112875518D01*
X98989502Y-112755820D01*
X98930537Y-112645506D01*
X98851185Y-112548815D01*
X98754494Y-112469463D01*
X98644180Y-112410498D01*
X98524482Y-112374188D01*
X98400000Y-112361928D01*
X97785750Y-112365000D01*
X97627000Y-112523750D01*
X97373000Y-112523750D01*
X97214250Y-112365000D01*
X96600000Y-112361928D01*
X96475518Y-112374188D01*
X96355820Y-112410498D01*
X96245506Y-112469463D01*
X96148815Y-112548815D01*
X96069463Y-112645506D01*
X96010498Y-112755820D01*
X95974188Y-112875518D01*
X95961928Y-113000000D01*
X89120483Y-113000000D01*
X89038875Y-112866829D01*
X88189584Y-111200000D01*
X122961928Y-111200000D01*
X122965000Y-111814250D01*
X123123750Y-111973000D01*
X124373000Y-111973000D01*
X124373000Y-110723750D01*
X124627000Y-110723750D01*
X124627000Y-111973000D01*
X125876250Y-111973000D01*
X126035000Y-111814250D01*
X126038072Y-111200000D01*
X126025812Y-111075518D01*
X125989502Y-110955820D01*
X125930537Y-110845506D01*
X125851185Y-110748815D01*
X125754494Y-110669463D01*
X125644180Y-110610498D01*
X125524482Y-110574188D01*
X125400000Y-110561928D01*
X124785750Y-110565000D01*
X124627000Y-110723750D01*
X124373000Y-110723750D01*
X124214250Y-110565000D01*
X123600000Y-110561928D01*
X123475518Y-110574188D01*
X123355820Y-110610498D01*
X123245506Y-110669463D01*
X123148815Y-110748815D01*
X123069463Y-110845506D01*
X123010498Y-110955820D01*
X122974188Y-111075518D01*
X122961928Y-111200000D01*
X88189584Y-111200000D01*
X88129363Y-111081810D01*
X87362705Y-109230934D01*
X86743628Y-107325613D01*
X86275950Y-105377593D01*
X85962553Y-103398884D01*
X85805371Y-101401687D01*
X85805371Y-99398313D01*
X85962553Y-97401116D01*
X86275950Y-95422407D01*
X86743628Y-93474387D01*
X87362705Y-91569066D01*
X88129363Y-89718190D01*
X89038875Y-87933171D01*
X89772645Y-86735767D01*
X105374372Y-86735767D01*
X111759000Y-93120395D01*
X118143628Y-86735767D01*
X117131470Y-85689364D01*
X115543478Y-84787484D01*
X113810051Y-84212735D01*
X111997803Y-83987204D01*
X110176378Y-84119558D01*
X108415772Y-84604712D01*
X106783645Y-85424021D01*
X106386530Y-85689364D01*
X105374372Y-86735767D01*
X89772645Y-86735767D01*
X90085635Y-86225014D01*
X91263188Y-84604251D01*
X92564275Y-83080874D01*
X93980874Y-81664275D01*
X95504251Y-80363188D01*
X97125014Y-79185635D01*
X98833171Y-78138875D01*
X100618190Y-77229363D01*
X102469066Y-76462705D01*
X104374387Y-75843628D01*
X106322407Y-75375950D01*
X108301116Y-75062553D01*
X110298313Y-74905371D01*
X112301687Y-74905371D01*
X114298884Y-75062553D01*
G37*
%TD.AperFunction*%
%TD*%
M02*
